<mxfile host="65bd71144e">
    <diagram id="LKOHxrYq80Ph8O73np5W" name="Page-1">
        <mxGraphModel dx="148.83" dy="18.67" grid="1" gridSize="10" guides="1" tooltips="0" connect="1" arrows="1" fold="1" page="1" pageScale="1" pageWidth="583" pageHeight="827" math="0" shadow="0">
            <root>
                <mxCell id="0"/>
                <mxCell id="1" style="locked=1;" parent="0"/>
                <mxCell id="2" value="" style="shape=image;verticalLabelPosition=bottom;labelBackgroundColor=#ffffff;verticalAlign=top;aspect=fixed;imageAspect=0;image=data:image/png,iVBORw0KGgoAAAANSUhEUgAAA7YAAAIzCAIAAAC7khIQAAAgAElEQVR4AexdB3TUxtpd0tvLS16S1/gFBgyhmO7Q8wix6WBqCL2GXmJMD4ReQiDUkNAcCBB6x0AA0yFgMB0bjDEuC8Ze925vkf6jHXuQd1VH0kq7DGePGY1mRqPvzv2+u7OjkSEjIyM7Ozs3Nzff/q+A7d+z3/dHjZmD9nk0YVF2nJGtVRflJR2b8mxHL80/6Xf2uuiG2S6DEZQ/ADCCbCNLVB7mYEFBAeYg5qAotqhTCHMQc1A+AZ/t6PWyxUFDVlZWXl5eQUFBkf2f2elf1p0Hj8fNlfOJX7LBqVXXZeTFX03a3VvbT/KB4UX5ma6759JXwgjKRx8jWHpMSTvCHMQcxBzEcRB7UWl+s3Rp7EU18aKG3NzcgoICs9lstf+zOf17tnzTk2/ny/zkRkQ7Ney6jIzzC1P29tHwkx973nV363QljKB86DGCTsNKWgbmoEwX+uTb+diLShtzipbGXhR7UczBlzAOGvLz84uKiqxWK2n/R5X+Z0lJjwtcIP+Tsu1Q6YZdemTLT8sIGZ22r68mn5yrq1x6t6UvhhGUDzpGsPSYQjnCHMReVA4TMQdRWFe6DuYg5iDmoFQtKiCRcy7flD+q4gIXGGeuLM1WVx/ZshM1UclZFxZRlkJX3y3jehhBOU4hbV9fjCBjNMlKYg7K9KXYi8oafzIqYy+KvSggL+agDBrJqqoVBw15eXk8s8gp2w7JdOuwuiUlXZaFZFe25aVkXVggk+oSqu8fkH9vJ0XaZHdcVgMYQQmQOfzOgBGUNfRYKmMOQn+IlsBelGVUqZ+FvSj2opCwmIPqE47lClpxUEAiJy4JhiNDZiL/XhTLfbs8qzD+csaJCeiEd1BRHIfZV5Zbs4wuvzmWC2IE0bDGCLIMJoWyMAeRfSn2ogqNQWnNYC+KvSjkLOagNPIoVForDgpIZOOM5XBkyExkXwxXyFaymyFt5ue3sq8sTzswCI35XLUyjo3Lu7vdlp0ou4uKNYAR5AKLNR8jqNjI428IcxDpGQ/sRfmHlUpnsRdl9ZZcmdiLqjQOHZvFXlR9LyogkWXKYmb1jD8vOAKs+bGl0Pz8Vt7trVlnZiLL5fTDw7Iv/Zj/8LAl7bHmN+TcASYEMtMYQWfzuiBHJmrM6hhBF+DlfAkmBDLTGEFn87ogRyZqzOoYQRfg5XwJJgQy0xhBZ/O6IEcmaszqkhB8uSUyE1jSZs0yFj0NK3h0NO/21tzwdVnnF4BPxvHAzFNTQTr78tLc8HX5EXsKn5w2J92xFWYy29BhmjkyZKYlDSwNTIERFPpKjRHUYFhSlEzeMatjBDGC6loAe1HsRdUdYYitM92gzLQkL+o6iZx+4BSibXA1GRaQOZiY1TGCMnBAr8qEQGYaI4gOg4yaMlFjVscIysABvSoTAplpjCA6DDJqykSNWR0jKAMH9KpMCGSmJSEoIJF3DJnRs+v4Gm1G4w+2ALYAmgUGTl4RducRsm/AHEQzO66FLQAtgDkITYET2AKaWEAmB2XKYmZ1xWaRv/tpiyamxBfFFvA8C/y8NQRBJWMOet5IwHeklQUwB7WyPL4utgCwABoHKYqKD1rElLly0pknL4mPxZyzyKGXb4Nb+n1v6NOnyaTZIvdj03iHYPFG8aSSpEU2cBB6jKD0kfE0KfXnrSGASlLnkjEHpdtbjzUwB7VFBXNQW/vr4eqYg9qiIIeDoOdP562RI4uZdXPD7oi3BqdEHjBpeY02o3/fe1quMoYCiyTFdwuXVMoCpMWKEVTKmMjtAJU8YNJySS1gDkoyl24LYw7qARrMQT2goFUfMAe1sjzzumgcBC0kr93BlLly0oVxz5i94k9zSmQw75WZmauUwKKwROaHQp2zpNWGEVTHtBJafZqUCggloQ5FYQ5KMpduC2MO6gEazEE9oKBVHzAHtbI887poHAQtpB8KlSOLmXXJQjOzV/xpAYlM2khlBJbFyt8PfFYlC2AEVTKs1GaRJTJGUKqp9VYeI6gTRDAHdQKE67uBOeh6m7NeEYGDoJ38BzFMmYucfr5iM2vHuDIFJDJFUspIZLyMlQsBtfMxgmpbWFz7CK6huApGUJyF9VsKI6gPbDAH9YGDFr3AHNTC6s7XROBgcSMWa8K0n5CVMayYFfqXc694coQkMkWRVgUWs+JVFjwYqH0KI6i2hcW0j+AaYBWMoBgL67kMRlAP6EBCie8MrIIRFG80fZbECOoBF0gohM6kHzgFlS5aIn7SYlt2rqRLC0tkiiTlPg1qxXtZSAJF6cIYQaUtitAegmt4UQUjiGBxXVXBCOoAjheEEt2ZF1UwgqKNptOCGEEdAPOCUNI7Y8vNN85ciSaOQS1J272BDoqQyBQtktFVshWvQpY+FpSugRFU2qKS20NwDcwqGEHJFtdZBYyg5oAwCSWyM8wqGEGRRtNtMYyg5tAwCYXQmcInRmSVnLo9hJK+4leURKbvhCQl/05hsZLSO4RgNVxFlAUwgqLMpFYhBNfgWAUjqBY4rmoXI+gqS7Nex5FQrIVKZzpWwQiWto/7HWEENcXMkVDSO2PLzU8/cErSuuTnKzbnR0RLvxRdQ7REBs2TFGmz0funWKzs88oWK62kbTYSb/GGBojatTCCaluYo30E18BeBSPIYWG3ycYIagQVO6F4O8NeBSPIazQ3OIkR1AgkdkIhdMZizY+ITj8Umrx2h/NbRRKm/ZS4JDhl26Gsc9csKekIzcMqEiUyrMdMkCSF3wrCNIiMNEmS9+9H3r0XkZMjsKg8JSX17r2I6OgYGVcrqYoRLLGEev8juAYJVTCC6iGH2nJcXMLdexGJic9FNYARFGUmWYUkEKrkOhKqYARLjOau/2ME1UdOAqGkd4Z+FE/p/YWVkMjS7wTX4LJAyNETfv4B302faxVaw52dnTN4yGg//4B79yK5WsP5+rEAgmtAqKKf+8U9efTocYeOX3fr3i87OwdbQw8WQCAUQhU93CnuA7aAPi3gdoTCEllHAyk1NS2gU6+xYycVFBSK6VZKSmqv3oMHDBxZVFQkpjwuo6EFEFwDQhUNbxBf2tkCN27ebt2m6+LFK5xP4RzXWwCBUAhVXH9f+IrYAu5iAbcjFJbI2g+t/Px8P/8A509aWvqIkeP9/AMOHz7m0Mtf1wY7l//xx5Vt2nbz8w84/ucpWD49PQOUPHPmwpUr15xrDRg4EhbGCfUsgOAaEKqo138PaBmwyc8/4Natu8zbWfTDMsCLAwdCmPnz5i/x8w8ImjAdZrbv8JUzg/z8AyZOmkFRVLfu/fz8A65du0FRFLwWs7wzB3t8PXDOnB9iY+PBJbhqwQ7ghBwLIBAKoYqcHuK6FEWB6Nbj64F5efnAIDk5uYBHz58ng5z4eOPs2Ys6de7Vpm23kaOCzp67CPJ5GMoTZ7HZXWYBtyMUlsguGxucF4LUHT4icNy3U+AnKzubXyJ36doHFh737ZRdu/d/P3O+n3/A7NmL4MX+/DPUzz+gbbvuBQUFQCK3at2FWWvBwqWwME6oZwEE14BQRb3+e0DLUIAuXboK3k5hYVH7Dj2cJXJ+fn679t1BfnJyCig/afL3gDsBnXr6+Qf06j0EHK75ZQOrRO7bbxiTazdu3mZycOzYSV269PHzD2jfocezZ4lQWDvXgr3FCTkWQCAUQhU5PcR1oUT28w9Yt24TMIiDRI5+HNMx4Gs//4CATj179R4CSLpz1z6KongYyhNnsdldZgG3IxSWyC4bG5wXgtSNjzc6FOKXyPPm/ehQPvT0OT//gI4BX1ssFnBqzpwf/PwD5sz5gaIoEJ67de/nUAsfusACCK4BoYoLbsR9LwElckCnnmazGdzI6dPnQYj18w9gziKfOHHazz/Av2UnP/+A7Tv2ONz1xEkznPOdZ5Gdf/9x4GBBQUH/AcP9/AM2/74dSmTnWg5Xx4doFkAgFEIVtL7hWtAC8DfSVq27JCQ8pSjKQSKPHBXk5x8wd95i8MTO2bMX/PwDWrbq/PQp/T0T/HNmKE+cLamE/1fdAm5HKCyRVR8Tghfgoa5UiZyfnw/WWty8eYeiKKvVCqa7zp+/hCWyIBCqFkBwDQhVVL0Fd28csGmUPb6ev3AZ3M530+f6+QeATKZEBiF2zS8b/PwDBg8e7XDvzgGYdRbZWew6SGSKon5YvNzPP2DlqrVYIjsYWfFDBEIhVFG82y9bg0Ait2zV2c8/YMrUWQ4SOSHhaclvOyZombHjJvv5B2zZsgPmODOUJ87CWjihtgXcjlBYIqs9JITb56GuVIlMUdTMWQv9/AN+/TWYoqjbt+/af8b9qrCQfp7POTwLdw6XUMgCCK4BoYpCnfXMZgCbtm3b5ecfMHPmAoqiMjOzWrbqPGDACLAcGUrk1NQ0/5ad2rTtlpeX3/2r/n7+AY8ePWYaxTkAo0lkOIsMLs3Fd+alcRrZAgiEQqiC3D1cEVgASOTvZ87v0/cbP/+AS5evMmeRL1z8y88/oFPnXkxzrVy1Fswrw0xnhvLEWVgLJ9S2gNsRCktktYeEcPuQuvAHXz//gD//DOWZVYI/RcEqvXoPAVc6c4b+1Qk8hLdu3SY//4B585eAU0AiwyogAR+AEO4oLiHDAgiuAaGKjA56flUgQP/6K6xP329at+manZ1z8GCIn3/A71t2zJq9iLnQYtfu/X7+ATO+n09R1PLla/z8A8BqY2gj5wDMKpGZXAP7WgAOtmrdZXzQtMDAqV279fXzDxg4aGRubh7ku3MteF2ckGMBBEIhVJHTQ1wXrkWeN+/HS5eu+PkH9On7TVpaOoxWJ07SK6D69h3KtNXmzX/4+QdMnTYbZjozlCfOwlo4obYF3I5QWCKrPSSE24fUDZrw3XfT54LPjZu3Ych0/rkWSOQeXw+E5ZcsKX4CKT8/v207+jGjZ88SBw+mN06+ePEv0AkQntu07QprfTd9bkZGpnAXcQnZFkBwDQhVZHfTkxsAEvns2QsbN27x8w8IOXpizNiJfv4BxqfPpkydxZTI3wwdC7+mhoff8vMP6Na9n81mg9ZxDsCsEvmboWMh1/buOwR/yWGK4K97DsrNLX5PEOihcy14XZyQYwEEQiFUkdNDXJcpkSmKAsT85ZeNUCKDWeSATuizyM5xFpvdZRZwO0JhieyyscF5ISiR5T+uB64BpsSAW+nQ8Wu4azJeaMGJgfonEFwDQhX178ONrwAE6LHjp2Jj4+lfWgaM8PMPGDkqiKKobwOnQIn85EkcU8LCdFhYOLx5kRLZ+cstk4PJyabWbbr6+QfcvRcBWgY9dK4Fr4sTciyAQCiEKnJ6iOs6SOSEhKetWncB65L9/AOeP0+OjzcCSiY+T4LmAmuRf8drkaFF9JpwO0JJkMgk/c9G/7NabVaLzWqxWlg+9lNWm9VK2mwk/UZH/HJqgdGquEQGT/i2at3Fzz9g4cKf4OVheMYIQpu4LIHgGpyrYA7KwYspQME8sZ9/wJ69BymKGj2Gnk4GC4LXr9/s5x/Q/av+cL82sLHU/AXFC5YoipIvkQEHf/pptZ9/wPig74AvHT4i0M8/4OCBI9iLygGaq64zobhKwnznKpiD0DgqJcBvpHC/JrBcEM4iUxQFaDJ79iKwowWYV/Zv2QlsfwF65cxQGGfj4hKwklEJO8FmnQklWMW5QGFudtLjh4+unL95dN+lPzac2bjy2PJ5zp8LW9de3bv1zonDsTfD0ozxtpJtvpwb5MkRkMh2UWyl3bfZbDUXIX3MVov5hWLm6cvLegpSd9SooPFB0+AnIyMTBPX+A4bDzPFB0/Lz84ET6dqtLzMfbAxJUVRBQQHc0vWvv8Lo7zR2BC9foh90aNW6S+D4KfAzf8GPQrBiBBUYmgiuAVTBHFTA+vYmmBJ5+449YE+31NQ0pkS22Wxf9xzk5x9w7PiL9+9cu34DbC4O32XgHIBZF1pA5gaOnxo4fuq1sHDAwW7d+wHSJT59BiaSb964aTUXgdjfv/8wSM/A8VOuhV2n3S/2orLHAeagbBO6ogEHiZyXl/9VjwFMiRwVFd2hI70vcqfOvfr1p/dMpLez2LqT2TkHhpIkmZubA0qOHDmeya9Uk0koAgLlgznINDBiGoGD4EpZpqSIM8dOrftp5/QxwaN7I3w2je13YNG0yzuCn4RfKcqnn/0Q849dIudnZYI7ETd0xEtns9ViIW02PLXMxAZKZEBg+NdkSgFBHeaARE5OLnAiDvnMFyLMtj9+FNCpZ0FeHgQRhGeHWn37DoUFRCQwgkzoJKSlugbMQQnGFVeUKZGTk01+/gETJha/OQ/OIt+8eQfssZqVnQ1btVqtnbv0Zr630iEAg5LO+yI7cO3E8VMOEtlqLlpmn0j+9tvJUCI71ypNTMxBiIy0BOagNHtpVNpBIlMUderUWUAK+HB5XFzCzFkLAzr1atO26/ARgaGh5xw6Cxj6x/bdNqvVaqEn+HKyMh2YVdzms2el+SVGz2AOOthb7CECB28fP7Bn9ngETcxTZdPYfsdXL3wSfkVwatlRIudlpF3YsnbT2H7qSGQ4+Mw2m1WsUXE5KRagJx2tcmb9IUb8CYygFFQoSrxrwByUZln9lcYc1B8mdI8wB/WJixq9whxUw6ry20TgII/SlX9q+7SREWeO0fO2HP9KSeTIC6e2BA0GV1VZItvll8VML1bG/5SzAL1QHH1JDL8mZjuLERSNnUjX8OBiKOagaKPqsSDmoB5RsfcJc1C30CjbMcxBZe2pYGsIHJSvgwVb2Dd3YpoxnvU2X0jkK3u2bBzVC7blColML2428+h31h7jTC4L0L8oIa4XZ5O/YpvCCHIBUipfjGu4uncrJGDw6N6Yg6Us6A4HmIN6RglzUM/oKNU3zEGlLKlGOwgcZMZE9dJbggbH336xZxG892KJfO3Azo2jemkhke0qGc8lQ0BQExr5BaCt8a8BwrAJuoYbh3c78N9VEhlzUBg+MSUwB8VYScMymIMaGt81l8YcdI2dka+CwEGHsKje4ZagwSnxTxxujZbICZF3N4zsqZ1ELrJazPgBPgdgJB3Sy4/FTvrKmTDmrosRFAKM3zUkPX7ozHwXSmTMQSH8hM5jDgpZSPvzmIPaY6BmDzAH1bSuMm0jcNA5MqqXs2/uRIcH+GiJvHveZI0lsrnIZsVP76EPQfDErrYqGSPIjx+/aziwaJoz7V0qkTEH+fETOos5KGQh7c9jDmqPgZo9wBxU07rKtI3AQefIqGrOnROHmbdqeHjl0roRX2suka1mPJHMxEVCmqQf0eOe33XdKYwgH2o8riH+djgr510skTEH+fDjPYc5yGsevZzEHNQLEir0A3NQBaMq3yQCB1mDo3qZ2yZ+w5xINuz/8XskiUzvCwhfAWV/U5T9lXvgfXtImyrYuPfdUB4oD2rR/loQBImMEXTpIOBxDcdWzGMlvJBExgi6FEGei2EO8hhHP6cwB/WDheI9wRxU3KRqNIjAQdbgCDO3Txt5bPm8C1vWXtm16ebRfeBzYcvaMxtWHF48A24PBcuLSTy4GArv3fDLsB6iJbKEl+TZXwlms0l6LR/S6wHhnbycCZIkpUwhYwQ1GyZcriEnzcRFWjaJjBHUDEGuC2MOcllGb/mYg3pDRKn+YA4qZUm120HgoHN83D5t5JVdm+Jvh4t5SV5mUmLU5TOh65dtDhzg3BRrTsiyOdAO4iSyxYw8xWvfwdsqcrNevE0yBEZkgn65tJilFBhBkQZVrRiXa7gXGsLKUsdN3zCCqkEjs2HMQZkGdFl1zEGXmdrFF8IcdLHBkS+HwEFmfNw989tHV86j7RScn5V54/BukUI5LyMN3KOwRLZZLfKVq/1LHv0SSP4PshBHBsyxIkmRNpK02kiLlbRYSHPpj8VC51utpM0m3yaOl0Y6FvPrEkbwBY7aIcjlGrhWWTAlMkZQDwhyERRz0NEyevWimIOOSHEd6xVBrv5iDjpaRq8IInAQSuQzG1daCgsd71TicUaicfu0kbBNrkTU5TOgYSGJrNziBzEq2Wa1SLxf5YrT/bO+iMQO4pj10EJrZeV6IL0lepWF0BcPjCArdiDThQiyugabxcLzpRZUsWIE9YEgOz8xB5l20bcXxRxkYsWe1jeCXH3GcfCFZfSNIAIHgYoNWTZHKbmVkWjkCbvgcmeDVwOTCkjkzOy8F6aXnRKxrbdZ9kVQGiBJkmXOmCcwM09pt12diG0gFX6pB0YQZXhR1NOkVFbXwLodMvxeC6pgDgp/ccUcLPUDHfaiLDTFHGQxSuksHAdL24PzCMdBTtPwnkDjYPDo3pvG9stMSuRtW9rJm0f3wTjLmtg5fQxokVMit+4yrEab0T9vDZF2Zd7S9NcboVlPDRYwyNHHQCtbtZlLFlyApfisPEaQd4Bznvx5a0iNNqPHzF7rUCLizDFWfoJMzEFhcQy/rGIOMlQy9qIORKMoCnPQ2SalcnAcLGUOvgMcB/msw30OjYPBo3uf2biSu1WUM0X5eYKbXRTmZlMUxSmRpw0YACax1mw7+jQpFaUXbHVsVgv/cmSl5tLZLs6eJ3l9BYzKjIQmbwcU/C6rhjExguzDiCP3aVLqmm1HAZXC7jxyKHV5RzCPRMYclCCRzRbMQeha1SC+w9B1ONSzF8UcdACL9VDPCLJ2GGbiOAhMoWcE5XAweHRvY8RtCLdSiXOb1/AE3+DRvZ8/iuSTyFuCBq/+/TAI7fgvtgC2gEwLsP4gE7JsDg9LMQdl2hxXxxZgWgBzkGkNnMYWcL0F0DjIfJeHUhL5SfgVnuAbPLo32B2Zcxb5+OqFFEWF3Xk0YNJy19sRXxFbwGMsMGDScuf5Y8Dz3TO/5WEp5qDHjAF8I9paAHNQW/vjq2MLyOSgUsoYtlOYm80TfINH975+cAffLHLY/m2wLWUTO6eP4enZha2O6zWVvbpDaxlHzsQFLpD/iQ9aRBa6+ikZHjMGj+6NEZQEK0YQDifMQQcvwXMIjcaawBzEHOQaPDgOcllGaj4r9WAm5iDmINeIEsNBzllkuC0cV+vI+Sd+/gEOX+fEseXzkFtGqJi8doekAcRTuDDuGUIHkKsIfgfCCPKAxXoKIwj4iDkokpWYg8BQ2IuKHDDMYjgOMq2BnMYcBKbDHEQYQmI4yCmRwVJlhKsKVrmwZa2zMoY5R5bOFGxBwQJP561hVUsImblhdxTsmGBTPC8uBsbECEoFESMIRg7moCD7QAHMQWAH7EVFDhhmMRwHmdZATmMOAtNhDiIMITEc5JTIyu5Cx+w9/450u2d+yyysdjo+aJFUIcVVPvPkJbV7y2w/Jf4J/F7BmsAIciHFlY8RBAMJc5BJNJ405iAwDvaiPIOE6xSOg1yWkZSPOQjMhTkoadiAwmI4yCmRc9JMCJcUU0VMt8S0o0gZLrWEkJ/x5wVFuiSykeePIlmVMczECEoFESOoiUSWChNPeYwgRlCk/wTFsBcFduDhlNRTmIOYg57EQQ0k8u3jB6CMc064eAZLKv95yqcfOCVpZMgsrKFzxwjKxA5UxwgCO/BwSuopzEF3D88YQYygJO+KvSj2opIGDLOwGCWjgUTGs8hMkJDTGroGjCAyasyKGEFgDak6mKc8nsFyd4GFEcQIMp2kYBp7UexFBQcJVwExSgZLZAV2fAMxGzt37Ny5qMiaj507MAuP5JV6CnMQc5CVa1yZmIOYg1xjQzBfjMASbESpAlJdJU957EWZXpRTIptio5UCz6Gdq3u2gB6w/t03d6JDeVUPjTOW84wVSaeyL4ar2lWHxrNMSawGhJkYQUnwxQUuwAiCwYM56MA1rkPMQWAZ7EW5RghPPo6DPMYRfwpzENgKc1D8mIElxXCQUyLH31ZL8J0NXg1lnHPCxXuyJi4JliqkuMrn34uCpndBQnCzG4wgF1Jc+RhBwEfMQZH8xRwEhsJeVOSAYRbDcZBpDeQ05iAwHeYgwhASw0FOiXwvNAThkmKqHF48w1kZw5zQ9cvENKJUmZRth7gEk9R8S0q6Ur0S0w5ps0GjsSYwghhBroGEOchlGUn5mIPAXNiLSho2oDDmIILRnKtgDgKbYA46jw3BHDEc5JTI5zavEbwAQgHSZtscOIBV0oHMyzuCEZpFrpJ9MVyqkGItb5yxHLkPyBW3TfyGx5IYQVakuDIxgnAsYQ6KpyTmIEVR2IuKHzCgJI6DUi3GUx5zEHOQZ3hwnRLJQU6JrNJ6xDRjPIzErIk7Jw5z3ZIa+ZaUdC7NJCk/ZdshNbrH3+b+BVNYbQgyMYIYQdbxgznIaha0TMxBiqKwF5U6eDAHpVqMpzzmIOYgz/DgOiWSg5wSOXh0bzXePcG/EV3w6N6xN8O4bkml/OcrNkvSUqyF8x/EqNQ9nmZPrfuJRyJjBFmR4srECMKxhDnIQzqHU5iDwCDYizoMDP5DHAf57SPpLOYgMBfmoKRhI5KDfBJZjQndA4umwUjMmshINEq6T/mF8yOiuWSTyPzEZb/J7wZCC9cP7mC1IczECGIEnccV5qCzTZBzMAeB6bAXlTSEMAclmYu/MOYg5iD/CGE9K5KDfBJ5z+zxdy4V/Dw5PbBNEv5gC2ALoFng58np0XeKWFkaezMMfp9hTeyZPf7Ik6cdDp//YO0+/MEWwBZAs0CHw+cvPjMhcxDHQTTXh2thC0ALyIyDpM3Gyl+0TMEN0TcHDgBX5JPIc3ocgbeHE9gC2AJyLHB8a44zmQV3LGr5wzI0TYBrYQtgCzhYYNH1SAQO4jgox+/hutgCTAugxcHg0b0jz51wJi9aDmmzhSybwzonBTOPLJ0JGueUyMsHLKJvrHXy0d9yom+bTUarzE9yvDkptoD/kxyvwIVk9TPBYoozm2KLhD/xZlOCXJvI6qodkaS4Qn6TJsUWmowW+RcyGa0YQQQzRt8271uTHdg6ObBNEutc8u6Z30JaOiTGT5sIYvzca/cvPEuJzsyR+XmUnhWVms7/eZSeJfMqcguf7CUAACAASURBVKtnZEenZUWnZgp/0rOiM+TaRG5vM3Oi0jL4TRqVmhGdmS3/QtGZORhBBDNeeJYy6dJtQCXWuWQeDuI4KBAKcRxkUzVYyTjESjlxEITFLUGDkx4/RNPEDrWu7t3qEGqdD68f3CEgkad3uRTYJikkOCsptjA5Qa7GSo4vElJytHo2yb6QAzCyDhMspnjwMRcnEiz66iEtW8UYFiOoMYK0Sm6TtHpSmgNXKYq6uG29Mz9BTv2f1n6wdt+cq3ejUjMeZcjVWI/SM4WUHK2eo2VfCEHEcFbJyI5OB5+s4kRGtr56SMtWMYbFCGqMIFDJ7Q+dl8RBHAfpkIfjYMkUobiAi5UM++whWhyE8XFL0OAHF0PlrLgozM0+v/kX2CBPIvHBPQGJDObG4yJL5n3jEGWWfepRcKYTXKVQlqItGcQvVyMJFjHfPegyGEHtRkj0bTMglHN4jr8dzkVUMO8VnpRSLG3TEGWWfepRcKYTzC5ncKpV2XPYHttyRraY7x50GYygdqPowrMUQChJHMRx0D3iKY6D2kU38SMELQ46xMf9C6Y8uBhamJvtTGSenDRjfNj+bfxbaMML/TFlOBTiht+CBq8b8fWGkT03juq1cVQvWAi4Bhb5FVeUHG+m55W5ZnwTLMkJZvrLlvAagBL9bf+pQvvfJtxhkDkPx6RYkd9ASqyNEdQCaC6JTNpsf0wZDnnHTICIziK/0jIfpWfR88pcM74Z2Y8ysujZTeE1AKXWXWi/ykI7CSVHwUelivwGUmJtjKAWQHNJZB4O4jjoHHH0mYPjoD5xcegVQhxkxkRm+sjSmVf3bIm6fOb5o8icNFNRfh6UyHkZaRmJxoR7NyPOHDu3eQ3PSipmgzDNfHmW4fyOYGkSmW3lDYuSll7MwZT4UKQFxCwRVgQgwUZEdvjlLMblGiiKCtu/DZKTmeCUyELriVlUtbgqcmTiy1xXzBJhZFAkVXyZURC8dy6JzMNBToksPcAJ+k9Q4OV0j/LvGsdB+TZ0QQsIcZAZE12TTjPGQ7VtSH2euHFsXwmzyCq5hrgiF8DjqZeQ/AVaDRAxgryT0zyuIT8rk/Wt7K6WyGmZgiIDF+CygOSJZHFfWiTp4yiMIO/kNI9E5uKgqyUy9qK8XpQ/guM4yG8fPZxFiIOukcXwKsdWzIP6mKIoQ15e3l97tmotkfEqZPbl7SLHtA6+QGMEBRDkcQ0URbHufu9aiYxXIcvaHEMHE8kYQQEEeSQyFwddK5GxFxXwovwBEcdBfvvo4SxCHITi1QWJTWP7pcQ/cZTIednZO2d+K3YtsgoTkHgVsvyxK3Xlt8hf/UQWwwgKIsjvGiyFhXtmj3dwAa6UyHgVMtf0sPh8qSu/pc0QC806YwQFkeKXyKwcdKVExl5U0IsKFsBxUNBE2hZAiIMOYVHVw7D925j6uHgWuaioKO2Z8Y+pI0Q9rqe4RMY/Lcn4aYk53DX7mQkjKAJBftdAUVRmUuL2aSOZ/HedRMY/0PP+QC+ovWABzZZbYARFIMgvkVk56DqJjL2oCC/KjHdcaRwHuSyjh3yEOMiMiaqmj62YBzeygEKZXmhRVFRktVoznj/b9f042APXuIbIO8+PhFw5e+aeHsDzgD64/jt0cjxeRC7qx0FB1wAiNPPZW9dI5EfprliCfPpe5M4z585GPIBq0lMTrp9Ldg2CHoCXoER25qBr4qAcLxoaevtIyJVHkWk88evZk4KQo1dDjl5N0vzlXArpYJ6bNRmtOA7y20fDswhxEIpSVRPnN/9iKSyEyhgmXkhkkiTNBQVX92zZNLZf8Oje6ruGQlOCxe+rfq+WL79zz2kNMfOwS9vXY0ncBg7xlwEaQQ+znnq3I8Y1UBRlKSyEHFRfImdwbhsnYk5OvGa6ZUz8pG7dT+rWvfDwkfha7ltSykbUJdvACa2j4FiV4SIE3RcLZs/FSGQHDromDiK7nT//DC9DEE0Cuj97UsDfyNCg7w0EsXjlZv5iHnMWx0F9QokQB1VVxsGje2+fNvLxtUtQEzskSklkkiQpisoyJV3eEayia6DfYUG/aHrL9uMGgli0PFgrLO/eerby1x1aXZ3/uotXbn5wz8Rfhuesug6iBEGeDuBTDhYQ6RoAPwEHVZTI9DssXPei6YHfTX/L23v/pStMvcJMX3oUs2jT78wc/aRnr9twLTYBoT/qCmXXIohw+zqsIlIiMznogjjo4CjEHybFm2v7t63Y+POoiFTBWs/jivy+6vdBdR85YcX5Kk9j8mf+sMY5Xw85W7cfP3P6jorrLnAclP6bAEIc3BI0WCWVvG/uxIgzx2wWi4MsZh6ySGRwGtyJ/XWLnFOSN8NiDQQBPx9W9+k8cOSta3FJsQXMU6+WL0981mhI4HdR91NMRsvtG0ZYBSZGTZqzZsMeA0F85FMr5kEGINjvfxwzEMTnnb+GfFu8cnOVZi3eqFiR+KzRpFlL4VfnPiMngKYOh1yBheMf575TuYqBILwaNYOZMPEoMq1i489b9RxoMlpjHmSMnbagfMOmb1fyrvJ5i4XLNoIfpN6sVAn2kJm4ERbr1agZzPmkdt22vQdfvvgQNP55568NBPH7H8dMRisoNn3+SnjdGi1aGgjiSEk/r/4V3bb34L9VrfZWJe86LduBWiajtX6bjjVatIyNyoIVURIJFn4ERT6NV1wsrtD+QMnLOHOcFG+OvJsMIYi8myz1J0tJrgFwEER0+/uN+d5M8Wr58gaCuP4k7nzEAzAmd4aeAZOO15/EGQji1fLlo1LT3+AYzGcjHgQuXmIgiAHTvpu4dBkc1cxE1zFj91++aiCICp9/DqVP1zFjDQQx85e10Zk55Zo0MRDE/stX4dnozJylW/9gNgLS6w8dYZaJzswJT3jq1bTpl337RWfm3DImDps1m2jc+C1vb+/mX3y/5teodFrK83QeXBo0/nGdOv79B5y4eQdconH3rwwE8ev+g7CHE5b8BK9e1c/fQBA7z5wDOafu3PfvP+C9qtXe9Pb2adMG1IrOzKnTrn1VP//bz5JgRWmJjGxBBDlmiNkmmNMy7I/lyX0bubRbUPQnBeRLR6VnhT2Jh9XDnsSDsQFzBBOSJDJCHDxy+DJwlVF3kwDvkmILTvx53UAQlZr8D3rRr4cFgrkhGAqbdeoBfYvJaJ00eykYz2s27GHmwzSMd0x+xUZlgfxZi3+BJU1GK7wKs/CoSXPqtmpP83fRz7AwmLT6oLrPjTDabzh8Rk2aA0vCRMd+wz6pXTcuOsdktB44eLFJQPe/V6vxca06bXsPvnL5kclobdGtt0M74HDVrztAxAeHb1aqVOXzFvOXrgd+deq85QaCGDZhpsloFRQGMQ8yvhk/45+1671eoYJXo2bT568EjYz7buH71apfOB9pwnFQupaFEDMTmsRBS2Hh42uXzgavFvluPEE9vW/uxKt7tiQ9fgg4zv9XQCJD6yTTg8ycFFfE/E4GdPAr5cp91rbTZ20C/uFTy0AQ1f7nZ3yUfdPOsVfKlWvQrnP91h3f+7SqgSC+6NYbMhacatCuM/j8sPw3SJhvpy8C13WQyONnLDYQxCvlynk1avZ6hQoGgujQdygoCV3GN+NnwD7/tvUIoB+rRO49MuiD6j4PadVubdShK1Dnn7Xt9LZ3ZQNBTPj+R5PR2qxTD9C9MnZ/UbdVe3B4/1Yi0L41WrRs0K7zv+rUNxDEv+rUB605S+S/Va0GBRZTIt+8Hv+R3Wj/rfcZyC9DECFHr5qM1vCrT96sVIl5O/C+0BKsCPJK5EJ6RZf9VXx4QQVw9CCczFiwykAQfl/1kwQEskSGgf8RLbayotIyHZ4Jc5bIddq3t6uujOux8SBUR2dkN+rWvV7HgHodA8BgrtW2LTj8K/oJlMhLt20HmWUbNDQQxCd164LDoB+XIkvkv9eoARoBf3eduwDvCCS6j/v27zVqXIszRmfm+HbqbCCID2vWrNeh49uVaSaOnr8gOjOHp/NAIlf186/XMeCf9eoZCOKf9eqB1pwl8ntVq0GZxZTI5x9EfVizpoEg/l3fF+SXIYidZ89HZ+acvR/5RqVK/adMdeg2wiEXgtwSOYNe2Wx/FZ9rlsQg3JTLqnzeg556mLRseXRmDvgu17xXb0lXR5bIkOmsXhTOB/m26egkkQtP/BluIAjvJv+DXrTncEeJ/Gr58pF3kuBVqjb3A5GLXyITDRrDANqgXef4x7k8Etk54E6fv9JhBmrQt9MMBNFj6Digqp2rwB6CxM/rdxsI4sDBiyajde/+c6+UK2cgiFp+bSo1+R8dT2vWvn8rcdSkOaCTf69Wg7ZD0+bgcMfuUBDxP6ju06Bd51p+bV7z8jIQxHfzVpiMVmeJbCAIVmGQGFv4WdtOBoJ4v1r12v5t36rkbSAIMCeVGFv46f++9Pmy1XPGo5CsCOI46IAs16EmcZApYdOM8VGXz1zZtenYink7p48RVMPBo3tvDhywb+7EU+t+un5wR+zNsPysTGaDgmmxEpnVZLfDEwwE8U7lKuB91E8eZFRo1NRAEJu2hgCOvVO5Cqh441rc2/axe/N6vMMp2DKUyG9X8r59w2gyWpkS+drVmFfKlXujYsVjx66ZjNZrV2M+rlXHQBDbd50yGa3ANZQhiH/X9YXTe50HjeSSyLdvGF/z8gJE+utSlIEg/l6tBnji4dzZ+waCeO/TqvRNlXz3AtPJ928lwhwgkU+eumUyWo2P82p+2dpAEKvX7TIZrc4S2UAQQwKng7pMiQx8ZcCA4YDDi5YHGwiieddeoOSQwOlvVKx479YzeFHlE+BF4vQ7w+1vFOd5r3iJKZTvg+5bToo3A88LoGnetZeBIN6q5A1HmhibyJfI7GogIxtI5PD4pxcfPgID3kAQP+/ZF52ZcyPhabFEZkwEghnZv6KfwAahRIY5QIL0CpoAc5Al8he9+8BGnBMXH0a/5uUFJndP3LpLh7rqNcITnkZn5oRco7XFu1Wr0q/aLum/c+eZE9gRyanVW7YyEMSPv2+NzsxxlsgGgug3eQpojSmRwYx42yHfPLRvDTHzl7UGgmjaowco2W/ylNcrVrz8KAZ2Q8kEeJE4/c5w+xvFed4rXmIEJa/uJm1GpWe96U2rHwBK0x49DATxpre3pIlk+RKZlekgDgLq/bbliCnBEh2RCnhnMlpPnroFpCGs6yCRwVfWJat+BwUuX3xoIAiQyS+RHWaLYRx0yOcKuOBCb1aqFP84F1y6gv2n0c3bjnJVgbcAEpWbfQGmvUxGa5fBo+gvMLOWmozW5ARL+z7fGAiC2ROgrtb9dgA2AiK+f4/+IGfj74cMBFGuQRMuicwqDFb9ugNM0oP5qdOhd17z8nqnchXwCzOYJvtt6xF4UfZESfjDcZDdPvYYrVUc5FexOWmmNGP880eRzx9Fxt8Of3TlfOKDe+Awy5RUmJvNX13wrDyJbF8yAXWwyWjtP2aygSBmLFjlzLHqX9A/a4Ycvep8CqACCAO+SvYcHuggkWct/sVAEB37DYMQTvj+RwNB9BwxHroGoFPBGgawygLkOM8iz/mRDoE3r8ebjNYb1+gfld77tCrQ5Sajdcfu0D92nngakw+vxS+RTUYreBhimv0bsLNEfs3L6/UKFa7+FW0yWpkS+cPqPgaCOHP6LrhQXHTOV9+M7T9mMjg8fpz+hW7Oj2thN3BCKwsEbzncbfBo+jc7o/Xc2fvdBo/etDVEUmfUksiZOUAi30h4evFhNPiZpQxBeDVtGpmSrn+JPG3VagNBnH8QFZ2Zcy6SFgfvVq168WE0UIHBIcfWHzoSYUqDopBfIkdn5gyYSs+Ejf9xKatEBkw8ded+dGYOUyJ/UIOe4jp89Rq40N3npk4jR/UcHwQO95y/ZCCIaatWw27ghOstsHr33oDhI46G3wRfnwKGj1izd7+kbqglke1x8JVy5coQRMXGnz97UhAdkSZeIldt7vd6hQpwPeGUufRiJxC5VJXIJqPVu2lzA0Hs2nuGjoP2ZZNvV/KOi87hitFMjxcaehvOCpmM1p4jxhsIYvjEWaDMtasxf+w8ARwmyBGUyI8iaaO9XqECq0TmEgbt+gwxEMS8Jetg3wJn/NB9yBgQ3J89KXi3yqdgOSUsgBPIFtAkDgqqWFULKCmRn8bkA2L/unGfA8duhSe87V35lXLl7t165nAKogUkcvOuvco3bPpKuXJnz9xjziL3HTXRQBBT5i6D5cEXRN82AVAiB874wUAQQ4O+Nxmtm7aGGAgC5DhL5La9B3/kUws2BUTte59W/Wb8jEsXHsB8mOCXyE9j8uu0bGcgiA2bDrLOIg8cNxUuC4ESGXiEMgRhfJwHL8RMPI3Jf6VcOUxvpk3cN+0yifxOlSqdRtIzOjN/Wat/iezff8CHNWtCoQPmfd+tWrX/lKl/3rgN82GCXyJHmNJ82rQxEMTKnbtZJXLvCbQbaT1oMFMih9vn2ssQRERyKrwQMxFhSnulXDmwWpqZj9PuZQFVJfI7lat89Q29On/R8mBJErmWX5sW3XrTay3sTztUa+73frXqYM2D2hJ5zNT5BoIYOZleZLx09RYDQbTpPRguhmROfjk73vlL1xsI4uIFetbAZLQePHQJfFev17rDqrU7nYOaoEQGIbtKsxasEplLGICpt937zjr3EOQ0aNf5/WrVJf3ix9UUzpdvAYQ4qKoCFmxcAYn8SrlyTTp2a9Kx23/q+hoIgmjQODYqC+jg4rXIbYrXIg8cNxXSD/4iTFf5rBFcle/fo/+GTQfBwmWmRO5q/x1n4bKNEKQDBy/SS5+b+0GJvDZ4f9n6Df5d1zc5wQJ+9zkScoX1cT2fL1v5fNkKNvU4Mr33yCCwlMpAEF0Gj4KPDIIyXBKZuRbZ58tWwC84zyKfOHEDLC87eiwMSuQ7N4t/BAeXGD1lXp+RE8AH8vmT2nWrfE67DPzR1gJBMxaXb9h0244/wU4s5Rs2nThziaQuIbgGENEFVYjDLPI7VaqcfxD1prf3P2rVOv+AXkT0avnyzEacVaaqCy2YTO86ZiyzJ9GZOdX8W1bzbwkzbxqfdR/3LWRih2HDbxkT4Vn43B5zlYjzWuRq/i2B2HVeaLHv4l9VWnxJz5yduwBnkS9FPWZaaej3s74aFwg+8Hf8j+vU8W7+BbMnOO1iC4yaN59o3HjdwcPRmTlrDxwiGjces2ChpD6oLZFvXo9/q5L3RzVr37xe/AyAmIUW3k2bL19DP9i6dPUWsOqvx9Bx4PdYfonMZNYq+9ZMPGuRmYVBwDUZrceOXTMQRFV7DO3Qd6iBIFat3ckTo5keb/jEWQaCeByZDjN37A4lGjQGF/qkdt0/dp6Ap+Bze84LLcBa5Nr+bcE88Xr7SgzntchcwgAsDgE/HS9f8weMoXCqC6y3hM8CMbuE01ItoEkcFFSxqhZQQCJD7v27rm/nQSNvhMWycszvq35A+QH1/Gr58v49+oNP75FBTIlsMlrrte5gIAjwTRr8AgVmkSfP+QmCCmaR67fpCCXy8jV/AN7u3X/u3Sqf1vyyddgVOvg5zyITDRp/1rYTbAokwq8+GT1lHniqIGDAcOZZLokM7/3jWnWgqnaWyCdP3dqxO9RAEJ+17QQlMphFNhAE2LYCfMEADSbGFoKrl2vQ5F916jN7gtOut0BSvBnI0KadvjIZrU0CuhsI4jUvL/hNRkyXXCmRozNzhs6cbSCI3hMnMcUf0BMulsgf1a79Re8+4DN91c8OmqZsw0b1OnR0yDx7P3Lo97Per04vfmg75BvmWefOM3e0oB8Sql0bqmpnibz/8tXgEHqfnHodOkKJDGaRDQQBtq34V3366VvweZCaAa7+f40a/7NePWZPcNqVFohKzwIcbNi1W3RmTsMu9APWr3l5we8wYjqjtkQ2Ga1gXhZErlfLlxcjkf9b77OH91Ne8/L6X5eeQBpu3X68+5AxBoLgl8hVmrWAMXTfgfMwDjJXAMNY7BxwwaJh8Kz57RvGD6r7vOblBVb0csVopqMDKyvgplLgVGJs4cbfDzW2P/7+eoUKzJeCcc0iQ64ZCOL7hatBO6wSmVUYgFlkIMeB0UCDe/efA031GhlkIAiwvQaz/zgt1QJaxUFVFbBg4wpIZNafY5irKU6H3gHPwwERyTzFBIm5eB/M/oKvlUAic65Ftq9aBt+eF/y0IeQovTUVeKL2u3krzp65xyqRKzX5X73WHcDVD4dcmTRr6Y7doeDw+tWYMvaJN+ZPRVwS+eSpWwmP8z6pXZdeyFiyjxurRAb7YwC3Djd9+0cN+iH6P/8MB5dOeJwH6A0lctn6DYgGjZlWwmlNLBA444fyDZtu2X7cZLRu3na0fMOmQTMWS+qJiyXyTeOzD3zomKeURA65fsNAEP/x/QxqkXbf0NNOC4J/g1uqsW76xv+4XoVmzWq3awfa3HHm3NiFi4JDjoHDM/ciABOZ6x+4JPL+y1fvJ6d+XId+hHdHyT5urBIZ7I8BmQg2ffvAh34qYO+Fy+DS95Ppx60MBAEl8n98PyvbsBG8d5xwvQVGzp1HNG689sCh6MycX/YdIBo3HjVvvqRuuEAiP45M/0eNmpB3JqP1/LkIA0GUrd8AuotOA0cYCGLZmm0gFH5Q3cdktP6vS89Xy5cv37Dpe59WNT7Oa9t7sKBEdpDC/BKZNUzDx4eApgdTAFBVc1UBNwLmuRNKVglOmbts0qyl8Mk/8Egi00lySWTwuN5c+9NBcPM7LonsLAzAWmSoraGMhhK5x9BxBoK4cS0O2h8nkC2gSRwUVLGqFnCFRDYZrWATALBnlhiJbDJa29h9BNyVBu5ocfz4dZPRevN6/D9r0xs8bd91kukakhMs/7av9wBfHMHTxM6zyL5tArybNgcD5deN+8DjEUAT37v17NXy5V/z8oLkNxmtPBLZZLR+N2+FfRewvqBBLol8OvQOeE4ZSuTe9i+4fl/1BZeOvJvsIJH/VrVanZbtkAc0rqgfC7hYIkdn5kxf9TMYToostLiTmPx6xYplSjY/vh7/9JO69DdDsDMac1sJqFrAvsj8Erlu+w5wr+Wf/qAfTq/eshXQxJcfxQAm3mcsEeaRyNGZOUE/0hvK/q9nL9AHLol86EoYZCKQyN3HfQsqgkuHPaF/KGdK5PeqVvNp0wbeGk64owVcIJFNRuu8Jesg70xGa9yj7DfsxAHbH0VFpILI5fDk+pJVv4NaXQePMhmt/j36u0Yig583gaaH6xi5YjTTnX47fZGBIOAuTxUbfw6fxjEZrUBzi5fIsVFZH9gfXj9x4gbrWmS48YWDMAAbz/2fb0PwtH1SvLmafcs8KJFb9RwIf6pl9h+nNbEAQhxUVQELNu4iibzvwHl6v9La9YyP8wD94ApmsI550fJg5iyyyWj961IUcxbZZLQG2fdFfrV8+crNvgCata392QKmRDYZrUMCp8M1ylwSedC3096q5A0ma42P8wCpPqldt0lAdzCz22ngCOYA4pfI0RFpYONn8LsSl0Q2Ga3geQ4oke/eegbc5T9q1PRtEwDWePynZN+6yDv0/vMDxk5h9gSnNbHApq0h3QaPBs+mXDgf2W3waPiSF5H9QXANIKILahHntcigSoQpjWhMLw1URCJHZ+YMnk6/w/aNSpVqtmnzd/sWEJ916gx2ZAMSuUar1g06dwGf2es2AIn8QY0aMLNB5y7wVR2gk70nTnrT2xtM1kYkp4KFwh/XqdOwS1cws9vum6FMC/BL5BsJT9+tSm/BfiTsOuvjenCeGzzRCF8dculRDFD8H/j41G3fAazx+Ff9+uB3/Ksx9KY3zC3wmF3CaddYYM3e/QHDRxwPvxWdmXM0/GbA8BHw9S4iO+Aaifw0Jr98Q3rzU7DQwmS0jpw8h96irlKlOi3bASHYuEPX5ITit2iBydrIu8mAyGCrHDESuXzDpiB6gr/w1SHM/P5jJnMFXOC4nsbk/61qNaDOb4UngEz+KqAMeGQIvgPr1437ytj3qqvbqn1t/7a0o6hY8XToHege+WeRYXxv12cIv0R2EAbP44rAyre3vSvXadmubP0GYFsMuJlGlWYt4HQY7AxOoFlAkzgoqGJVLeAiiWwyWsGeD0tW/Q7oBzgJ/w6bMNNBIsNvonA3HJPRunjl5srNvnijYsWy9RuMn7EY7svGfEzh0JG/DAQBVi1zSWTw8CxcGhEVkTpswsz/8234RsWK5Ro0GT1lnsNr7fglssloHTWJdoJd7BMAPBIZPM8BJTLYcq7b4NEfVvd5s1Il4rNGg76dFnH7ORi+6387YCAI8OM+2oDGtRSxANwPEmwCCn4SeVsn+yI7bfr2TpUqUDGs3Env7a+URI5Kz5q9bkOVFl++Xbly+SZNhs+ecycxGVzLYUEwvRH49O9Z367nIGvW7N3PXBpxPf7pgGnf/fezBq9XrPh/jRoP/X6Ww2vt+CVydGbOELuO7zBsOL9EBk80QokMtpwLGD7igxo13qhUqWyDhn0mTrryOBbc3YoduwwEAX7ih7bFCVdaAO6L3Ozrr6Mzc8C+yG/pZF9kp81PgXyEEjkp3rx45eZqzf3e9q5coVGzcd8tjHuU7byeoWmnr96pXAWsVRAjkWH0BInoiDQQB5n5tf3bcgVc6BvBA221/dvCHMEqJqM18k7Sa15ezD2mtu862bhD13cqV/l7tRpNOnYDrxSBbQpK5Mi7yW9X8i5DEJcuPOBaaAFaYz6kRM/TR+eMnbagbP0Gr1eo8HGtOu36DAkNvQ1K3rv1rAxjKzrYGZxAsIBWcVBVBSzYuCyJjGBlnVRJjC38T13f9n2+0Ul/WLvRoF1nokFj5puBWIvhTBdY4Av7a1TBijewrubL7n0kXVe9WWRXKhXFr/UgNeNf9eu3GjhI8ZYVbLBex4CyDRuBt4oo2CxuSpIFmn1tf7veT8vgiprPv+4pqQWVZpEl+QGphafNW9F9yBjmfVKCDAAAIABJREFURz+TJp0GjvhPXV+4/ljqrbmg/PgZi18pVw68kcAFl/P4S2gSBwVVrKoFZEjkBIspvvTHrd7Nts4+Rwu28dLhyF5pf2mQw745CvfTzRFU2Bq8O+vR76ZnvCE28k6SpO0sTEarKhI5Izs6vfTHDd/Nttw+Rws285KkeFxTeNEmepHo+kNHVLmcRyCoimWcXvsXlZ51NSYOXutqTJyk7SyiM3NUkcgqe9EmHbsxZ4UNBDF13nJXuj6ea12/GvN2JW+wrTJPMa1OXTwf+bZ35VGT6F2f+T4qI8h3af6O6e+sJnGQRwGThebCuGe54fcyT17K+PMC/GRfDM+/F2VJSeepK/KURImcYDHFmU2xRQKfuCJTvNmUwDsudQD/uO8WNurQVZ8juEqzFsyndBXrpGchqJhZ1B+NiknkjOzotKzo1EyBT1pmdHpWdEYOlBR6TgyfPce3U2d99rBS8+aT7DOXinXPExFUzDhOyljBlhWTyNiLljjMrduPv1+telx0jg5d8cBxU9v0HuywLV1xPzGCJQi6GDiEOOisZW3ZuVmhfz1fsTk+aFFc4AKej3HmypRth/IfxDg3IjJHtESOtwjIYlbdHGd2MQBSL6fbHcWV75iHIigVca3KI7gGENFfSIT0bAFZzKqb07JetKCm/pB5lbAn8TJbUKm6kh3zaARVsr+CzSogkbEXdZJWyocqp0ugOe0H90zJCRbHuhhBhczraFhxzSLEwVJa1mbLPHkpftJiHlnMeipx2W/m56ZSTYk7ECeR40XMHLNKZJApznZoFse1RFkAI6j1IERwDaUkcrqImWNWiQwydSyOFdRAum4KI6j1IJQrkbEX1dqLigp2PJ3ECPIYxyWnEOIgU8qmbg9hVcBiMuOnLEFQySIkcgLS/DFTMet+Llku8VwyttA7iRHUAUAIruGFRM5Amj9mKmY3mUvWtcaVo/AwgnKsp1BdWRIZe1EdeFH0IGi0mjCCOkAQIQ5CiZwfES1GCvOUSVz2G2xNZEKERBaz+JgpiFnTul+XLIt7Ohh5fP3HCOoAIATX8EIii1l8zBTErGk3WZfsmSoZI6iQzJUzPGRJZOxFdeBF+cKcYPcwgoImUr8AQhyEWvb5is088lfkKanrkkVIZFbJKzUzXu+LkmVxT/2BJat7UsFiLY8RlIcygmt4IZFZJa/UzHT3WJQsRwPpt65UsFjLYwTl6WxZEpnVK0rNxF5UnhfFcVCWBTQ0fsmlEeIgkMiWlHSRIpi/WMq2Q1Bzi0kISWT5v00AJxJX5O7Qumv/MYIl5NQWQQTXUCyR5f9GD/RWWqZ+FaQ86aP3+8II6gNfdImMvag+vCi6D8cI6gNBhDgIhGzO5Zv82lfkWePMlWKUMSwjJJFlLm9nfsnWB0LoHHPT/mME9QEcgmsolsgyH/NizkfqQ6noXdEqbiWMoOImRWoQXSJjL6oPL4oevjGC+kAQIQ4CtZqy7ZBIESxYTNJ+yUISWZHlO0AoO2+/og/M0FnnFv3HCOoDJgTXUCyRFVnGCoRyRvZLJ0+RtJTCVsII6gEFOa8OwV5UH14UPVhjBPWBIEIcBBI5cUmwoPYVWSD/XhScJBZMCEpkobeEMOeJ+dNYImsyRuMwgrp4hQ2CayiRyEJvCWHOE/OnsUTWRKulYQR18Qob9Flk7EU1CV4KXhQjqKAxZTSFEAeBijXOWC5SAQsWy74YLqiMYQEhicyveiWdjXfaxFuGodG/Tb5sF5WEEX9hjKCMwYPgGoolMr/qlXQ2Hc8ia6HVJGHEXxgjKONLDrpE5neMks5iLyrDi6LHfUkY8RfGCMpAECEOArUqKHzFF8j48wJUwIIJLJF1McWIznzBwcrPdklnsWsQtDZ3AQTXgCWywgseZKgrWT3hV72SzmKJLANELJFVDDTcrk8XF5UU6fgL4zgoA2uEOKhriRwTE2OKLVLmb7yZbsdodau/FntvmX/dq//23mIEjdojiOAaQESPiYmJTs1U5m96Ft1OZo5b/c2295b51736b+8tRjBTewSRJbIyERD4YRwHtdIAOA66ZxxUXCKnHzglOHkMCwjMIpNmi2Ifqw1eVV8JkiRJG2mzkjYLaTOTVtEfuryVJK0kSerrjhi9UQw+s4XECDIMKzUpRyKTZlriK/DXaouJiaEoSod/SZLuG2mz36mV/jpNivkLypP0V0F93hfolQLYgTGAEZQxepElMvaifGERx0GpwUCl8u6gZBDiILCW+HUUgiWVXGjhya6BFsZ2WSxeE/OXtFlI0kbpTC5jBPmcuwOgaiKI4BpARMcI6gRB5LiGEdQJglgis4xhHAelzgPqbarIrRBEiINg0MYHLRLUviILZJ68xEIEjiyhWWSLcrPINr3MItvnjC0SvLaDkBI8tFn0I5RJjKAgXs4FVEAQwTUUS2SMoDNAgjkqIMjhQoWzMQdRnK0KCKJLZMxBQcY5F1ABQWGycZTAHNQJBxHiIID06bw1IhWwYLHcsDscw4QlW1AiWxWbAtHB9Cotjp2ZrFKOPhwEacEIil454zASFEUQwTWUSGSMoC4QZHGf4rIwB9G9rqIclCGRMQcxB0umC7GSEef3WEshxEHQTvLaHYLaV2SBwrhnrH1jzRSSyFabUhJZ84lVelmFgwZywSGp8dw5iRGUibJCCCK4hmKJjBHUB4KsDlRMJuagXMerEAfRJTLmIOZgyXoMrGTEOD2uMghxEDSVfihUpAIWLEYWmrm655wvJJFtpDIS2WJ1vrYrc7TRx8CtKOTf0cxFYgRlOnermV5iLvsfgmsolsgYQX0giDwEMAflSmSFOIgukTEHMQeBRMZKBtkP2isixEFwwfwHMYLaV0yB5ys2S7oDAYlMkZQyElnThcguXV/B5kq0/N6JEWRDRGrMlo8ggmsojugYQX0gKMmxliqMEdQHgsgSGcdBqQ6Ttbx8L1qKVpIOMAf1wUGEOFiMs8WaMO0nMSKYv0xW6F+SBo6QRKYo0qrAMixNuUGy0tWlmTaLJFSULYwRVABr2QgiuAYY0TGCekBQDisxgnpAEBJKPJSQthhBPSAoHjjnkhhBPSAICeUMkGBO+oFT/PJX8Gz8pMW27FzBCzELCEtkiiTlPg2q6SYpWi6xYH5vU+LHeiZyEtIYQSYQyGl5CCK4hhcRHSOIjBqzojwEJTDOuShGkAkEcloegi8I5QwQR84L2mIEkVFjVpSHIAdK4rIxgkwgkNPyEHxBKHGgMUvZcvONM1cK6mCeApK2ewOXFiGRKVoko6tkq6arkEkdTCGDsSh7GpI5VqSmMYKaf4FGcA3MiI4R1BxBqaRzKI8R1BxBJqEc0OE6ZNIWI6g5glwwiczHCGqOIJNQIlFjFit8YkRWyanbQyjpK35FSWS6i7TWlLjiwmIlpXeIaQ75aZQp5OJ3BdlfAsLc3oUk7d8VbC9exSfxe5iWq00wgnYLaIgggmtwjOiYgzrkIGkmk3eTkYNsYXVsl/5ru/gfW1gdMnIQadpDkU7PTWMENUXQkVAiAowjbTGCmiIoAjGhIhhBTRF0JJQQXM7nbbn56QdOSVqX/HzF5vyIaOemxOSIlsigMZIibTZ6DyOLlX1e2WKllbTNppN3MtPvlBYpZMGb1cTYDJahv5PapFxC0wl1jCAEDiZciCCCa2CP6JiDED7wxU9DDqYesV31sZ17l/0TVpNKPcrsbHEaI8g0igs5yE4oZmec0uy0xQgyDeVCBJmXlZXGCDLN50IE2QnF7IzItMWaHxGdfig0ee0O57eKJEz7KXFJcMq2Q1nnrllS0kU2yVpMokRmbYP+UsJ6QutM+vuiiA3PZe9OL3bHDE3XWvCBgREU+U4ZGQgiuAYJER0jqD6CpRlEkrFz2JVxacVMxs6nxPhHjKD6CEogVAnYEmiLEVQfwRJY1PkfI6g+ghIIJR1k+lE8pXflU0IiS78T19QQpVxliJ5SdyFOjmu81qJUj93gwJMQRHANCBFdb6B6EoJM25JPZonRx6CMXSUza7tT2pMQRCAUAm31hq4nIag327qmP56EoNsRyqMlsohVFgpqVlHjWN7ToK4hpH6uImYRi7sgiOAaECK6frADPfEkBF/YNuUwhz7+m+3c31hPsa+4eNGiflOehCACoRBoKxJLq6seZPckBEXa1sOKeRKC6hFKJdA9WiILrrJQWrAKD2WbDpYjqzSUVGhWeJ2M+yCI4BoQIroKIMhq0pMQLDYEWWS7WoNdB5MWirSwnrKF1WR5ek+WaV1U2ZMQRCAUAm0Fgdm6b19ZX98yBBESGipYWH4BT0JQvjXcsQVPQlANQqmKqQISeeehQw06dPhb1arvV6vWpm/fG3fviuzxsvXrq37xhWpfpoUXIotaIyjyZuzFhCeSlVrXIaVXblvWoxBEcA0IEV1nWHsUgsC2ZPIudhF87l2KRyKfe5fe48L9/nkUggiEQqAtE2RTaup/fX2HTp4Mn1+PiYt7vUKFPmPHnrpwwZSaCgs7l4Sn5CU8CkF5pnDT2h6FoExCuR5CuRJ5ydq1BoIYOnnynpCQTbt2Ne3S5Z3Kle9ERoI7Kd+o0bezZnHd1Ynz5wNnz+Y6KzdfcHGwKmpVzGiWe2cvS33PQhDBNSBEdH2NDc9CENiWjBzAJZH588nIQfpCR0xvPAtBBEIh0BbalSTJ1n36jJkxA+pjiqJ+37PHQBBMcQz2ZXEuCduRlfAsBGWZwk0rexaCcgilCYByJfK/69Xr8s03sOsFhYVejRt3HjIE5HBJZNVmjmFHKOEJXaV/owfXFlxr8aKLOMVrAQ9DEME1IER0Xou6+qSHIQjMZwurzS+FOc+G1XE1ALKv52EIIhBKKm3p7bMYu+kXFBY6gLB8wwYDQVgsFod855KwgJxw6WEIQpu8PAkPQ1AqoTQHWq5E/tDHZ+R33zFvY9v+/UvXrVu9aZOBIOAnOjY2OjbWQBBTFy2q/PnnH/r4UBQ1ZeHCj2rWBHXL+vpOmDt3wPjxH9So8VHNmiO/+66oqAicMqWmdhs27J3Klf9Zp870H39s179/n7FjmVdkTQu+NETBx7yYHdDqusw+eEZaK0uqdF0E14AQ0XUFvUqWFLxHVa9Lvxyk9LZu8JAiCymyEB46Ji7+R7DneiugqiV5blal6yIQSiRty/r69h037n/dur3m5XXr/n2Kom7eu9eiR4+3vb3L+vrOW7kS3GzTLl1gTKzdqhXIZC25Yft2A0H8+Ouvn9SuDaecdh0+7OPv/2alStW//PLgiROgep+xY1v06DF/1aqyvr7vVqnSpm9fY2IitO3R0FN1W7d+y9u7QpPGs39aWlSQBxa2mkxJfceO/Xv16h/UqNE/MDAzKwtWUSShEoKK9M29GtHKkipdVySh9IORXIk8MCjozUqVNmzfbjaXepVUWkbGvYcP/2t3HPcePiwqKgIS+e/Vqy9bv/7wyZPOErkMQUz74YeIqKjgnTtfKVduZXAwMFObvn3frVJlydq1e0JCvvz661fLl1dGIqsDguB3PpWkuTp3o2WrwhRVp3cqIYjgGhAiujomQWzVwxAEVrBd/Lej9i1RzPxrkW2X/otoR+2qeRiCCIQSSVvw+F3Q3Ln7jh3LyMx8+PgxUKtHTp2av2rVK+XKbdi+naKoJ/HxUxYuNBDE7YiIx3FxFEVxlQQSufqXX27atevy9esURW3dt68MQQTOnh0SGtp33LjXvLweRNMvDOszdmwZgmg/YMDNe/dOXbjwn/r14e+6N+/de83Lq8+YMcdPh67cuOG9Tz+dPH8eaTXn5+X4+Pl5N2u68+D+zbt3f1yrlpiQKmkYquRFJfXBMwp7GAdFEko/2MmVyDm5uX3GjjUQxEc1aw6dPPmv8HDmvTEXWgCJDDwFKOMwi9x16FBYt1FAwFcjRlAUdffBAwNBbNyxA5zKLygo36iRGD4LLHiwlRL08LoKJARXDqmzwEOBnuusCQ9DEME1IER0XWHoYQgC2/IstBCQyO640IJ/30x386IIhBJJ27K+vsyo1HP0aKJBA7h2YtCECdW//BKMH4eFFlwlgUSOjo0tHnU2W1lf3+7Dh4NDkiQrNWs2yv77bZ+xY4kGDfLy88GpqYsWfVK7Nkh3Gzasftu2NksRmDn+4efVf6ta1VJU8Ovvm8sQxN3I+6Qdwd/37HnNyysxKQnUUuYvjoPK2JHyMC8qklAKGU+BZuRKZNCF+w8fBs2d+3+ffWYgiG7DhkHX4CyRj5w6BXvtIJEnzJ0LT7UfMOCLr76iKGrz7t0GgsjIzISn6rdrx3RGMN8hITSwHJeCOVRHP8SuAd12pWp6GIIIrgEhopeyoNYHHoYgMCfP43r8EtkdH9fzMAQRCCWStmChICTcx7VqDZ861VLyb8vevQaCyC8ooCjKQSJzlQQSOSc3F7R5/+FDA0FsP3iwpEnLkIkTG3ToAGaR67drBy8NHqAHh/+uVw9MGwOJnJOdGfnwgaWooNuwoVW/aG4uzDcXFVgslvinTw0EcezMGdiIAgkcBxUwIt2Eh3FQJKEUMp4CzSgjkUFHbDbb5t27Xy1fftL8+SBHjkRu3r07RVGLf/nlzUqVmDeqd4lMUQK7GOJZZCac3GnNXIM6CCK4BoSIzm1ODc54GILAguibviXv1gADeZf0MAQRCCWStkyJbLPZyjCew4GLj8GUMFMi85R0kMhnLl+G7cBEWV9fHolMkmQZgli+Yb1zPPpf166wEZhg/sArb9QU13a+bqkcHAfFWdnDOCiSUOJs44pSsiTyncjIb2fNYj4cQFFU5yFD4I9K8iUy2CKH+TABlsiuGBc6uAZ2DQgRXQe4veiChyFYfGP0q0Oqsy5H5ptFvurjjq8O8TAEEQglMqIzJTJFUe9Urjxk4sTrd+4wP+DHVaZE5inpIJGv3b5tIIhftmxhNng7IoJHIlMU5TCLDBVq235967Rqde3WjWu3b8IGHfahe0Fj1BS8HHsCS2RxhvUwDooklDjbuKKULIkcERVlIIgla9cye9ooIKCmvz/IqdCkybiZM0EarEUWv9ACzCKDS2zeXTwBY7FYFFqLrNpCC3XmIJkWfknS2DUgRHRdjQ0PQ/CFbVMOskpk+9unuV5AfeRFdfdJeRiCCIQSGdEdJHKrPn3qtmljs9kA1DabLTklBaQdJDJXSQeJXFBY+H61asyXDKRnZhbad5TrM3Ys10KLrkOHNmjfHirUTTu3ezVuVFSQt2DlincqVzY+TSBLXg6g8EJk+63C67InsEQW5wc8jIMiCSXONq4oJUsiUxQ1fOrU17y8hk2Zsuvw4R2HDnUdOtRAEOv/+AP0/fNu3aq1aLH94MGMzEw0iUxRVIeBA/9WtepP69fvCQlp1aePgSB0vRYZS2SFxi12DQgRXSHbK9OMhyHINAoZM4NDJb/rnE/GzmHWdaO0hyGIQCiREd1BIv8VHv56hQodBw06curU0dOnW/XpA9YNO69F5irpIJEpilq6bt0r5cpNmDs39OLFHYcOeTdrNnnBAv5Z5PA7d14tX35AYOCJs2fWbN70oY9P4KyZpNWclpZSrmHDai2++GP/vjOXL4+bOfO9Tz/Fs8j6JKaHcVAkofSDhVyJTJLkxh07GnTo8E7lyv/w8fm8W7dDJfs1UhR1+tIlokGDv1ev/vDxY2SJnJqe/tWIEe9UrvxxrVpTFi6s1bLlkIkTBS3oYQNL8H49r4CHIYjgGhAiuq6GgYchWNq2pEiVTD6ZpfiL7kv3RMUjD0MQgVAiaesgkSmKOn/1atMuXd7y9v7Qx6fHyJHPSvaLcJhF5irpLJEpilq3bdunzZu/XqFCWV/fKQsXCs4iUxR15OSJOq1avVmpUoUmjeetWG4uzAdzurFxT7oNG/p+tWrvVK78ebduYF85ZUcS++Sx1Vycj2eRxZnbwzgoklDibOOKUnIlsgv6yNzOIjcv7/1q1X789VfB62o2sPCTvILYiCvgYQgiuAaEiC7OtC4q5WEIslgt5SDXumR6LvlqDSrlMEst98nyMAQRCIVAW13B62EI6sq2rumMhyHodoTSu0QmSbJWy5b9AwOPnj594M8/W/To8VHNmkkmk+Do1G7DbRJ/exZER0wBD0MQwTUgRHQxhnVZGQ9DkN1uZBGZvIveCS6sNv1WkYv/sYXVJiMHkMm7KLL4/aDsFd0h18MQRCAUAm11BayHIagr27qmMx6GoNsRSu8SGbx/qMfIkf/w8fmHj0+7/v0joqLEDE3hgUWSYtqRWga/VUiqxbjKexiCCK4BIaJzGVOTfA9DUBMbantRD0MQgVAItNUWMoerexiCDnf3Mhx6GIJuRyg3kMhoNBCUqqQ6a6GEBzSlijRHs5Kea3kYggiuASGi6wpQD0NQV7Z1TWc8DEEEQiHQ1jXQiLyKhyEo8q49qZiHIeh2hHqJJbLNqgaRBFZZWFV78bUaN6Npm8Kuwa0QRHANCBFdU8QcL+5hCDre3ktw7GEIIhAKgba6GhcehqCubOuazngYgm5HKI+VyJTgY3MlW0IqOdA1uaiSN6CntjQxpmoXRXANCBFdT/hRmIP6ggOhN6rRga8vql0UgVAItOW7NdefU82YfLeiyUX5OuTO5zQxpmoXdTtCea5EFtyf2GqmlF6OLLjKglRn4tOdHQBf34Wn5N0HQQTXgBDR+aypxTlPQlAL+2l/TU9CEIFQCLTVHrPSPfAkBEvf2cty5EkIuh2hPFoi2ywCY0vZiWTBL15Ws0oLoD3VVQjsd2M1w7dDKWMBNRFEcA0IEV0ZOyjXiichqJxV3KklT0IQgVAItNUbup6EoN5s65r+eBKCbkcoz5bIVgGJrKhmFR7HKsxbu4aiWl1FeFbefRBEcA0gomcWufH6dU9CUCsWaHtdj0EwPjvvZZXIOA5qyyG5V/cYDlIUhRAH5ZpPXn2PlsikTVgiK6SxRA1i/KyexMEq/KQCeFeTEpuTqI0ggmtof+j8B2v3LboeKdFsOiruSQjqyKwu7IrHILjoeuQHa/f1/vMvScZDoK2k9l1Q2GMQdIGt9HkJT0LQ7QiFJJFJ+z+bjbSW/thspM1GKr08VM6oFSWRwe/1qN2mh6/gig6g5JRd1yHLLhjBF+ZzDYIIriEk9hmY9/ohPDI+O+9Fjyn7k3AkSdMNc5A2BuZgqdGh7IG7e9H47Lwfwml9/MHafRefCb92imk9PtriOMiwFOYgwxjKJ92dg9AifISChUQnyEJzYdyz3PB7mScvZfx5AX6yL4bn34uypKSLbomzoBSJDEKyxUqaLQIfi4W0Wkmb9hsAixWvJRKWJK2inuGjnaNN5Lzji8GtxGQnJ5JiTmAEoZVcjiCaawBTXyC647/YAtgCciyA8IMMC22xF9XOi8Iry0pgBKH53CQOwv6ChC07Nyv0r+crNscHLYoLXMDzMc5cmbLtUP6DGIcWxB+Klcj0ZJWgMnYuYLFqO6lMC1kgf6X+tdGPgtk/VloKF3/sOVKbKikvHhU1SmIE7SBqhiBLrBUH88VnJrDiQo44wHWxBV5mC7Q/dF7q/DFgpwNtpXrR46GhBoK4GxHJjIOm1NT/+voOnTyZmSnOGZQq1XnIkMETJpTK4jgQEwdzsjPLN2oUvGN7qYiJ4yBQNVjJlMgYUt56UQdCcQxY7mybLfPkpfhJi3lkMeupxGW/mZ9L+wUJdEKURKanhJ3lr/gc1DUM3HaScIa0mUtxnoG0S/M13e4NI6gA1vIQlOkaUreHsDJfTGb8lCVo3kECzXiLZoZOT9vXV/NP/sPDvN1U9yRGUP4AcD2CTNoieNFiiXw/gg6g9jhIkmTrPn3GzJghUx9TFLVs/foN27eLHLWCcdBSVDB8yuRLYVcUcJU8QVaeFxV5s1zFEBAspXywkqFXpcp65xqTUFww8eS73osKS2R6vaN4Ncxa0iLLpjz2EnNKzBdodZ2C3V+IWr8h5n6kl8EIKoKvTATluIb8iGgxUpinTOKy36QPHMVqmBPD5csjmS2kHxlJWkqv51bs/oQbwgjKhC9tX19NEIS0RfOipSRySRwsKCwUHjG8JaxWySEVOQ5aigoU8Z+gEZlelNcqAifRECwlfkoQFLiSOqeREVQQPnoKWd73BEgoBCNp4kVFSGQxi49ZlTEzU9N1ydJWJPN8A0Y+pekqZBIjiAwcrCgbQTmu4fmKzTzyV+QpOeuxENyZQ5WsC4vkiyQ5LRTGX3DokisPMYJysAN1NUEQ0lbQiy7+eU2Fxk3e8vau5e+/59BhIK1KSWSz5caduy169Hjb27usr++8lSudR+CD6GgDQaz5/fdmXbu+9+mn5Rs1WrdtGygWHRtrIIipixZV/vzzD318KIpq2LFjt2HDwNl/1a07evr0r0eN+medOu9XqzZowoTMrKyx33//Dx+fD2rU6DFyZGp6OoiD2VkZQXNml2vY8G1v79otW+4/GgIkVH5ejoEgVgVvJK3m9du2Gghi8ZqfP6ldu9PgQaDAzoP7ffz83qxUqXqLFgePH0MRXrK9qLPFxOcIIlhKDTPVCzONlYx4i7OVhIRiOymQp4kXFZDIMTExpNmiyF+KomJi6EXTmvwlrWb6LjT6q9Vdg+tiBOXjLh9BZNdgSUkXKYL5i6VsOyTggdQ8bctPywgZLV8nobWQc3WVmjcn0DZGEA01Zi2tEAS0pR9qYuokp/TKDRteLV9+zk/LTpw5EzR7toEgjp48RZotTIn84GHUu1WqtOnb98ipU/NXrXqlXDnnZRJAIpdv1OjYmTM3790bOnmygSBOX7pEURSQyH+vXn3Z+vWHT550lshve3tv2rUr8tGj1Zs2lSGIj2rWHD19+r2HDw+fPPkPH59vJk0CL4Tv8s0QokGDrXt3n710cfzsWa95ed24c4u0mp0lcvUWLX7bsR0svdiyZ1cZggicNTPk5Im+Y8e+5uUV+fCBNJWs6YZOggjy4/virPT5ewHvIOli5FZIAAAgAElEQVS0mJdbwWkdxRNKIOh2cVBAIivw2wTwJhaLpJGgfGGtxpbNIvOHCZmmwAhK8+PObkUhBJFdQ87lm/zaV+RZ40yWWSuZo0tSdVt2oiYqOevCIsoi96dtSXfqUBgjyBS7CGkNESyWyLyrDc35Bf+uV2/8rFlQSLXp06dNnz4OErnnqFFEgwZwlcWgCROqf/mlw1ABEnnX4ReL5qt/+WWHgQOhRGaqaodZ5BHTpsHWGnToUKFJE7jcecyMGZWaNaPPkuTZyxejYx5Dr/hBjRo//LyaVSI/ehwNilnNhWV9fbsNGwoObZaiSs2ajpo2FTYinFDIi8IblJrAcVAYI+fYx8xRCEG3i4NCElnmg3rMb9vylrBIpQRLeXqrF6FXUjPHhPy0vIXtLLcgPUvuAwoYQek2Z62B7BpSth0SKYIFiymyTyTr3YnMtOWlZF1YgCCSEKvsH5B/byel6c+7FEVhBBHh29c3TWsEiyUybxx88DDKQBDHTtHTxuCT/DwJ/PTKnEX+uFat4ZOnmM1mi/3flr17DQSRX1DA5A6QyEdOnYKZQXPn/t9nn0GJzDzlIJEnzJ0La7UfMMCvZ094OOunn9779FNwWFhQsHTd2vpt235Us+a7VaqUIYgpC+azSuTsrAygq+5F3jcQxB/795oL88FnyISgBu3bi1VdOA5CJBRJuLOScbs4KCSRFVnGChyHzabI8JDZiIvWvCv0lUvmzdKzBhhBtK86SiOI7BoSlwQLal+RBfLvRckfUfJbKIy/nHFiArpsErc5RvaV5dYso/zeym8BI4iGtR4QLJbIvF707MWLBoK4deculMgwASWytbCoDEEYnD7RsbHMAeYskReuXv16hQryJfK7VaqAC309atS/69Xbum/v3cj7jx5Hf1yrlqBEPnPxgnPPy/r6Cktkpb0o01aS0jgOCoPFGiiVRtDt4qCgRBZ6S0jJ92boFDgT+pDIgFe0UFZpRtkm7uUjkvgtozBpwQhK3PVPHQSRXYNxxnKRCliwWPbFcBlDSdGqpM38/Fb2leVpBwah6SeuWhnHxuXd3W7LTlS0u7IawwhygcWarysESyQynxd1nkWGQRBKZNJseady5SFBE67dvn39zh34gesuwAhzlshjv/9ekVlkIJEzMjPLEMQvW7aAy5Gk7V916wpK5LCb4fRDhJs3Xbt1A35u3bvDp7rU8aLIPMRxkA8sdnGsipJxuzgoJJHFK2DBklZdzCKX4hh8tYxMuUy/ZETjl6SUui/GAXTWCiQwggzDSk0iuwZB4Su+QMafWu7qwG4xS6H5+a2821uzzsxElsvph4dlX/ox/+FhS9pj9qtomiseIMGSGEEXI1kskXmjmzm/4F91606aOxf62GGTJncbOtRhLXLLXr3rtm5tNRc/lmOz2ZJTUhxuB0jkLXv3gnyLxeLVuHGnIUOUmkVOSUszEMTPmzeD9h/Hxb1RseKUhQtJ0pafn+ewowVcaJGfl/N+tWrfzvweyqy0tJSCvBx4WJzAcdABTpcduo+Scbs4+HJLZIcR/GKcWek5ZvgB37HgYbEjsJGkTdtH8Ry6z3oIvbYCCR1KZId71jGCbucaHEzrikPSZs0yFj0NK3h0NO/21tzwdVnnF4BPxvHAzFNTQTr78tLc8HX5EXsKn5w2J92xFWa6om8yriEofMUX0KNEZlrG4xAUI5FJs2X5uvWveXktWLHy5JkzUxcseKVcuQNHjzlI5MtXw16vUKHDwIFHTp06evp0qz59GnTowDQeRVFAIn9Us+b6P/44cupUx0GDDARx/upVpSQy2AfjX3Xrrt26dfWmTUSDBmUIYvT06RRFFRQWGghi9aZNFEmu/2ObgSCys7NgEFyy9tdXypWbMGd26IVz2w/s927WdPL8efaJIRwHHTDUwSGOg7xvpZbkRV0pkSXvdq6Dseb2XVBAGcMZFG33u3FzKPQgkdMPvHgMyM3N6U7dF6+ABUtiBF0MvEiJbCsyL1y5qnyjRm95e9dp1WrfkRDgeJkLLUiz5dyly007d37L2/tDH58eI0c+S0pyuB0gkWcuXdq4U6c3KlYs17Dhxh07QBmw6Rvy43pwLXKc0di2X7/3Pv20XMOGG7Zv7zV69CD7W6xfSGSK2rB9u4EgcnJzmd1bt23bp82bv16hQllf3ykLFxbKfgEKs3G10zgOqm1hke27XRx0pUTW30ILkai6czFFXQNGEH0o6ME1SPr2jH6ruGZpCwgKX/EFMIKlTav6kUiJLMHN8v4W57wWWfU7fDkuIAEgOCXEleBF8OUwJ/pdul0cxBIZHWy3qIldg05gQnYN8UGLxEso/pKZJ+l3EOB/LrYARtDFBlfwclgiK2hMDZvCcVBD4zMv7XZxUEgie+h+CEzM3DhNmsnk3WTkIFtYHdv/s3ce8FEU7R9fUF8L+r6+XV/+k1BCB2mh46siAiIqgjXoi4CIEEGkiiAICIhKE0WKCAJS1FBDkUSkk0CEYEwoR0g5geRCegiXuy3/z94km832nd29vTuGz33C3uzM7Ozzu+eZ783Nzhz9D3XkQSqxDZ02hHb9wNAeeF+h+iRv0KmGHBr+mP2lMvhqP1uWeDbo7BYCDcYKBq+IlYjsr34QjyJb9FHB/aBFhtVbbdD1g6qITJr29cv2rUP0ihng+a/vohJaUgfrSL8SWzHXd5u8LjJW0MBHAjk05C7fpB2ClXO6M68YuANcFNECWEFEwwVAsSpExv1gAIhhoAlmrouM+0EDQgRdP6iGyCRlFiIH/uIPBnT3c1GazpgpTcY1iZnO+MjE3fWwgkZkRg4NBTvilcFX+1naXfnbgpEbwWX1WgArqNdigZO/EpFxPxg4kiC1hMYKItnN9EJB1w+qITJFm4PIXrychWkfNvryDC18DPPQlz/CCppmegMVIYeG8nPp2iFYIee1xZWLoRq4CVwUxQJYQRSrBUaZSkTG/WBgyIHcChoriGw7UwsGXT+ogsgMzZgDWIG0tZ6pivu9srydMnx8H3XwPslTTO4uE0TEChqTGjk0MF4ye8oCBfbVeKo4/rixO8ClUS2AFUS1nO3lKt0W94O2K2GwAVhBgwY0qXjQ9YNqiMwwpvxSj3+jN+cDRldQCS2kOZj2MrRX8hSV2IquKDdIyVhBgwoih4bYjCt9vtl+//IY/MIWwBZAs0C/nYeOXHEhuDDntrgfRLBeQBXBCgaCHJxDITSmYFucxvEguWxZE+dTJTVW+1ZthjoiMzRt9GlQvI6gqg7aMtC5W6Qh+GAdRgGRD9ahrm02hMhYQW0CKeRCCw2jfklCYwJcClsAW0BggXmn0hQ8VPJUtdviflDSQEGUiBUMALGqHUp/Y6iycuf0JXL4qyUdYdlTDYjMsJCMTsl4Szb9HwW5EnTaYDlEVk5nV4JDXrcIKyinh550hNAQm3EF9vGzTqYevpLnyC9yXEd6FRQ7ikrxy34LYAXt+BwevpI38WgydCW9Y8l8t8X9oJ6AF4h5sYK2q8J3KITGuC87kSn5+sZYRv98UU2IzN4JTev+ncJL0vobhGC1W6cIldhaGYVlzya2wQra+zlBCA1P7Th0//KYWSdTq9muoFgfJecXOwpLqovbASj46jUsgBW06UMIKfmpHYd0xQGh2+J+UJf5AjAzVtBWUYQOpb8xVFl5wbY4Xc/nXFu8tjzVof9SbAnNiAyrpxmaotj1U7yk9Kikl2RJmqJovHYgmiCKpdjNQWou68a9ZWg3Q7u5t8KDIw9WVowVVLSwdScRQgMc9zqTV1iDsYpKWeotKHHkF0uPK+cXOwowGQf2qDlW0O+gfPhKHnQoXT4u7bY4iuoyYgBmxgraJIq0QyE0xkuWpzoKdsTnLt8k3pspe8qCq5+uztuwo/jgSW9eAUL1XBGdiMyV4x/QNEPz3+NjqyxAHXlAyL5VxKwyF/nof5TahBVUso455xBCA+zRhXzsd7bADcAWCA0LmIbIkiEBR1FJswRRIlbQerEQ+kHtjWIfxTN7fWEzEFn7HeCcxiygMNFCBZET2xi7Mi5t1AIIoQEjcmiQGb6LALGAtYhsNELg8tgCoW8BhH7QXqNgRLbX/vqurvC4njIi02lD9F0J5zbbAgihASNygKAVbkZoWAAjstlRDdeHLaDPAgj9oL4LmJ0bI7LZFrWyPuRF3+jc761sF65b3QIIoQEjcmiQGb6LALEARmT1OIVzYAtYaQGEftDK5qjXjRFZ3UYBlIPdOqS55HRkpVHkhJYM7Qmgu7glm4IQGjAiBwha4WaEhgWQETk9PZ1hGPwXWwBbwKAFEPpBe3kBI7K99td/9bztkojs231aZgPq67v0XwaXMNkCCKEBI3JokBm+iwCxADIimxwLcHXYAreqBRD6QXtNhRHZXvujXJ1OnyZDyXXE6XTGTJRr4DJmWwAhNGBEDhC0ws0IDQtgRDY7quH6sAX0WQChH9R3AbNzY0Q226L+qI/WSMn05RkMXpDPH4qoXwMhNIQMIm8/nrD5wMGk7D9Cg7TwXQSpBTAiq8cpnANbwEoLIPSDVjZHvW6MyOo2CtAcedvl5iWzY8kJLZi8nQHa8luyWQihIWQQ+YsfYmoB0PeN4UGKVrjZoWEBjMi3ZOjFNx1AFkDoB+1tPUZke+1v7Op0BZ27hV0JLrE1u6vIkQepxNZ02mA6dwtDVxirGpc22QIIoSFkENlRVDrhs4UEAOv27TcRto5eTJ+35ltTKvxwxaqTGdmmVIUrCVgLYEQ2Oajh6rAFdFoAoR/UeQWTs2NENtmguDpsAUkLIIQGjYh8W3g4AcCv2X8cOe8gAICve5s2e/ill7ceS1DglRfGjIWZNx04yGVLycm7p3FjAoCwrl25REdR6VPD3yQA+N/k92DiD4eOctfiH9Tt2MlRVMo1yVFUGta1Kz8DAUDL3r35Tb0tPLxup87/m/wenInBP8UVHDb1A35jHEWlSdl/1OvWrcerrzmKSrs8/wIBwFdbt3OXG//pAi5/08d7EgBsPnDw4Rdf4irkH3y85ts2fZ9q+njP5Cs5XCl8EGgWuFBQnHg5i2tV4uWsCwXF3FstBxiRJUMTTsQW8JsFEPpBv7VN8kI6EJlm/1HsP5KkSC9FekmvxMt3iqRIkqYomt3REW9OLWl5GxKxgjYYveqSCKFBBpFLLhaWXCwovlhQdLGg6EJ+EeTRUxnZh9LOEwDUDgtr/WTfByM7EAD8qWHD9T/FydEDh8gc+DqKSr/4IQbiIx+RU3Ly6jRpQgDwz7ZtIZfsTTrT7uln2j39TJMejxMA3BURAd/2GTpMEpGbPt4TZmj39DMvjBkLObh2WFi7p59p0/epOk2bEgB0f+klR1Ep/xRXZMZXKwR38fyYd/7SosXJTKckIt/btBmHUxwiD5v6Aazwz81bEADUf/hh+HZ17J5ffk/7U8OGfDsILmfqW6GCF/JZHfkvn7jFFwuKHYUlpl66NHhrg99wJi5cxP0o8cgrUbpuxxRExlG0KqQF6/9YQRuVQ+gHxa11l5XkXDp/8cSh07tjjn636sDXS/Ysmi1+HV6/POHH9Wd/2plxOjHfmUV5veKqVFNUENkHxSSLwh4P6alAenlIr6eamFVbhDOYagGsoKnmRK8MITRwiHyxsJjlp+uFF64XiF+ViHw581DqOQKAexo1hnk+XLacAOA/HTum5uRdyC8U8xZE5FoA/Kt9e25ADo4WC0aRl37/I4RvAoANcT/zuQQOJ9d/+GF+ongUWTCeDTn4nsaNYamDaefvioggADh07oLgFL9a7vjIecft9epxQ8XiUWQCgNcmTYb5OUTmikPYWrRpC5fiKCp9bdLkOxo0OHYxnZ9o1rGygmJNRSmFkgqa1bzAr+dCQfGdvk9ItxdfdBSVdnvxRQKAOyMiuM+tlltARmQcRdEDX2CUxAoGhg4MQj8IW17sykk9sCduxYLNU99eHR2F8Foz+rVt86Yc27T6ctKJivIbGg0ijcjlxUXwTpCYWIGkPaTXS1MUHlrWKA9yNjYikCTpRf5iIyciVhBRE72hoby4CPboIloSUrIcIl+4XtDg4YcJANbE7uFVUnghvwiOTUJEbv5ELzgPwVFUCmdZwBT+KPKTw94gAIgaPwH+5eOIKYjsKCqFo9GbfzmkBZGnfL4U8jRsiRiRb69X74769ePO/u4oKtWIyPBGpny+lH93Bo8vFhRfyJf+YsNTRCio2qlqBQ02L7iKL/3+x2dGvLU76bSjqDT2ZNIzI9768setum5BLyLjfhAx2AVMMdwPBowUlQ1B6AeT92774cN3EZhYocia0a/tXTr3ctIJ1aFlISLfKMw/vG75mtGvWYPIHHh5KIoMNPFCoz2+oGBk1J/TSPkAK6jv86I9NHA+aByR+74xnABgyqLFUtRV+MKYdwgARs6aTQAw+L0pjqLSL3/cyqVwiPzbNdfdjRrd27TZyUznHQ0a/O2hh87nF3FoYgoiHz5/8e5GjWqHhR27mK4FkXv+b/BfW7Xi2iBGZEjzvYcM1Y7Iqa782mFhcHIzVzPyATsHRmbUX0oLvZQM8xdeLNQ3GRf5dkKjoHZE5nwQ94P6wpwtuWkPnfs9nTaESmxDHf2P77H1NnTaEDJnM1lxw+xhPkG3iPtBfZIj9IMKpGv81MYpI1MP7GHHbWX+1UDktMNx68YNhVe1ODT4PmdeDztZGf8zzwLsRHH0KTEC59fwFiuoWTuNoeHckXjOB40jctS48QQAY+bMlcSy50ePIQBYuHHzg5Ed/tW+/cXCkn5vjoAjyvyJFks2f08A8OSwNxxFpV1fYB+MW7vnJ46ZNCIy//G4X1LPQQ4WzEWOGj+Bm4vMzw8fAeSu6CgqbdbziWY9n+BSxIgcc+R448d6EABsOXhY4yiyo6j0H23aRDzyKFct2sHFwhLr4ZiH1PmFaO0MulKjZn8EunRZsX2no6h0+bYdoEuXt+fM1XUXGhGZ74O4H9Qc4WzKeH0XldBSvGdWZUpCSyp3h8WUXEHiflCz+Aj9oHEOVq0hZtaEfGeW5E1UI/KJH9Z9PeoVri54J6WFGjgJcY4yrNmjwO+SLcaJchZgZ1YY0gJNa6ygnCDV6fk5pJbQkPDjes4BV0dHGUfkvr4JEjKjyAUQkT9atfr1Ke8TAHy796c6TZo0f6JX/G+pfETu9foQAoBPvl3vKCqd9sUyAoAXxozl0EQjIrd/5tlHowbBV0J6JkRkPgc/8koUnFcKT90WHs7lf37MO9zl4EHdTp3b9XuaSxQj8tZjCatj9xAAtOv3tHZE/r/OXf7Vrh1XLcIBO7NCar64xYmFIf9U34WCYjihqNOAgY6i0k7PDSAAuL1ePdPnIgt80B+IzAZtHEWro6XmI5rOmCkLxwd5e82mzyQ9bos7R6ygJt0Q+kF+n2jd8bpxQ7OSk8T3UInIJ7dt/nrUK3xEnvrc0bF9cnavLbL4g+WLDngsWayMzhSb+Ljqew5WUFGvvetLx/bJ+frDQoVcv+78XuD/BhH5fF5+eBd2wbU1u3ZLIhpE5KmfL90Uf4Bd4aF7dwKAcZ98tivxFIfIyVdy4IN0fJz9S4sWaXkFkCA1IrLC43o7TiQSAPy5eYszzqvcKDL3JJ8kp9bv3r11377cKUlEdhSVdh74PAQpbrI1LCL5uJ6jqPTByA51O3XmqtV7YBMfV0660NvaoMs/ctZs0KXL8m07HEWly2K2gS5dRs3+SNddqI4ii33QX4iM+0GF0Ch9ir48QxMfQ1ZmKRltDEh7KfyruLRS/FRVRBb7oKBbtO7tunFD87Iu81vLMAyLyNlpv60a+bIAkRcNngdvZu+64rw/blr78fJ68AN8AmF0vWWfzbPc/xUjBVZQRrD8HHLfhjLoSo6zsvu55Fw6L/Z8g4g8ZdFiAoAHIyNTc1wKiDxpwaLzefn/atcOQvD+5JStxxI4RF64cTMBwN9bt+bWX7u/Bbti2te7dkM6MY7I3AIFcD0vLXOR2z7Vj7+Ghhwi7ziRWKtqoejNvLWf5RD53qbNWvbpo4u6eJlLJI3sv8RbZsYFz+b61rBTRmRJH/QjIrO/1+N+UCaOipLzdsrw8X3UwfukT/llxgVWUCRVjQRlRJb0QXHPaF1KzKwJggf4WET+fvYkMSKvjo6a+8q38H7wX2wBbAGDFti7vrRGqKj5Ztu8KWK3R0Pk2mFhHZ7t/3+dOxMA3NGgQc3lLHhzWK9XTrSYtGDRhesFr06YSADQ+LEejqJSPiL3/N9gAoBpXyzjuCT6ozkEAM9Fvw1TNCJyi169O/Z/Dr64dZG5oeJ1+/bDRZdTc69z05S5/B37Pzd92XKuAY6i0qgJE++MiDh3vXIarhwiO4pKnx05CqK/KiInpGcSALwybjz/QtqPLVi5ooZYWlCbXdevSB81BlH+L3/c+syIt/YmnXEUle5OOv3MiLfgZjHab0EZkSV9EHq93wYgKBI/xV4zMkq+oyuohBaSHMw+n1dxQ/IUldCSrCizWkqsoKRiXCJ0KO6t4EDSB8U9o6UpZ3/ayW8Vcf7E0RVvvSSJyKujoz4fOh3OuDDIB7g4tsAta4GlE/MVxo8ZhslKTpL0eTREhkRYp0mT7i+8+MPBwwpoBSdaQETesD+OAOCdefP5iHzmj2twMdoDKakciGw7doIA4N6mzVJzrzuKSjUiMn+eRtPHe4qHilv26UMAMGvl1/AUPz+74MaU97kGcCtvcJsCKiDyoXMX4C2oIvLiTVsIAODv+PxraTpmH9HTTbQWFAnZR/e4dZHh/jJwXeS7zFsXWc4HYdSymqt49eOBZD6fSB/TuVukIfhgHSVEPliHvLqJZ2rF30XRf5XFCkqrBlOhQ0nmkPNByc7RusQNE97gDyQTWz/5QAGR5dqxccrIPYtmH163/MSWNad3x8DX4XXLD6xavHP+NO6RfLnikunnjsRLGg4nKltgz+LZkvZUTsQKKlvVn2flFFRDZHZ9XG4bNt9+e74t9+A+bTVXHBv78fxnRozgv5b9uFWMaBeDZC+3c9cL/92+fa/Xh2jiV20Dq+2efqZup8789ey0V+7b2AUBkXUoKBZLMiVYFNRuWy5n95fY/cMnLljoKCod98lnBAAPv/Qyd1bLgcIospwPqiEyu048t6Gsb99Z39azcN9ZpMWFKPn1p/wZlAL5WnTaYDlEVklPHSxCZKygX6VWQGQ5H7SXZIhlb76oEZE3Thl5YsuarOQkLRuTFOVcvXDsQPzKhWvHDla+Q+5s7MKZftUqJC5Wmu/iDKh6gBUMQM0VFJRCZIlN8hTggN2q2rctX4dn+wvGZd+Z97EEY/EWPFaoNhBOLfIN+sIlwIy3Z96abwkAVu7YhVaVhCVlB5URFdR6ieBRUK+pLxQUJ6RncqUS0jN1LWfhKCqVQ2QFH5RCZB2bxfo2daMoXdvTIm2TG4CRzbomUYmtVVCYv5wF/zihtQ+RsYLWiaNSsxwiK/igGGz8STKaEPn76e9cPHEIbXW28uKiX3d+rxGUbxTmqxgYn65pgZT4WPEHSJyCFaxptgB6p6BgDUTOLzQyQOhbbEHTNm8cggT+wYgPZ0Y+29+UdjZ85BE4PIlQG7u5tCwQ84aWsYLahvMRJNBYRA6RFXywBiJ7PchDvJXbvGkbV8bbBSgHaHZzED748o7JihKyokTuLFsQdZAeK6gsisazcois4IN8nvE/yagj8oGvl3jdbo33L5et8Kpz45SR/FuVPL5w7IBcDX5K95Ll59ILdx3IXb7pjzlfZY2blzl2DvdyTlt09dPVeRt2lB477c0r8FOTFC+j5bcJrGCQKsgh8sWC6t3sNNKAZDYtW1oYAXHJi6IkFpY6Ckoc+cWO/CLH9Zqv/CI2vaAYrgSceDkLpX4RqxmpR8ssC6xgtY41FTRFPo2VyCGyQhTlEJkivcbJlaZpLVs7IWOcYl+h5yTN0BRNkxTtJWmvl/bUfHm9bDpJ0hRl3CZ6mlWZlzrygBwEK89Fpo7+B+Fy/CJYQb41EI7lEFnBBzlWtIVkVBA5duFMtMFjse0KrzpVx5J/Wb1UXNA/KVRZecG2uOwpCzicUj24tnhtearDP82TvArl9aqaFCuooGOAK1iJyKb+dK5KyWbBnEZqEWYrKK5mKQEcS77Nr2RlYT0iCLYug6pJL2AFJbWDiX5UUBKRlaNoJSKbN/lBC2NRpFcy4PsjkW0fKWRiASIL3npZVvZH26quoTDRQgWRE9tU1YH+P1YQ3XYMI4nIyj4IEdkuklFC5DWjXyvKuWrEHIKyp3fHcF8IJA82T31bUMQ/b92Xnc7pSxRYSuHU9Y2xjH8DBGcT1UUEsYIKwnGnAlZB2KOby3Yatrewb1UE8ZixAlrxT9m52JnqWhYm2xMriOwRkoisHEVhj27uWKmGbZ48XJD35wFN0xJjxgIglnvrx+XqFB7XU0ZkOm2IKfbECiKbURKRlX1wdXSUjSSjhMgHvl6CbAjJghXlN1QXu3CXlUiWtS6RKitH5mOIWUX7j1rXPIWaUw/skfymwSViBTkOVj4ITAWtQGRHUanqqCcyghgqiMzHkJULSgxdHXXUWXUishWj8lhBNK0lEVk5ikr26AoxWcspLcOQ5kK5llYxRvgYcjPpp7Fk5EXf6NzvNZlCLRNWUM1CsuclHUrZB1dHR9lIMkqI7ExNlr1R1BMH137JAZzkwbWLaah1I5Yr2BanzE+qZ7MmzqdKyhAvb6DYsU2rJW3IJWIFVbWDGQJTQYsQ+WJBkfLjZXCaLxqFIJbSO7+CP4TMHaNiLmKbfZdTHdO1wphYQTTJJBFZOYpK9ugGYnZlUYr0ilYfq7FMr5+nLjAMo3t+hdRwsp/2lmO3DmkuOR1ZaRQ5oSVDmzY8jxVE8wJJh1L2wdXRUTaSjCwirxs3lL9+Mpo5xKUuJ53gAE7ywN+rI3tJXfOP5ZCrOP64+GatToldOFPShjARKygnlrhwr/YAACAASURBVGR6ACpoESI71Pa5sOGJPQ5zjRzYsaiz2rN6Js+yqERDrCDS1yFJRFaOopI9uvHATlOUMiL7+4k9mtE3/1iKj9ka/DbnMG+7JCL7dp+W3oCaub7LuHBcDVhBzhS6DiQdStkH7SUZWUTeu3SurjvXmNldVqJAdaujo05t36SxKlOylZ9LlwQmvYnXFq81pT26Kvl++jsKxsQK6hIxABW0CpHZuRa8xchEx/7ex7iwVN8jenIYnW/D9ssq+06b+qAef+gUK8i3hsZjSURWjqKSPbquKC2Z2fdLfY1hYwEx+3kfY3b9Cjnq1ZXu9d8G2nT6NBlKriNOpzNM3nUBKyj5wVZNlHQoZR+0l2RkETlx6wbVu0XLsHnq2wpgd3j9crRq0UoV7jqgC6TkMmeNm0e7TfsRR+O9KJhxdXQUVlBOLMn0AFTQSkRWWiPZiumzShBTUGIOIl83Z2k8paaKBi/tQlXl6chYQUkRJRFZOYpK9uga47NyNuXV3/y8qAW7vpsuFJbP7Ke5FqxxaY2UTF+ewTC0shwIZ7GCCEaTdChlH7SXZGQR2bolin/64mMFi+xZNBvB7shFcpdvkgQmhER35hXkZiAUVB2PxwrqFTHQFLQQkdkt9+QHki0b+5QEF3adY7mBYb3pIoSVvqJ52ZTMeL3AuikrKhM8sIJSEosRWTWKSvboCOFaXIRkt9yTH0g2b5k58aXFKew6x/LUq+8UbT6MihtcnZK3nTrRTDxsXJlyojnt2lGd2dQjrCCCOcUOpeqD9pKMLCJb99jc4XXLFRB512fTEeyOXOSP2V/qBSm5/GWJZ5GbgVBQdcNGrKCcUnLpgaagdYis8ryXvwGr5uYgerGYn9/v05GVEdmKZ/Ug9GMFEb78iBFZNYqKe3SEWC1ZROV5L38jcs3NQYzgst+mI/vMyk54qCglr3xHpb5GJTzE7ipy5EH2IPU18sp3ZEWpddOjsYKSH2zlRLFDqfqgvSQji8jmrojMt5ry6sjfT3+Hn9nqY8H+eXLwpCXdzwuH5WVdVvimsTo6CiuoRTV+nkBT0EpEVtwzOd+ah8ykBvZY0OEzrsFjvy/9poLIcrdsOF1lJQ2soJSFxYisGkXFPbpZXZLK2rpev07b0zdOrAzQ/lr6DQqhOifYuuXzsIIIviB2KFUftJdkZBG5NN+FcP9aigQUIvMJyeBx4b7DWm7frDzXLqYpIzJWUK+ggaYg7NHT09MdRaWm/71wvSA9PV3urxVXlK3zehF7d2b9tcBWsi0vLFGwIbStbFnD7ZTTzurrStyRWdrBegxbRqKFvjrFiKwaRcU9ulkBHAOWKZZUXVkCI7Lu7z9WfskRO5SqD9pLMjYgcvLebQps5+dRZL0UpZC/YFucKT6vsRIbP1hYQY0aKWdTVVDcoytXqP1s6HbP/nugnn1cSG3pLtw96++eLVRQ7FCqPiju0bV7mXJO7IPK9tF4FvsgNJRuR1P4KcDKjRLFDqXqg9YhshaSsQGR8SiyRudXzmbjBwsrqCyNxrOqCop7dI01q2YL3e7ZT/t7QQvj7rnSDgrdrd5TVo5giR1K1QfFPbqqc2nMgH1Qo6GUs2EfhPYxFZEtjKJih1L1QesQWQvJYESeozAwrOtUoP1Mb+8HSzmumXhWl0bKmQNNQXGPbpbdcPdsiiVx9wzNGCzds9ihVLtncY9uyieHYRjsg6ZYEvtgcPmg2KFUfdBekpFFZFeGg2GY3465v5hUAO8K/8UWwBZAsMAXkwocZyvE/UGxK0dhxtHq6Chxjy6uBC0lsLpnbzA/Ta+wbpengqatGo/BCiJ88sUOpeqD0N8RrqVaBCuoaiItGTQ8rod9UGeAtXJNErFDqfogZFEtHwa9eRJ+WKfQBcfMmsAwjCwiZyUnbVxQjAAEuAi2ALaA2AJ715cKHFh1sRtxjy6oAfltgC1XZN6arFYGd7G11btny9qDFRTLoZoidihVH4SOXF5q/lq/WEFVvbRkwD4IrWTmytaWRa38HBI6FF9ZVR/MSk7i5zfx+JfVSxUQGe7RIYvIsV8dY2+md+7ub8ocyR6XkzTrlZNZkZNxU+6Vm1lh1oU01ZPlcWVUmPMyz0SaWu4k5WwI03OzzVSN3ySsIN8ayseOZE/MlyVje+eO7ZMjGEumKUrBPy0dRVZe9J7y85qspHmI7OdtCxhGafcHTwVFWfXwGVYQoacUI7KqD3483DG2T474+y3C1QVFsIICgyC/xT7IPjocDFF07/rSsX1yvv6wkK+1qg+mxMfy85t4vHP+NIUuOH7lQqVR5I/+lzK2T87ub8qUCQDhbE6GW4HtcrOsAjvppmZ7zeFjP5O9D8fVLGnVlw2162IFhd8nWUruk7N0Yr7AvTdMeEPBRcU9uqA48lu1rVOtAjvJBtOUSZvf+pfs4b2oWdIrecvGE9WuixWUsLGkQyn74KaPtsFxr30byvJzzLQqVlBCIaQkNUtiH9Qz0cKaKJqfQ+7bUAZdSTBUxDCMsg8eXPsl0udCpRBNUWvHDlbof49tWq2EyPBmnBeEnb00aOoZQFXg45yMm/5GZCdpDiL7mewhImcqfdnIyXQbF0uyBqygpFkUEh3JHuhQAq/dOmeygotK9uiCGhDeqv40SVm56I+4wTRNm/O8l3+bDW+E9HqUBrGs2QACKyj+FGlJkXQoZR+MmTUBDn1B/8V/sQWwBYxYQPIHGVUf1OLdevPkO7MUOt/V0VFnf9qpjsgKvT7aqdwsjzJgubK9aDWjl8o0Y65FtvnfJVTvSHnCQ07GTdUaEDJgBRGM5nJKzMFiGCZuxQIFL5Xs0fUGAnF+leeEPBXWbdkqbgxMMWciHWX+hFG5BnPpyj+Xk+wTe+a3CivI2V/XgaRDKfvg6uio0nyX42zF0on5RsgAl8UWuMUtsHRivnj8GPqvFh/U5elaMisvirw6OirjdKINiJyjPPBpDdWpMI3xuRaZ/p1aUDVmr0qrVgzJYwVVPk5V6giywfgocN1T2zf5H5FVBj6toTrBjQvemjDXwmvmj+CC5im8VaVVK4bksYIKiiickkRkZR/kBpMUqkU4tW3eFAXHXx0dVXjViVCtkSLlqQ7lNTFVz15d+I2RBiCXxQpC02EFdX2ENPqg7ON6sEcXdPNG32Z7lYeQczKsmhug0nKDD+3JUJHKRY2XUrWn6XMtVK+IFZSRVRKRM04nKvSUkj26riggzqy6jCjp8YhL+SHF6OMmFgzWarlrdXuaPddC/YpYQRnlJB1K2QdXR0f98OG75v6uoroQ7Nqxg829oow9hMnXN8aqcrBchqzJn3quuYQ1+uU9VpAzM1aQM4XygXYfVEFkc1dFUJ0YkGPHQ2+VIJuF9NyeTePHHHyrfeW4iRVUmWvuLwUlEVl5vRvYo5u7KoLqxADSmsc1lAMWPEuTSM/teUkrJjNoaTD7IDlNK81F9q2ajBVUmWvuLwUlEVnZB+E32LSDP2n8PKhmoykqduFMhS/Gq6Ojdn02XbUeSzJQVNH+o1kT58txsFz61YXf2MXHDMNgBas/DFjBalvIHunyQRVE9g3rmjM5WHVWgD3P6gnG/LK9Lo1Tk7M8LjvmH3NwDA9Upz1gBWUR2b8KSiIywzDfT39Hrr+EPTrp8Zi1A4XqrADSU2HFxADZWCU+QdPspAuvtmXgSJK2Y/6xoNWq0x6wgrKI7F8FJRFZ2Qehb64bNzTn0nmB7mhvE35cL+fvXPqp7ZvQKjelFFVSVhx//OrCb+SAmEvPnrIgb8OO8nPpplzXSCUKURQryOklPsAKck4nOOB8UBWRb+ZkuHMNP0KXm6W0FjI3FGrDs3oCROa/zfa6suDLU3mQ7Q2sFjpJbYbFCtqvoBwiH9mwUuCc3NsqRK4gPR7K2HLuLHmSXtXxTvbxMmMXMtLP1SjLrnPhw2WSYkeXSdL3l2IBmqJsHDau0UjfG22GxQrar6AcIiv4IOeM68YNPXck3oh3uMtKDq1dxlWocHD1XIr4Y+b/FNrtcWdeKUs8W7jvcOG+w/nf7yncdaBw3+HigyfLUy548wr83yS5K2IFJS2DFRSYBcEHtSCyb5uPTETM8g0eK65NVr2NiE0TkflYHHTH6pODq3ZpwQraKq4cImclJ8l1ljxErmDp1still469MExqbx0KA+d7ZmILAhkwfVWw+Rgn3xYQbt1lUNkBR8U+ObWOZPPHYl3l5XoupV8Z1bi1g3Ki79yF/pu8ggjIK6rYSGTGSsY7FIGrILEN+OGrnjrpVUjX/561Ctfj3qFc1TYo3Pju9UHmRW5WR52XFluaDnbm5vtYUc31RavyMm4mXbmys4dR36OOxMQsyxsRSjBDArtb5U38qgWjvsqYqqC/PqtWEBDux0CPKccItMU9d3kEZzf8Q+EiOyb2OpjZS9Fkiwu+4iZD81w7JWmKIoi9/wcTwBw9vcUHgFXXLt29T+RkW9MmOCtcPPT4bH2WRb9hw0bOn68WXG57MaN8M6dv9myxawK/VyP5m8gHCtrUpAdn1Zed5n7SFQdaFfQzyYKhMvJIbKCD/L9kX+867PpCT+su3DswLWLaaX5roryG9wN3ijML7zqzE45nXpgz8G1X6rOAeBXuzo6Cm5YwNWGD7RYACuoxUqBnCdgFSQObVqtD5E50jLj4PHnB90WHr5p836LFvENcGwypXlaJnnzQda6Y1NuJ1QrkUNkhmESt24QdJPwrSwiV/GQmHH5Kbvj4wSI7K1w93rllej335fkY12L+C5cuXLVxo1mxVySJEe8996xU6fMqtDP9WiZ5M2Xxrpj/vclPxsh8C8nh8gKPijpmJYm5juzAt+SAdhCuShqqViSlWMF0T4egakgcf3a1a9Hv6pjFNkMMoaU9u36WAKAOZ+tZN/asZbFb2euLPlqU2Ay2fwla8+luDS2TfdAsnkiVgO3HQpqtE8gZFNA5PLiIsmdME1HZNJTUVZaIstn2tayIP24iZ0/r4UW1mEp37oWitvsaftWIyuNxuLaFDRyp0FdVgGR5XxQkoGsS9yzeHZQW9jGxmMFbTS+KZcOTAWJGzduHP9hPRoin07MIADgXn9t3rL/6yPPnMzMybjJP3VbeDjo0HnYO++f/y1HcIorO2rizC9X/UAA8PeWD6WfK4RM8+13ewgAHu7/Eoc485esbdz9sT81aAA6dJ4447Mrlys3kBs0cjysamfsCS5z1qWyexo1JgCo17k7l8gdXEzLb9Dl4V4vv+5ykunnCkdPmRPeqdvdDSMaP/zY3IVf5/g2lL6zYUOuhfyDXxMz6nXuzqX8s3XbJ6OGHjtyHlb+cP+XCAC+/W6Py0nCbFM/WsJdt8VjTxAA7KpqZ8Jxx5NRQ+9r2uyuhhFtnugLS7mcZPs+T7d47ImMC8VcQYWDABhIDvF55DlZnrTfcjkJ0n7LhZ8QLkX1QAGRGYaRXP1eOyJ//MUX9bt0uSsiolXPnlt2bIekJRhFTjpz+tHnn787IqJuZOTMhQtFNOZJu3iRAODLb7/tPmDAvU2ahHfuvGLDBhj7HBmsp783b16jhx/+a8uWDMN0evrpgW++Cc/+u23b6KlTXxo16l9t2vy5WbMh48cXFReP/uCDv7VseX+LFi+OHHm9oPLJntKysnGzZoV16nR3RETrXr227t0La7jpdhMALF2zhmGYVRs3EgB88tVX/2zduv+wYTDDlp07W/bseWfDhs179Nj+k2krcMHKTfkbAAPJHjyErCylAiLL+aB1NCyuec3o1/KyLivfAj6rYAHJKCq2s3UpWEEFdbScCkAFWUS+UVKyefo7Wuci8wYgIQfXDgvr8OSzHfo887eWDxEANPvv486LJfxT7Xv3u7dJUwKARwa8zCFyZaknn+3w5LMd+/b/eNE3EJEJAN6ZOg8ChwCR3502nwCgdlhYvc7d76hfnwCg36vDYU4Okd94dxoHK9+s3wUpVhKRo0aOu795y/O/57mcZOd+AyCdd3jy2bsjGhEAjP/gE5eT7P7six379u/Yt38t3zeBtr2egm9/P3MVsm+Lx57o2Lf/v9u0JwD4d5v2sDYxIt/XtBkHWHxEPn0q6+8+o/2nXQeYXguA2N0JLieZlHD5zoYN+bfD3ZfkgZaZ39UjvjwRTUkM+VnIjw2MIgCYPu8Ll5OcNudzAoDHX3hNUgi5RGVE9rrdP3z4riB2a0TkxatW3hYe/uGCBXsP/PzuhzPYL2D7fyI9FXxETj1/rk7jxr2jonbs2ztr0aLaYWEr1q/jUzJFkuccDgKA8M6d9xw4cDolZfikSQQAPx89yjAMROS/NG++cOXKnfv3ixH57oiINVu2pF28uHTNmloA/L1Vq+ipU1POn9+5f//fWrZ8Y+JEGB8HDB8OOnbcsHXrL8ePvztz5u316p1OYR/eFyNy8x491mzZAqderI+JqQXA2A8/jI2Pf3XMmNvr1TvncGgJuP7Mww4k65w3zLe/8WM8C1lVbmVElvRBgUta+jZxa+U3UtUbwRkkLYAVlDRLECUGoIIsIldUVORfcX733luaHtfj0RXk4HsaNYaYden3vPqduhEAfPPtDsGppBOX7moYQQDwa0K64BQ3xYJD5LsbRiT/6nQ5ST4in0xIrx0W9qcGDfbsOelykicT0v/xUBsCgI1b4lxOEiJyLQAeaBvJDe/1HzJSDpGTf3XeXq8eHNw9fvQCAcBfmrW4mJbvcpIHf/mdAODeJk35S93B4eTfz1zlAAgi8v64My4n6bx0o1WP3uww2IotLicpRmQCgGFjp8KyfER+ecRYAoBnBo+45pulMG/Rat8XiVdgzmFjp/6pQYOUM1e4iyof2DbdItSnWORkeeCn95EBrDSPDHiFAOCuhhHcJ01ZF3hWGZEZhinKubpxykh+H6wFkd3lNx5o127sjOkcY/UZNKjPoEECRH5p1EjQsQM3y+L1d99t9thjXBG4XQhE5C07d3IhtXmPHv1ef51DZP7kY8Eo8ltTpnClOvbrV79rV25E8+1p0xp27w7PHjxx4lJmJpfz/hYt5i9bJonIjowMmI2iqLqRkc+PGAHf0jTdsHv3Ue+/z1USOAd2TrfAUyw0fA6UEVnSB/n+aOnxnsWz8UIWGjRUySKOopaqxq8cK6iijbbTgaZgJSKTJFl47cqWD8ZwksMeXXmIUQi7GTdfGzWBAGDq7MXiU80feZwAYOfOo/xTuVkVHF5ARL69Xj0CgJdHjBUg8oz5ywgAnn7tTS7/+A8+YXO+9S6HyJBT4RwGOMsCpohHkWd+spwA4PSpLJeT/PVkJmRiyOUuJ7np+/jvNv/0R3o5dy1lRHY5yeHjPiAAmDJ7sSQi316v3h316yccd7icJB+R/9q8JQHAgZ9/gxfKdJS+8Mbo/709Cb7du/cUAcDMT5ZzzVA98P9YMl9B1eYFb4bV63YOHBp9+FAa/BI1cGj0mvWxum5HFZFhD81//l0LIqeeP0cAEBu3n+Pda9euOtIvCRD5Hw899OakSe7yG/C1dvNmAoDSkmLfXiFeiLMQkXfFxXGhbNysWf/XoQOHyPxTAkQeP2sWV+qpwYMff/ll7u2MBQvubdIEvnW73QtWrmzft+/fW7Wq07hxLQAmz50ricilZWWwyO/nz7PfhLdv91b9GzZhQsd+/bj6A+rAlrFkiqxUMKBMEYCNUUVksQ9yHaKlB4fWLvO63QFosWBsUlHOVX4UtVQ4rnKsoIkflYBSsBqRaZr23LyZ8MO6NaNfWx0dhYDI2ReKW/boRQCwbOUWPgfnZNz8NeHy3RGNaoeFnT2VxZ0SLBsHEfmRAa+Ed+pWOyzslwMp/FHkV33wPXnWQo5L4DyKyD7PcIg8dtrHBADDx33gcpJrfM8CwhQxIj8ZNfTvLR/iqoLjvvc2afrGu9OOHj7HpXMHyoj8R3p5myf6EgCsWrNdEpFfH/MeNy2EQ+SLafkEALUAcF66wV2If/BHenntsDA4W5qfrnysZyHqqiWTeb8MKH8pqnnWLVBQuWG3+FktiMwwjNft5nxQCyL/fOQw+2XvbDKHyNwBN9HC474JZwpxs+fhwXmHgz9wJUbkuUuX3lG/vnFErtO4MQygL40a9UC7dhu2bk05f96RkfGPhx5SReQDx44Jmk0AUDcy0sSIbG5VOheirloGTuMDecJsHr6C5t5I6NWmBZEFPsgxkEUHG6eMvHSSncuE/5loAX4UtUg4rlqsoInCcVUFjoI1EBkOJhW7co5tWq0dkWuHhXXpN6BLvwEPtmWn5IIOndNTr0MOhhOOubnIg9+exM5F9o3a8rs90KGzy0lCRO754v9WrdlOAPDowCg+Ig8YOooAYO7CrznS2rb9CDv1+ZHHOURevnpr3fYdH2gbmZvtfc6Xf1fsCcnH9Vr26NWyRy+uqktpBVEjx9UOC4Otem7oKO6RQZhHDpH5c5Fb9ugFYVc80eKnn35t6htE370nkUPks6f/IAC4LTwcXiJ68uxBI8fDF/cL/j9bt2388GNcO7UfWAvK7C4kHu2NCYGc46bND+/UbcOmfS4nuW7j3vBO3SZM/1TXfWlEZBgjoA9qQWTxKLIYkUlPxT2NGg0dNy7x16TK1+lfTyafuXnzJheSGIYRI/LoDz4wZRQZInJhUVEtAJatW8dd9N9t26oi8snkZPZb97p1p86e5V7JqalcJYF5YDkos/vIkAxNB+btB2arNCIybDz0wXXjhnIwZO5BzKwJqQf2UHiGjGWfFaygZab1U8WBoKAEIsO7hz26b39j2b3xIAdzsPtA2/b9B7916riDeyaPO+V7vOnVaxlul9Ob/KsTomHPF/8HX1Ejx/ER2eUk2/XuRwAw5J0p3IoWcBR50swFHJfAUeT2fZ7mEHnRl9+NmMA+rvTj1oN1Gjdp1aN34olLkogMOnbp8OSzXFXwICnhcvTk2X9p1gLOD+aflUNk7gb/8VAbjqrFiLw/7sym79l9HDo8+SyHyHAUmQAALlvxYNtIrrarrKFIl5MM69j1323a81ui7zjbq6xgzVFhtUHlTLfvsTyvvjYE54Ys/HvMyfLcFh5OANDt2RdcTrLrM88TANxerx73TYafWe5YFyJDH4Q9um9/Y9kFxdzlN/7dtu2EWTM5Mh4+ceLA4cMFEy2eeOWVNr17eyrcFEmy2zpTVG5eniDOQURe9+OPMN3r9dbr0uVZ35oS8HE95IkWEJHz8tmfTb5YuxbWfykz808NGqgi8k23+8/Nmr0zYwbX2oKiIneQ/CoN99BWVpATTtOB1wMV5KyBD7RbQBciw2q9bvelk0d/Wb1U4954qhgdM2tCwg/rci6d195snNOIBbCCRqwXCGXtVVAFkbn+PpeFLU9OZgX/mTBuyoSYtE4nshN872nUODfL83M8Ow70l2YtIERCRL6nUWOucnjAjSK7nCQc/YXzkuGib7JzkX2zluHjenMWrIrdnUAA0LDrfwkA3p+9+JcDKZKI3LDrf9v17gevuzP2xMQZn236Ph6+PZWQXss3uMuf/yCHyPvjzmRfuvHP1m3ZadZV67hJIjJcHwOiFbfo299atCIA2LcvCV46+9INSMkcItdt3xF07ALPGvwrqaBYOF6Km53Z7NuKD0+oGDvt4/BO3dZt3Otykms37A7v1G3ctPm6FEFGZBik2FFJdss8kvR6BXu5LVyx/PZ69T5avHjfgZ8nz/modlhYzO5YHyL7dtdLTaVI8tipU3fUr//0kCG74uJ2//xzr0GDxNN5ISL/vVWrld99tysu7ukhQwgADiUkmDjRotPTT/+7bdvl69cvXbMGdOxYC4DoqVOV5yIzDPPZihW1w8LGz5oVf+TIph07Irp3nzRnTiDEbl1tUFBQHo497CoZXnYrPriToq4r4swCCyAgMr+GfGfWhWMHTmxZs2fx7M1T31al4dXRUWvHDo6ZNSFuxYJT2zdlnE4sLy7iV4iP/WwBrKCfDW765fyvoFZElqSB5KTsSg6G+1HzdqUWcDBcBACumSU4xdXMR2SXk+wTNRTyIkRkbkWLvXtPuZzk6VNZ/2rdjn2OZ8t+bhR5xvxludneB6qGY08cu7g/7owkIkf2eSai2yPw0l99HUMA0KpHb8jEKWeu3BYefnu9etm8KcIKiOxyku/PXgyHyWGFcoj8c/xZbkoofKYwauQ4WBBeOu23XAEi39e0WZsn+nImMv+gSrjKHcV5Cpp/reAfTjZiE4OILI411XtNk+TcpUvDO3e+KyKiTe/eMbt3w1N7f/mFACDlfOV41aGEhG7PPXdXRMRfW7Z8ceTIKzk5gjohIk//7LMuzz77pwYNwjp1+nrTJpjHlFFkhmEync4nX3vt3iZNwjp1WrVx4yvR0UN8u1jfFK2LzD2uBxuwYsOGJo88ckf9+nUjIyfPnRsso8gCCwvecgqy+Mt+AfLtKC61r7igIH6LZgGDiCy+aGm+K9+Zde1i2rWLaVnJSRdPHLp6LgW+LXbluMtKxEVwSkBZACsYUHIgNMZqBY0hsm/KhHg82OUkBRwcs+0QAcC/WrdzXroBT9UOC+v69EDuNW/RagEiHz96gT+K7HKS43zrIt8WHt6o+6OQWZ+MGgqpBY4iz5i/zOUkh42dys1RlkPkIe9MuathBBysdV660cw3Ufifrdt2feZ5OLL77Otv8XlIGZEdqflw4edfDqRIPq4H14ZzOckX3hgNIRgi8m9nrkDQ/1uLVpF9noFzPB6sWrcu7WwOAcDg0ZP5LcHHtlhgzfrYgUOjjxxmV7Q4fCht4NBobpMXje0xHZERoolyEfFcZOX8+Cy2QHBZABmRfzvm/mJSAXRh/BdbAFsAwQJfTCpwnK0IrojBMIyfENnlJOGaD59+/i1EZEiK3N83x08XILLLSfLnIkMQmb9kbaPuj/6pQYO67Tu+O20+ty4bH5F37DpOAABnLcshMlzvgpsacSH1+pvjp/9fZCd28Kxj1+jJswXb2ikjAei8EAAAIABJREFUsstJjpo4kwDguaGjlBH59KksuMIut7veryczBw6N/mvzlnc2bAg6dB7yzpTU5GvwZld+s40AAP64r5HDcDYrLMCti/zowChuXeS7zV4XWRw7kHt0cVVaUjAia7ESzhO8FkBzqI0LihGAABfBFsAWEFtg7/rS4AoghhDZChzxT51XM9wPto18atAb/rkc2lU69u0POnaBu4qg1YBLmWWBR327630wdyk3r6bH84N0VQ6Dha7ogNaj67oEPzNGZL418HHoWQDBoX475mY9t3fu7m/KHMm31jI+uuIbzowtoGABR7In5suSsb1zx/bJCa6x5FsUkV1OcoVvjBYu46UgrV2nlny1iQDgu80/2dUAfF2+BXKyPGlnc7iUtLM5upazcDnJwEfk0EMifEfYAnwLICDy0on5Y/vk7P6mjPN9fIAtgC2AZgGWkvvkLJ2Yz/fKAD++dRHZ5STHvD+3c78BaGJbXapx98fgmKXVF8L1+8cCGJEDPBTi5oW8BRAQGbqt8wK7BCd+YQtgCxixgCPZg9AP2huXbmlEdjnJtN9yjUhuXdmAbZh1txzaNSOEBoQe3d5ogq+OLRDIFkBwKOi2oR2a8N1hC/jNAgj9oL0h5VZHZL99MvCFbnELIIQGhB7d3miCr44tEMgWQHAojMi3eNzGt2+uBRD6QXtDCkZk/PMZtoA/LIAQGhB6dHujCb46tkAgWwDBoTAim0tIuLZb3AII/aC9IQUjsj/w6Bb3Cnz7+HE9e8Mcvjq2AMMwGJFxKMYWsNcCtxIiZ3tdWTVfeG+24HqkAyvoR70QQoNSjw53ZqMomqz5qtqbDSNRoFsAK+h3hZQcSqYx6qPIOIr6MYpagndYQT8qiNAPyrgmm0y7Pe7MK2VJKUX7jxbuO8y9So4kladc8OYVKJTVeErnKHK215XpcWVUqLwyK1xZHlc2HqANPAtgBf0YDvgBHSE0SPToNM1uVuwlaY9X5eX10iRJU7TGQICz+ckCWEE/GVriMhIOJZGrRpI0IuMoalMU5UdUQ8dYQZsUROgHazik7w1VUlYcf/za4rVZ4+Zljp2j8HJOX5K3YUf5uXRxJRpTNCNyllcFiyW5OROvtR4wlIwVtCkowFCOEBoEPTo7YKxKxuIMXpKmMShrjIfWZsMKWmtftdoFDqWWnT0vRGQcRW2NooawGLYcK2irggj9YA0/paii/UezJs5XwGLJU1cXfuO55qpRlbY32hA5S8PIsSQiw0RbJTHBqUKg/VhBu0VECA38Hp0dEhbjr/YUTMnaAqJ1ubCC1tlWY818h9JYpAYiB3MUjY9P3hV74mJa/i3dIQazgqEhHEI/yHfV6xtjJQlYS2LW5E8RKFkDImcjjR/ziRmPJdvLZ1hBe+3vuzpCaOB6dHZyhXYalszpJfmBBh/72QJYQT8bXPJynENJnpVMrEbkII+i36zfVQuAZ19/KzRIC+UuglxBlFsOgI5P0GyEfpBzzPJUhxYUVshzdeE3XG0aDzQgspbJx3wgljzG85Jt/LBiBW00ftWlEUID16NrmnwsScb8RDwvWWNQtCAbVtACo+quknMo7SWrETn4o+i0OZ8TAMRsOySgllvlbfArGAJKIfSDnLdeW7xWAX81ntI7L1kDIksir97ELDwp2b5JyXrFksyPFayCXbQ4hRAaYI/OrnzAJ13kYxIPJHPB1q8HWEG/mlv+YoYQWTIqViXeFh5OAOD4zZWcmEkAAF/3NWnWY2DU/n1J1Y/xiKLooJHjYeadsSe4wJJ1qeyeRo0JAOp17s4lupxk/yEjCQDeeHcaTNy79xR3Lf4B6NDZ5SQrm5TKzqyo17k7PwMBQOueTyb/6uQSbwsPBx27vPHuNDgTg3+KyzNq4kx+Y4LvuEqsajkQUkQKBp8dDHRkOVke/r6/ab/l5ug0CEI/CB3am1egEYKVs+Vt2CEfISTOqCByenq6K6PCnL9Okq0H//W/BbCC/re56IoIoaESkY3PsoBU7fVKBACcZL0FTJhlgRU0QyZ0RFb7jV6AyLXDwtr16le3XQcCgDsbNNwac7ASyzIrBETFITIHvi4n+c36XRBM+YicdamsTuMmBAD/at0OcsmRw2kd+/bv2Ld/80d7EgDc3TACvn36tTclEbnFY0/ADB379h80cjzk4NphYR379m/f5+l7mzQlAHh0YJTLSfJPcUU+XvSNoPHB9FZNQa3cLFIwmIxgAI7hbT42MIoAYPq8L1xOEv4o8fgLr+myAEI/CF2/9NhpZfbVeNY5fYmuWKKOyLTHm56ebsJfmk5PZ5fewH/9bAETtIOfAayggU8vQmiAPbo53ocVNKCd8aiFfdC4DY3XgI7Iao95CRD5nkaNIXJ9sugbAgAQ2emq40YlhNXEFIjItQB4oG0kNyAHR4sFo8ir1+0kAKgdFkYAsH3HUT6XwOHkiG6P8BPFo8j7487wM0AOZpvqa9KvJzPvbhhBAHD6VJbgFL9UsB6rKagVkTOEX3KC1SA1P4da7iIny3OX7xPyyIBXXE7ykQGvEADc1TCC+9xqqQShH4REm7dhh0YIVs2ma71kFUQ2ZwodHAKhKF3wjjObYgGsoClmNF4JQmioHEXWsgqyxtkX2AeNC6m/BuyD+m1mSQl0RFabxiqHyK6MikbdHiEA+PGHA5UQlu3lkwRE5FY9ehMA7PLNtYCzLGAKfxT5mcEjCABeH/Me/MuvxBREdjlJOBoduzshBBFZTUEdiFxTQb4QIX+8et3OgUOjDx9KcznJg7/8PnBo9Jr1sbruGqEfhLHg6qerVdlXY4bylAva44sqIqvtUKCxb/Z4adw9a5fFvJy0FytonjUN1IQQGqoQGStowO4BUBT7YACIwDbBACKr7JalgMj9B79FADDr42UKiDx22scEAMPHfeBykmvWxxIAwBQOkTMdpXdHNLqvabPzv+f9qUGDv7dqfY33i78piHwmKfvuiEa1w8JSzlwJRURWURAjsi7SRc6M0A/C6OGctkgjAatmKzmSpD0iqSGydgJWzUniUWTtupiW05wnvaC4WEEDsiCEhkpEVvUs7RmwggYURC6KfRDZdOYWREdktee6FBB5yGh23HfSjM8qISxLYhR5+eqtddt3fKBtZG6297mho+CIMn+ixao12wkAnhk8wuUk//vcywQAP8T8wmGKRkTmHrwjAPg1MQNysGAu8utj3uPmIvPzw0cAuSsG34GagjoQuaaCwWcK/VMsuHscN21+eKduGzbtcznJdRv3hnfqNmH6p9xZLQcI/SAMAqrgqz1D4b7D2gMLRmTttgrKnLh7DhDZEEIDRuQA0c5gM7APGjSgWcVtQeRnfRMkqkeRawIWnGix6MvvRkyYwc7H2HqwTuMmrXr0TjxxiY/ITw16gwBg6YotLic5Z8EqAoBBI8dzRKIRkTs99VzPF/8HX2lncyAi8zn48Rdeg/NK4anbwsO5/FEjx3GXC8oDjMgGyBgqnpPlgV8Fuz37gstJdn3meQKA2+vV889cZO0ErJozYBE5eNacommGXaiJEr8Y3ymzQrYf6jG1e8YKoisWGIiMFURXELkk9kFBILUrivofkXMvu+t36sYO+n7/c9Uoco31TyEiz1mwKnZ3AgFAw67/JQB4f/biXw6kcIiccaEYPkjHx9n7m7e8cvkmZBeNiKzwuN7P8WcJAP7SrEX6uUJuFLnqST6vyyl+2beGKRrqmYnINRQMhi8MYvlq/JSh/RbGTvs4vFO3dRv3upzk2g27wzt1GzdtvvbiLieJ0A/CwKsKvtozFGyL0x7M8SgyU0nDFElTXpry0KTmF5ufpGmSDuDdfU3tngN1qgz8PhPYCiKEhltoFDkYFNQeVQU5sQ8qBVU/RlH/I/Ksj5cRANRt16F6RQupUeQZ85flZnsfaBsJIfjEsYv7485wiLx89VYCgH881IZbf+2vzVsSAGzcEmcWInMLFEyfu9SVXZGcxK7uzCJyllv9lV3hyva4nIENjmYiMiJf6kJJ1MxeVgtWEQ3CceL6UUGEftB0RA7YUeQAAyx2mNiHxdqZWDkn5aVpih0gCaR/odw9B5WCCKEh9BE5qBREdmvsg0qILAiqVkZRvyFy7bCwrv0GhHXsQgDwpwYNqpezyKhwySCyy0kOGzuVAKDZI4+7nCQfkZ+MGkoAMGfBKg6bxn/wCQHAS2++owuRH3q8T9enB8IXty4yy8E+qIqJOQAXXXZeLE4+xSIyvIuu/QbA17wFq9RxOcvN8hk76hxgw8yhjcgQiznkNXggr+Ca9bEDh0YfOcyuaHH4UNrAodHffrdHl9YI/SAMvFnj5mkfJ1bOWbT/qPZgrjaKHIrrIbC/+lFeHVFbEMRV31LewAHlkHyaPhgVRAgNlYiMfVDV48QZsA9q7wSQcgajD6IjcqbKegiCx/XgYPC9TZo+NuCVn/acrPEoWM0lw+BEixnzl7mc5I5dx9kH+2Yu4CPy5fNFcDHaUwnsxlvwFecbY76vaTPnpRsuJ6lxogV/nkaLx55I/jVbMFTc5oknCQA+XbIGIjI/PwHAm+OmaUJkjs9Y0goYUFZTsIZGyjxdU0Fb79HLfiHhDG76QU0FuXWR4f4ycF3ku/21LvIfs79UBl/tZ8sSz2qPeaqITJo2BBIAw6tsWBf3phalBEYnbeaarFhB7Y4lymkAkbEPap77JPBl7IOiz6HxhOCNogYQ2aMDoWQAa8rMRc8PjX5+2NvcC87ptIOxvBZylQDUamKWHTfrw3QT10UOCO63R8FHfbvrfTB3qctJvj97MQFAj+cH6dIUoR+EISt3+SbtEKyc0515RXsYVENkkjILkW0fWGWnVQh6UD+8pa2cXkJ76Nzv6bQhVGIb6uh/qCMPUolt6LQhtOsHhvbADwGNFTSoskkKIoSGylFkrGBgKCgdVbEPGlRHS3GTfBAdkbO8xhG5a78BgnHZ92Yv0oUX5mTO9viPjzlctn3qhRkKVn4GbEdk+xTMyfKknc3hPodpZ3N0LWdh5HG9gh3xyuCr/SztrqQj6ZBeM1UNkSnaHET22vwovT18DKO/SfG9pnAMc30XldCSOlhH+pXYirm+m2EYdlkO7evmKuTECgoF0PceHZGxglooSjkP9kF9n1bp3MEeRdEROZs0jshsDZl2P9NmC11BULaXkrGC3NcV5AMzFEToB2EwKj+Xrh2CFXJeW7xWOrrJpKogMkMz5gCWrVvr+fWXQamu2uwRdJrOmClNxjWJmc74iF2vQwF8tZ/CCsq4kMZkhNBQ2aNjH5TyKb2/CGEf1PhBlcsWAlEUHZGdJiGyzdNY/fjrvCSH2Tv+KjMBRt+XH6ygMRER+sHKiOQls6csUGBfjaeK44/LhTjJdDVEZhiaNGEqpNn9k+S9yCTStN7e1Pz8lFemcSjJ9OUZWvgY5qEzPsIKmiCoYQURQgPXo2MFA0FBvq9iHzRBEb3ffAz7IOdQfCmVj6Hbsr8sZ5kwHZn7hdqeA0ls9WeivfOSsYLGtTasIEI/yHlowbY4jRwsly1r4nyqpIyrUMuBOiKzw5AGn6m3ddtbO38c5PcBZv3Um7dTho/vow7eJ3mKub4bK2hCj25MQYTQUN2jYx/kuxLysTEFq+Mp9kFkCQwWNKZgtUNVa6lyVI3ITtJlcFWEmsu9+ZuSbZxiwSczM36sRzcdVpCvBdqxMQUR+kHORamycuf0JXL4qyVd13Jv8LoaEBnurYFMyaSts5ADYQgZ9gqGh0BYwegKKqGFNAfTXob2Sp6iElvRVAU6JWMFzVAQITTwe3R2bw3sgwYBC/sg19voOgiVKMp3KI0GqIHIRig5y+5ZyGg8ZHopw8OQ6HwMZwggUzJWEH4YjCmI0A/yXdV92YlMydc3xjL654tqQmS2iWyU1DnjwkvS+hvEN4fxY5Qh5MrdnnybgPCXOePvSo2054jx2SZ07hZpCD5Yh1FA5IN1fGtcYAV5+4r7XUGE0CDs0bEPYh80HhP11xAyUVToUBpMIURkhBkXmR6XzRNYSXZzEL2wW7njmtwmIL49jdF2rDA2mdUoImMFK+1vj4II/aDATamy8oJtcbrmJV9bvLY81SGoR+NbzYgM66MZmqLYdcS8pPSYlpdkSZqiAmRPZh1bhMBdnTSardIa7OZgei5hdECdThssh8jK6XTakMo7wwryJa7c91jzPjIUuoIIoUG6R8cK2qRgpdNjH1QYyw/sKCrtUPyPk+hYApEhYWR72X3yMj3Ssy8yPezcZdvJmINR7RtMsGOEclissA+Inj0s2N2qFary1ymsYA0V/KQgQj8ockpfgpcsT3UU7IjPXb5JvKtI9pQFVz9dnbdhR/HBk968AukatKXqRGTJStmhHckTdidq/H3Q8P4CWp/1Nvw7L5XYWhmFZc8mtlESAyuocU8ZAwoihAYdPTpW0HoFoQdhH5Se1h8MUVSHQ1WFS1lEroEX/qI65ItqGUI29gO6j3q1rZhhwoUC3uDISskVDBUFEfrBKl9U/599FM/s1WnNQGT1ltuTQxO5GoCeGnelDccNzrVgNwepuawb95ah3Qzt5t4KD448WKO1QfImlBRECA0IPXqgCRtKCkLbYh+UQOQgiaIIDhUSiKyBXE3EVi0wJweCOF3aAqGjIEI/aG+nFtKITKn/gG6QWfniaaIBY09kU0ceELJvFTErz0Wmjv6H39RgOdYyiSVYFEQIDQg9eqApG0oKQttiHxQjcrD4IIJDhQIia5llIU1maIO1GngOZS4HWmNColQIKYjQD9rbqYU0IivMmYOnjAGrWDl1IDAwmZVhGIUfeVUQWXmihfhOAiNF3BkLU4JHQYTQgNCjB4Zu1a0Q6iV2yeBREN4V9kGhpsGjIIJDhQIiqw7rmg6sqkgXINORzfxiYCWLh5CCCP1gdXdix1EII7L6jiGM2XOo1QeSjf0iqfC4njIiVz+uZ8eHDPWaIaUgQmhA6NFRTW1RuZBSENoI+6AAkYMoiiI41K2ByKbjndpAsonzOoIFc420Ux2Rg0ZBhH7Qos5JY7Whi8iqk4ON0aqMfbUwgUxRDcnoi77lfq+h+gDLEloKIoQGhB49sCQMLQWhbbEP1kDkoIqiCA4F3TY9Pd3lJIP1b5abbbnc3+wKq+5L7oowPXjt6f+WK1syqBRE6Aft7dRCFpHVB3TN/n2wsgdVmwBtSG9265DmktORlUaRE1oytMfQde0oHGIKIoQGhB7dDqFkrxliClbeJ/ZB/myZoIqiCA6F4Lay/mDHidD0QTssadc1Q0zBoHOo0EVkiqwx2sEP675jEx8x4TuP6jL7Rq+bt10SkX27T8ttQL2L38JgObbckjKGsOi6CKEBoUeXuSd7ki2ypOrNWH5d7INV4dRoNJPR0iIFERwKwW1l7smeZIssqXozdl1XtWFBl8EuS1p03aBzqFsYka3xFdXvfMY7FTp9mgwl1xGn0xkzrblRy2tVd1FrmmCRggihAaFHt8YkiLWGmIJ8K2AfhAMQfJuYeGyRDyI4FILbmmgH41WFsA8aN05Q1BBiCgadQ4UwIiuu+EZZNvFAdf6lCT9N0hp7aPryDNMfpvFbWFFZHiTYFEQIDQg9ut/U0XKhEFOw5i1jH/TQweaDCA6F4LY1Pyc2vwtpH7TZtv65fIgpGHQOdcsisteqz7c/ENnX9rztcvOS2bHkhBZM3k6r7tEv9aqFhiBTECE0IPToflFG60VCTEGJ28Y+KGEUM5KsiaIIDoXgtmbcv2l1hL4PmmaqAK0oxBQMOofCiGy+YyjPgaZNGEWuajNdQeduYVehSmzN7mhw5EEqsTWdNpjO3cLQFVWZgvV/20IDw1ihIEJoQOjRA0rsEFNQ2rbYB6XtYjTVCh9EcCgEtzV656aWvyV80FSLBVplIaZg0DkURmTzPcKK4G5+KwO+RhwaEHr0gFI1xBQMKNv6pzEhpiCCQwVdjy74YISYgoK7uxXehpiCQedQGJHN9zKMyKbYFIcGhB7dFMubVUmIKWiWWYKonhBTEMGhgq5HF3y6QkxBwd3dCm9DTMGgcyiMyOZ7GUZkU2yKQwNCj26K5c2qJMQUNMssQVRPiCmI4FBB16MLPl0hpqDg7m6FtyGmYNA5FEZk870MI7IpNsWhAaFHN8XyZlUSYgqaZZYgqifEFERwqKDr0QWfrhBTUHB3t8LbEFMw6BwKI7LZXmbNs9hmtzII6rMtNFijIEJoQOjRA0rXEFMwoGzrn8aEmIIIDoXgtv6RRuNVQkxBjXcdStlCTMGgc6gQRmS13fWscSPaGsCyprEBXat9S6bTVvwOgBAaEHr0gFI0xBQMKNv6pzEhpiCCQyG4rX+k0XiVEFNQ412HUrYQUzDoHEoFkctL6SD9tKl/sGhLbs2ifaGCVAUjzQ4lBfNzSITQAHv0ogrLtrkxIo+GsqGkoIbbDcEsoaRgVskNjMjiL//Gd3uV/NzjflDSLAiJoeSDDMMg9IMIRjOxiCwiL52YP7ZPzt71pSZezJ9VqbqomesT825M/QPNWILmvCaEyGEoKbh3fenYPjlff1ioS5undhy6f3nMvFNpukoFTuZQUjBwrOrPloSSgvNOpd2/PCZq33FdBrSuRydJUldL0DKHkoJoFgj2UiGmoHUOZZHQsoj82zE3vJl9G8ryc/zhzObeofoHi7LkpsRf0wUp5t5mCNcWGgrm55D7NpRBV3Kc1befS2zGFTju9XFSWlbJjaDTOjQUDDqzm9jg0FAwq+TGx0ksH9+/PObIFZcu+1jRo6+PiakbGVkLgNj4eF2NQcgcGgoi3HjIFAkxBa1wKEu1lkVkhmHg0Be8JfwXWwBbwIgF0H6QgUNfsHfHf7EFsAWMWADhBxno8sh9sOv69f9ERg6fNImumteXnpl5R/36g0aPjjt82HX9OlezOCd3ytCB6rMxlNdQ/ZKFbbmoZEtCINEWY1p2UYMO5X89lRCZYRjH2Qo448IIHOCy2AK3sgWWTszXO37MDwRHrrjgjAsjcIDLYgvcyhZ4aschvePH0Adh4OL7o/ZjmqZ7Dxr09rRpHB8zDPPtDz8QAPDhmGEYyZzaL6ScU/Azpvit6dORVWcb0tb8hKtsh+A9K5ZMkBJEChpxKFsUVEFkW9pk1kWLD8/Lj3lV4VWWtMKsa7FhznujYOebCpfLj3nVnXHQxCuGfFVYwWCXGCuIFdRlgUCLonp7dHZFo6oBY4ZhbrrdgttftGoVAYDXKxy7FefkChqctayyahjpoc0dSFYdgCQ9Fj0IxFksxA5CSUG9DmW7lKGMyOVpMcrAmh/zqtf1u1kalCWtVL0cVXLVrMvdCvVgBYNdZawgVlCXBQItimrs0etGRr46Zsx/Bw68vV69M7+zfcrplJTHXnzx7oiIupGRs5csgUbo9txzBADw1bpXL5gomXPVxo0EAJ989dU/W7fuP2wYzLll586WPXve2bBh8x49tv/0E0wcNHr0Yy+++NHnn9eNjKzTuHGfV191Xq3uZXb//HPbPr3vioio37XLhws+q7h5Aw5Aulw5r44e/Zfmze9v0eJ/77xTWKTvSWJ4acm/6jxHekwf9ZRsScgkqo/Km/qtw1IFNTpU4GgXyojsdZ1TZdb8HW+YQMk0dePsBtVrFcZGB47wQdESrGBQyKTQSKyggnGC4tQtrqDGHh0+fjdu1qyYPXsKi4rOX7oEaXVXXNxHn39eOyxs1caNDMNczsqaPHcuAUByauqlzEyGYeRyQkRu3qPHmi1bjp06xTDM+piYWgCM/fDD2Pj4V8eMub1evXMOB8Mwg0aPrgXAU4MHn05JiTt8+MH27Z974w340TqdknJ7vXqDRo/e+3P8kq9X3dukyaSPZtOkp/xGacvHH4/o3m3z9q1rNm/8x0MPDXr7bVNGdjXBHBmsq1ja5bDqT+yRHvabD00Zb6HVCmp0KOM3YlYNKIhMuz3uzCtlSSlF+48W7jvMvUqOJJWnXPDmFZjVOKP10FT+jjdUyTV/6+CyX1dRN/LQLud1/V58YLr6VWJeLft1FdolTC+FFeSbFCvIt4bJx9gHZQyKfZBvmID1QaUeHU6qoCiapOpGRg56ezRNssc0Rb0cHQ06duTmTgwZP755jx7wfgUTLeRyQkR2ZGTAUhTFXuL5ESPgW5qmG3bvPur99yEig44db5SXw1PvzZv3z9at4fHAN99s37cv20wfQn38xdL7mjb1Vtz86tu1tQD4Le13mL52y6bb69W7csXJzrjgzRKBlWj8y2Ic5YUVqvw1d16HxvZJZuMpWKldlYI0RfEnzEiW9meiikkhIsM5M4GtoJJD6TeoH6KoDkSmSsqK449fW7w2a9y8zLFzFF7O6UvyNuwoP5eu/5ZNLlGWtEILvLJ5tg4uPjzPfWk/WexUb4TX7XWdK0/9ofCn8VrrN3VSh3oLpXJgBautghWstoW1R9gH+fbFPlhtjWDwQYkenaZZfvKStMfLvepGRo7/8EPu7T8eemjEpMmemzc9brenwrPuxx8JAMpv3mQYRoDIbM733vNW/eNyQkQuLSuD5vr9/HkCgI3bt1dl9A6bMKFjv34Qkdv37ctZ9dPlywkA4NsH2rWbNGcO+5yMD15LS4rSzp/zVtwc+Obwpo8+4nGXw1dmVgYBwJ74uEoOo7w0TWpiZRYxKY3jjtWQZ8ZgJ3e/KAdSCnLa1TjwemmSpCn7tzLQ+vUDsnIAKyjhUPol9GcU1YbIFFW0/2jWxPkKWCx56urCbzzX9K1Dqd9cSiU0/UoofqRvxxtF8VNLTiwsS1pRnhYDXzd+21iWtKL48DxdWMwBdOGeMYyNoQErmBaDFVRyFcvOYR+sNC32wSD0QUGPzo418siYO+YjMumuqFU14ZibeUwAAIeE+YhMUZRcTgEiHzh2jF8VPK4bGamAyDRN1wJg8ddf+1bMoKoJlfT8d8AAcW0rN6zn56nCZfZhPt+LZFG48uVL4UbVpupnAAAgAElEQVQudR5YFmk0VSynICel9IGXtHdQWetcC7EWVGApKHAoTZrxM/k9impC5OsbYyUJWEti1uRP7aXkovipHKfaeFB+fidfaD8fYwWNS48VRP7QYh9kGAb7YDD6IL9HZwcUpfiY9nj5iEx7vPc0ajRs3PiTv57mvyRHkdmcEyacOnuW/7rpdgsQ+WRyMgHAsnXr+NmSU1MVEJlhGG4U2TeQ7Juu6kOoJ197tU2vXifP/Mp/5eZek0BkMXIZTLF1uTcFBeWUrZGOOocBOXLyC9JUtYL+UEpOaGMK8h2Kf3caj/0fRdURuTzVoQWFFfJcXfiNxvu3IpvnapLx0GywhoJdI2mvbbujYQUNypcf8ypW0IhvYh/EPhikPsj16OzkChk+FiPyE69Ete3dm3RXwCKkuyLn6jXay+7nyh9FZhim16BBbfv0oajKB60oisrNY5+KESDyTbf7z82avTNjBueGBUVFbt+KcoNGj5abaDFg+HA4GQMOJK/ZvLFel84VN2/MWbL4nkaNnH9kc6TFTkSWQyJT0zXN3+Bu0tQDZQUVxK0+5VPQ1EbpqAx9IDmQFOQcSsedV2W1JYqqI/K1xWsV8FfjKXvnJasuzmo8fCvX4M46XKWyDf9jBZXV0XIWK2jwg4t9UGOoVMiGo6jBDyFCca5HF0w+rsYmHzcLRpGPJSTeUb9+v8GDd+37aff+uCdeier41FNsEYoWIPLxpKQ76td/esiQXXFxu3/+udegQRBqBYjMMMxnK1bUDgsbP2tW/JEjm3bsiOjeHc4zVkDkpLNnbwsPH/zuuz8dOrRs3bq/tmw5dsZ0mvTk5+eFderU7LFHv9v644Ejh8d8MO3eJk38MYps41RDduMC2R8BBGoqvbV1XrK+GcmmknHlNyjDCnIOheCMtpCMCiJ78woUQrb2U3kbdiBYxKwiVHl+YWy0FhKyIk9pwudm3QhCPVhB45piBRE+eIIi2Ae1R0u5nDiKCj5UfngLe3T2sTT5IWTxKDLt8R48eqxb//53RUT8tWXLF9966w/nH2wNJClAZIZhDiUkdHvuucqcI0deyckRjyLDO12xYUOTRx65o379upGRk+fOVR1FZhhmV1xcm96972zYsH7Xrh8tWeJxl0PWyci8PPDN4X9u1uyeRo0eHjDgaOIJy0eRbV3IQlVBZX2rz5LsTwG2/atanMRysSTx2gwFkRHZLpJRQeTSY6fl4rWudOf0yrXT7fpsUSVXbaHk4sPzGK9wgyV/GgEraBCRsYJmfVyxD+qKmeLMOIqa9VHUXk8lIivOsqjmJ0WMZrOJNtXT3hJzctrFWAaWkzPlxk2YZQHFxQoa0wMZke0iGRVEztuwQxyp0VJsXy+ZupFXfHiOQWDSUXzr4PKUzXauYuH7KGMFdUgmWNsEK2gsGopLYx9EC55cKRxFxR8qS1MqEVn+QT0dfAwZy9ZHvlhbsUueaVvAWHIoESHR2ANepuhr9EE9/pcfrKABSZAR2S6SUUHkq5+u5qKzwYPylAsGDGtaUXfWMbRV23SRVsmJRZrWVzbttmQrwgrqEo7LjBWU/UgZPoF9EDmW4ihq+NOnr4JKRDZlGivErKon8/S1w+zcfnr2y+7BY85s5kxExgpyBkU9QEZku0hGBZGd0xYhR3NBwZIjSahWNbscTXmunSk5sSh/2xAOiUw5KNwz5sZvG6mSq2a3GL0+rKAuZbGC6B81XSWxDyruviQIntxbHEV1fcqMZ65C5OpdQnQPG/MHINkn9kzYJdj4fcEafBt/WDOiTGnbfMSsO1Grh/ZiBXWuGWeNgsiIbBfJqCAyF5qNHxTus3NVB2kP8ro9187cSF7P7iCNissFO98sOfpJ+fmd3vxL0lexNdW4cFwNWEFblOTsb/wAK4gVNN8CIR1FKxFZgLlG3pIBhMiVHwZukzyDEzDYTUZs3mJD7uNt9IsNX3GsoJyVNaQjI7Lx7o+rQVc/eGsjMl9RmiKLnRV/JN68uPtG8np2I71Dc+CrcO/Yorj34HHJsc/YLfdSf3Bf/tmTc5ZyF/HrCMBj7mNh/EDXB8sGU2AF1QYmsYI2fCwZxrjrcTVgBf2s4C2ByAKbVhMzWbW1Hm87vcrN9qq23KMpmqZsXO1Y0Ha5tyGOyILbDmAFMSLP4aK54KBgW5xAR/zWDxYQqGDkLVbQD3qJL2FEMkFZrKDYvH5IEahg5C1W0A968S9hASLbumoY/95upWNTERkriP7RCQRE1hVF8SgyuthBUdJIfywoG+gjWEGhh/5GClQw8hYrqN/8JpQwIpmgLFbQBD30VGEBIgfeRAs9BgnSvKYiMlYQ/VMQCIisK4qqIPLPb2z8bMAZeFf4L7YAtgCCBb6YVOA4W4EcVLLGzRNwEvLbov1HkZuBCyJbACuIbDrbC0J/x4BluxAGG4AVNGhAs4pDh0Koza4oqoTIGxcUIwABLoItgC0gtsDe9aUIcYFhmD9mf4nMxIKCZYln0dqASxmxAFbQiPXsLQsdOVTXQ7DXtv68OlbQn9ZWuBZ0KIUMcqfsiqKyiPzbMTd7M71zd68ucSTddGVUGH05SRd++d8CmR6jwnHS+7/xwX9FR7In5suSsb1zx/bJQRtLzl2+SUC6yG/dmVfkAhBOt84CWEHrbGt1zVWITJo2DGn7xhNWmywg6zdzXWSsoAGJkRHZrigqi8hLJ+aP7ZOze3UpBqzgJvssL1bQdgVZSu6Ts3RiPkJsKdgRj8zEgoK024PQAFzEoAWwggYNaGPxSkQmKbMQOfAXf7DR2tZdmsYKWmdcPTUjI7JdUVQWkeGdZJ83CbAyPbZjyi3agGzSHETGChoY0nYke5BDQ/m5dAHpor29tnitnlCG85pmAaygaab0e0WViEzRaIi8Nz6eAOC331Mri3vZxRBc16//JzJy+KRJtLHxyP7Dhg0dP94sk5TduBHeufM3W7aYVWFA1cOuTcdf2xj52KdgQN1acDUm6PpBFURmsZL7nd3IQbb3FiVUA1xlmsWMCMeVxQoakxI5NDBeMnvKAjQs5pcqjj8eXME0dFqLFQxaLSvdlmbQAEuIyBRF03TvQYPenjbNIB8zDLNw5cpVGzeaZVqSJEe8996xU6fMqjCw6kFVUKh7IG2OGFgW1taaoOsHNSBylhmTWY3hhWmweGs2AysYALqjhwaGKdgWx4ddhOOsifOpkjJtQQznMt8CWEHzbeqXGjm3pUmU6cgCRIazLG663QbbTpL+W5rXn9cyaBbl4mgKChAZz5NRNrLqWc6hVHOKM9gSRTUgspN0ZRp7Vi8LDyHb/agiVtBuSjYSGqiycuf0JQhkzBXBy72JA64/U7CC/rS2ideqdluaVl4VYf4XX9bv0vWuiIiHevb8YcdOiFY1EJmkTqekPPbii3dHRNSNjJy9ZIm4neccDgKAL7/9tvuAAfc2aRLeufOKDRtgNkdGBgHAe/PmNXr44b+2bMkwTKennx745pvw7L/bto2eOvWlUaP+1abNn5s1GzJ+fFFx8egPPvhby5b3t2jx4siR1wsKYM7SsrJxs2aFdep0d0RE6169tu7dC9Nvut0EAEvXrGEYZtXGjQQAn3z11T9bt+4/bBjMsGXnzpY9e97ZsGHzHj22//QTTAymv2oKCmhY4m0Abj0dTAKwba12KP0ttyWKakNkI5SchWch283HkA6RKRkraAZeGwkNDMO4LzuRKfn6xlgG/z6oPyKbWwIraK49/VMb323ZbX29Xgly8niXrFp1W3j4zAULfzpwYNyHHxIA7N4fR3u81YhMkucvXarTuHGfV1/dFRf30eef1w4LE0+TgIgc3rnzngMHTqekDJ80iQDg56PscuYQkf/SvPnClSt37t8vRuS7IyLWbNmSdvHi0jVragHw91atoqdOTTl/fuf+/X9r2fKNiROhxQYMHw46dtywdesvx4+/O3Pm7fXqnU5JYRhGjMjNe/RYs2ULnHqxPiamFgBjP/wwNj7+1TFjbq9X75zD4R8JTLyKgoKSstZI9OPIvYm3HGhV8R0KoW3+j6KaEdlJuvT+Xp/pceEJrGbQlWnzTLCC9slhMDQwDEOVlRdsi9M1L/na4rXlqcHXkyGEzqAoghUMCpn4jRS6LU2Lf6/3lN98oF27d2fM4Iiqz6BBfQYNqkbktDSGYV6OjgYdO3KzLIaMH9+8Rw/+tRiGgYi8ZedOLr15jx79Xn+dQ2Q+VQtGkd+aMoUr1bFfv/pdu3LTnd+eNq1h9+7w7METJy5lZnI572/RYv6yZZKI7MjIgNkoiqobGfn8iBHwLU3TDbt3H/X++1wlwXQgpSAnnPSBl6TxEINJGgsdSn+1fo6iehAZ4kW215XldWV6pGdfZHpYksZkbB+KqfM0VtAOdYyHhspg4iXLUx0FO+Jzl28Sr6aePWXB1U9X523YUXzwpDev8qdV/VEIl7DSAlhBK61rbt3SbkszNEWx64h5SdrrPXf+AgHAnjh22Bi+cnNy0y9fpilq7y+/EACknD/PMMw/HnpoxHvveav+rfvxRwKA8ps3+Q2GiLwrLo5LHDdr1v916MAhMv+UAJHHz5rFlXpq8ODHX36ZeztjwYJ7mzSBb91u94KVK9v37fv3Vq3qNG5cC4DJc+dKInJpWeXTC7+fP08AsHH79qq2e4dNmNCxXz+u/uA7qKkgJ1z1gZdkvwv5Hq8MvrsL4BZLOxRCg/0VRfUjsh14IYl98fHJu2JPXEzLlzwLE69cvhm7OyF2d0IOni0QMMIp6BXCp0wLDVLRhH0UD69GJGWZYEnDCgamUlrc9pfjxwkAkn//naGFN8EhMkVRtQAgRC9upBaWFCPy3KVL76hf3zgi12ncGF7ipVGjHmjXbsPWrSnnzzsyMv7x0EOqiHzg2DFxy+tGRgrvNtjf07RYwWC/p0BrvxaHQm6zFVE0WBF5376kWgB0feb5K5dvKnPV8HEfEADMX7JWORs+iy1gqQUsDQ3IMQUXxBbAFlCwgBa3PX/pEjuKfOCAuB4OkRmGuadRo2ETJpw6e5b/4uZdwLJiRB79wQemjCJDRC4sKqoFwLJ167im/rttW1VEPpmcTPhK8VuenJrKVYIPsAU0WkCLQ2msyj/ZghKRc7I8rXs+2aDLwxdSr6tizbXMisdfeO3+5i3PpbhUM2vP8Ed6+fSPv9Se358512/c+8uBFH9eEV9L1QJBFxr8E4DwVbAFAtkCWtzW6/X+u23biR99xN3Im5Mnw5m7fETuNWhQ2z59qKpZrRRF5eblcUXgAUTkdT/+CN96/7+9L4Gvojrbv1pttbb9/Np+Xz/b/7CLBVHUWlCgtS51q1brVkUogisgiggiBUFApFRkERdQAmmIAcGwExAiQgKSYEQQSdhCcnMlyw3Zk8vNne3/m5wwmdzZzsyc2W5efvcXzpw52zzPed/z3HPPnEPTXW688b6WPSXQ63qmF1ogiVxZVRWgqHeTW08ROllc/MNu3XQl8tlo9Ge9er04bZrY2ura2qjlrevE0iDQcRDAMShPoWFJIh/8OoR+f9mSkYskwokjggX+oHPncIjZvuObAEX1GHiTqB4efXZsgKJmz08SMw667xHxbjjETHh9LirwvY/WSOPF8OMjX5b/4lN0rA7FT5vzvpgyHGLEWqRZRk2Yfu3tfwlQ1NTZ74qJU9K2Bijq0t59vs4tliZG4VETpospxcC9Q5/5n77XFp9oCIeYdeuzB/z1of/qdeUvr77mrsEj9u09Hg4xNz84WF5UgKLe+WDlex+tEW/9qHv3nn+4+Y25H6KlIK/OnB+gqGdenhoOMSjZL/pcXVhQg+r9z8cZAYr6w/1/R5eFBTVPvTTlf/ted2HXrl1uGDT5jYWokBf++ebPevXO2p0vthYCFhEoD8byv60QC8n/tsLo0h3fuQZP+SloDCDgCgKYZrtg6dILunR5c9Gi7bt3vzp79vmdOq3bto3nealE/jIv78KuXe8dPnzTjh1bPv/89scfly/nRRL5F1dd9eHHH2/asePe4cMDFLU7J4fgQov+9977q2uvXbxixaLly6l+/c6jqNGTJ2uvReZ5fu6SJed36vTyjBmZ2dkrN2zoMWjQK7NmucIIVOprBDANyjvPSEYiX3/nX5F6MCqRf9C5c/6hclF5/PamW5F21JbIVL8b+919v/gJnmzUkMjnd+okpux39/3/mr9s8hsLpUIzHGKGvzgpQFGPPP0CUtXyLGILUeDdD1cHKGrd+uxwiPl07a7zO3UKUNTVt97ZfcAfA8JuO32/+6Z01ITpqN7/6nUl+qqALleuzkTa99Leffrdff/Vt955QZcuAYr658wF4RAjl8gBinpx8mxUr1QilxZFf3/XfQGK+lmv3n1vu+ui7j0CFDX5jYXhEFNaFL3ij7f0ueX2suLmuJbDpTkE0Bce9LVqyqx3AhR168NDDRXlO9fgHScFLQEE3EIA02w5jpv97rudb7jhoh49rrnjjvSMDNRgqUTmeX53Ts7Av/3toh49/rtPn0dGjjxdXh73XEgiT50798b77vtht26d+vdfunIlSkNkFpnn+eJQ6K6hQ39yxRWd+vf/KC3tsdGjh7ecYi3f9E18XQ81YElq6hU33XRh166/uf76iW++CbPIcdzBJQ4CmAaFU5QzachI5ABFLVuxKRxiDElk9PrCW+/8B0mNvdnCa7MoUlsix80Wh0OMhkT+8eU946QMquhH3bsHTzaiW11vGBSgqOTULUgiy7PElXD5oD/96cHBKPJvI0YFKGrCtLnhEFNRQv/l8acCFCVtIVJXS5atEwtBEvm2R/6BYpb+Z0OAojr1G6AmkS/u3uPg16FwiJFK5Hc+WBmgqO4D/nj0u8pwiPk889AFXbr8+PKeaHH2shWbRFLEeiFgDoHyYAx9A7npgcfCIeamBx4LUNRF3XsYmkj2nWtwxgFBLYCAlxFw2Gzla5G9DA60DRAwioDDBmW0efL0BCTy+Z06nUdR3W78w+lTZw1J5N/edOuFXbuKywYmzpgXoKirbrlDOF5Ic6GFVIAi0WNIIodDTI+BNwUo6pNPd4ZDzNe5wqlFF3fvUXyiAUciZ2YK7y4sWvIJqvrR514KUNSz46ehy/05hR+v+ky6yEFXIh/PF1anXNi1q6JERnPMjz47Nk4i3/34kwGKmvnWElH2jZ3yr4eefP7AV8FwiDl96uwlPa+4/dEnxLsQsIJAUsrGB0eMRrTu+uK7B0eMXr5is6ECfeca5M4CYgCBjoaAw2YLErmjdbCO9rwOG5R1eAlI5B9f3vPhp8agRcaGJPLVt95584ODhbUWLas8e91068969UZrHuyWyM+/+kaAoka+IiwynrsoJUBRdw4eIS5f1p5FfmPuhwGKys5qXem7fsOeH3TuHKCo6+64553Fq0Inm+KUk65EXr5ic4Cieg66WVEi3/TAY537Dzy/U6cvdh6WziL3/tNtAYpanf5FXHXiZb+77/9Zr96GZjrFvBAgjoDvXIN15wIlAAJ+R8BhswWJ7PcOA+3XRsBhg9JuDM5dMhL5wFfBi7r3+MVVfQ98FcR/Xa/HwJvmv/dxgKLmLkr5co+w+/ojT7/wj+eFIze1JbL4rht6+017oYU0MfX7G5D0ycjYH6Co3950azjE3DPkaaGcxatEiayYRdRMz46fFqCok/nVYszK1ZlUvxtRrv/pe+3Hqz4Tb4nv7ckXWqC1yH1vuwvNE3/YshJDvhb5tkf+8dHy9QGK+tODg6USGS0O2bR5XzjEzH/v48dHvow+e7IKUO33Dx8ZoCjpS2bSVkHYEALjpszp3H9g6spt4RCTkra1c/+B46e+ZagE37kGHPcBaQCBxEYAzDax+YWncxgB3xkUGYkcDjFoXhbNAWPuaPHr635/9LvKC7p0+ePfHkXScEXa1oeefF5XIvccdPNtj/wDfdLX7daWyD/o3FlMPHjkOCRrKkroX13zO2G/969Dl/buc0GXLmhFL1pooZhF1ENoZUXcfsylRdGl/9lw4z0PoCUT0j3X1GaRpUL8tTcXofIVJXI4xFx3xz0BikLwoqUpaBYZyXEEGirw07W7UFGPjRwXoCi0vYbYeAiYQKA8GEM/FAy87+FwiBnw14cCFHVBly6GZuh95xocdp1QHSDgQQTAbD1ICjTJvwj4zqCISeST+dU/v/IqNCGKJPLuXUcCFPWb3/UTRcl9TzwXoKh576UiJXpp7z7hEPPHvz36g86dO/cf+JMrfhs62XTX4BG6Etn6WuRwiEHT1Uh0IukjziJrL7RAGUvOLaiYOGPehGlzxTf/0MZ246bMEZ9aTSKj1/Vm/HtxgKLEze/UJPKmzfuQLBP34kBrkUVtLcpoUSI/8vQLAYr6en+x2BIImEZg7JR/de4/MCVtazjEJKdu6dx/oJRinGJ95xr864Wh5YAAKQTAbEkhCeUAAjzP+86gjEpkuqKErgjGKoLNFcHmA/uFXYR/fHnP8uLm8uLmGXM+QBOZP+jcuSIYKz5W98Nu3c6jqO07vgmHmGNHzvxv3+sCFLV5S470rbi33vkPyvXAiFHhEHPbI/9wRiKvXJ0pis435y1FKkfaMDXd8+Lk2QGK+u6bUpSg241/CFDUR8vXo0ukuaX6SVsiFx2ru7R3nwBFffbZ14prkcWNL+5s+fIgSmS08dz/u74/2uyiPBjr1bJlniiRb3/0iQBFFR2ra/8g7RhExMX9bSE3VhGMhUvo9nkZuDSNABHXEG2sLz959Pi+3Qe2pO/5+KOdSxdmzJ8p/2StWJzz6YpDn20sOpBbFQqyNA3e2SMIAIMeIQKzGXKz5YR/rPCPYViGZhmaoRU+LbcYlmE4luWEk41lh1NjtgCSkUYAGCSNqIHy5AZlIPO5pE56UX2JXFESEyRUUbS86Gzc50DLXhCCRG65VXKsrnP/AWgtMop5rmXZ7o+6db/mz3cjIXjjPQ9UlNBSJZr/bQX6FRttEYAjkTv3Hzjg3gfFj3h0iDT+H8+/gmo5v1MnMeWAex+cPT8JqZzvCyM//W0vpM6/yStBkdpZUBq0MhgtAg6HmA+Wpp/Xslfdtbf/pe9tdwUo6ofdun2eeUjUUtoSORxixk2ZE6Coux9/Ulsif7nnGJqkRwstyoqb0S/+F/e4/Jo/3/2b3/VDazzEzTR6DroZnduiwWAcoSqX0fLiaAdXzMtXbH5wxGj0jmbW7vwHR4z+z8cZIsU4AdOuoS5cfmRnxo4lb6+a/HzS6MEmPsvHDF03e9LelUmn8vY1R5rO+Rn43yEEgEGHgLahGmS2LaKYEaRwLMbEmk19Ygwda1PMNjQVitRAABjUAMfJW74bB5UlcqSuFj2JimZq1cpxErm86OySpZ9KJXJpYdO/5if1+uOtF/e4vGv/gWNefeNUQU24vUQOh5iB9z3848t7orUKOBIZ6Vrx74kjVWjTNzEmQFF9b7sL6V1ppHhwHdI06IW2vrfdJUoc3SzhEJN/qPyCLl0mzpgn5kr7ZPuN9zzw48t7/levKwfc+yA6UkS8qyuR87+tuLh7j/Moak9WgdpCC1SadC1yOMQUn2gYM2nWb37X78KuXX959TV3P/5kZuZBlPLwN6fPo6hnxr2mzaDxu9Hy4uaONrss7ouMNsNG+yJfbPO+yJG62oNb1615/SUTmlgjy/IxQ7cuevNU3j6YWrZ7YAAG7UbY7vLFcdCUJtZQ0jGGpjmWhalluxkUlDHDMLTpLzZqJAKDJqkzKpFd96LxErmppiorZfHyMUNxJLJxgSXOQ0crSmKiiFQMTJq54KEnn5d+0EpQxcQOR973xHOXXXu9uP7Y4dp1q6sINo+dLByC+mV2gQWORLIUA/oM6rbTRwn+1HKcOFr5/c+ZCwIUdctDjxtqP75rEG1QQ+lav5U2aeSRnRnCOA3/SCMADJJG1OnyRAaR2ZKWyKLwirEs4/SzdYz6WsSxlVl/kSPtADBorD/5bhxsJ5Hzs3akjBuBRl+bJXKL6iqOaoiMAfc+GDcB/OrM+Rrpnbz1VU7hxd17oG2VnaxXt66KErq8KLr780MX97h85Phptunjc6JZk0Hd1vooQXkwJj0pPf9QuaHtLMIhBtM1FGRnijZoXQfrlpA+Y3xVKGjMyUFqTQSAQU14fHBTyqDNErlFftExYbEy/COHgLBQ3PySGG1NrHQXGMTmznfjYJtE3rcmZemox8Qx1QmJLKxgjvr0V/sVaVt/1qt38YkG7+i8imAMaeJhz79yx2NPhI7X2y6R/cygw8ThuIacT1eIBuhYIGXciODBPGwXBwm1EAAGtdDxw704Bp2QyMLi5hj8nkOqdwgrK0yuF1eSv7hFAYNYBPpuHGyVyPvXrVo66jE3JHKLSg75cqsET53KIerj8qKz+d+cLjsVcUQfo+lkrV8DHFainq1O1zV8vXG1Y7I4rqKUcSMqg6ewPBwkUkcAGFTHxh935Aw6JZFbVDLMJVvuJi7pY6St4dcAff58Nw4KErkk/9uPRj7qnkQ+W95hfq+3TcDRDgric6sspDucAIN6X/O0XUP5yaNxstXhy/QZ4+EFPn0Hr54CGFTHxh93FBl0UCI3M3QMXuCz0leEd/NwJ32tTBir5wUG9fjz3TgoSOTVM19xWSIXnRX2FNMTGZBADYHyYoUt+RwWzcCgGjsoXts1rJs9yWFNLK/u0Gcb9fwb3FdFABhUhcYnNxQZdFQix5pZBt7eM99dbNi5Ql0Nq2hxYFCbP9+Ng4Gj+/Ysee7vrktkYVEySGRzCAiv6CnN7DodCQxqrRfScA3Bg3lywep8TOr4p2AiWdu/q90FBtWQ8Uu8GoMOS2QmBhPJJrsMJ7yiZ1jR2pAFGNRi0HfjYGDtv18zJZGF/XHFY9hazttrOXKv5Zg9xXNGdGVcBZzlZkoitxzsYkIiA4Naipb4FzYN15CxYKYJQZw2aWTG/JlZKYv3fbL8wJZ09MlKWbzzowUb5xVCnf4AACAASURBVEwxty1GQXamlnuDeyoIAIMqwPgmWo1BPYks7I8rHqTXct5ey5F76Lw9U5sqsLAPo6le03KwiwmJDAyagttsJt+Ng4H3n3kEWyIbO2JNOKpa5Vg+Zblc3Excl3SEApXBVJ5CBgYdlcXS7qfmGhqqwvj6OG3SyH2fLA8ezMM5JK+2vPTY3p2ZH85LHjsMs4rN86abdX0dNx8w6HfuNRhEZltYWMjEmsW/LMMUFhZyHFdYWMjzvMZflIalaTGvtBy1sHaZcFeOAMJZDU95PDAox9CZGN+Ng3gSuThqZYq3ZbMFrMWyUkkBYRwEhMOlldVw+3llYNDUDD0OBZhp1FzD4czNOPp19dQXj+/bbW5nqEhd7dcbV2MK5aaaKr8rHofbDww6DDjx6jQYRGbb+nM8HTM9xdt6zBvevDJsk2yUYpbF2+gNGDSKLOn0vhsH9SVyRZDM5C7O6gsrQhxTqegnK2HCQTpcHAsXN4eL2n+Km4X4YMw7eznjrLIABtt4dI9BNdeg9guvVDfvXLqQjkYtOqua0lDapJHSYhXDx/butFiR1ew0EykorNm0s2Lxyu9nfRAcN7t47CzxE5oyv/StpMrUDQ17D9CV1VbrIpEfGIxHMYEYFCUyy9DWlSvHcThHWpgW4vFEmL7meI7lOIblaIajaS7W/kPTQjzDcCxrHRPTbZRmxFllAQy28egeg74bB/UkMtHFD7oqmZSY09fBinOKwViblooTx4qXxe5rZV1Iy4FBRe5QpIMMKroGlqZ1J3c3z5tubvJYOoSgcE1pSLe6L5IWyTM6E8M2RqrX7SiZ9LYoiHUDZQuSI0dOONM8xVqAQSksicdgq0SmaeljWgnjqGSWIVad4aYK7WPatFScOFa8pAWtbLgighlwvngAg4rcoUgHGfTdOKgjkU1qTUUBGmKkx1uoLA9wb1cE+ZyxhrSS3nJzuzrdvSwI4wkMmrYIRdeguBWrdHJ3+ZihteWlBEeTA1vSpeXLw6smP0+wOvyioqdCoakLdTWxYoIzaZt5lwZpYFCkOCEZRGZLdq4U43iLmIiqkwGO4xTmjDWklfSWe9vVYWyHTPhQD2DQdLf03TjoqEQOhxjdWU/TEsRSRtP6GGnlIG2pdpVvFLpl6i5EtmNWHhjU5UUxgaJrOLIzQy5SpTE7ly407YwUMzZHmnQ3u4g21ivmtS+SbYyY1sdINNdu32Nf8zRKBgYROInKoKLZavQHnFs4E8lkRTlOq3gr+hhpZcaduWTdhcjEZ+WBQawepZRI0aC87EV1JHJhYWE4JLy9S+pvRVB4L7i86KzGX1J1GSinSGhV2Mpfoijht1wHyRLhTWr80nBSAoM4KMnTKLqGvSuTpIJYHg4dOajkZyzF7Up+T16RNKbseL6lCoxnrl63Q3F6GD8yOGEOW99ovGarOYBBhGCiMqhotlY7Dc+zDK29I6/zSxcMr6+QTiGfC7tyOqDunK4dYAKD5qxA0aC87EV1JLI5FDRy6e7v7fSbChxvbN3VOV8Qn8uN33n13lGwZQ9zYFCje2vcUnQNm+dNl2rTuHDKuBF2nOVxKm9fXEVxl07vjkwzhtYfq+nmuswvNfC36RYwKACbuAwqmq31vgRe1DqGYgkwDgpQ+ETJKBqUl72o4xJZWFmvtb+3w+c3Cu/tqqleQ/G0CweH6py3Se4FBdEZCZYIDErhwA4ruobVU1+Mk6fSy62L3sQu3kDCaGO9tBZ5+Kv1Kw0UZzlppKBQTfUaii9bkGy5LYYLAAZ5nk9gBhXN1nAvkWUALyqDxHwEjIPCuOwTJaNoUF72ok5LZJ7ntXe9Ib5sSNvyhH1tDElh9cTO/8bk1pcNYFC7UyneVXQNcnkqjcldm6pYlPXIVZOfl1YUF85asdh6Ffgl1GzaaUgKqyUOjpvNRZ1+zykOurhLYFCNLMV4DzKoaLb4fVsjJXhRDXAM3YJxUJDIPlEyigYV5zbjLt31om5IZFpzGZY9c59qJifs76iueo3d4ji1WuyI15+HsG3th84PW8CgEt9y16A7m2vfFsWfvfuvODckvcyYP1PpCeyKq1i8UlEwmYiMFp+2q5VK5QKDCJUEZlButkodwUwceFEzqMnyCONgcyNzOo09MozN6cvu+TWbfZkQODKMKV3JNDfat3QTGJSxoR8hNyiPe1EXJLLOOnenBVb7TdGtyGXbJKliv9OVyHa8o4BaAgwqMqIdKXcNGsfeIsFq32tzWSmLpZo4Lrxp7lTtZyF79/uZ75lQw4pZGnMPkW2bdmnAIMIngRmUm612l8C/C14UHyutlGc2sfuuZHddovzJ6cNXbtbKbuEeMGgCPLlBedyLuiKRNc+KpB39qdTYPLG2gHZ2yxt9iWzbrLbOG8TAoJLnkLuGyuCpOG0ad0l2R2Rpo7R3R1499UVpYrvDcefnKWpfzEiHt34DBlHfSGAG5WZLyhzAi1pGkuOKpisr4/aKmSt6Q3idjfQ/YNAEonKD8rgXBYlMbhbZYYnMstprsOzbWRNcAxHXUHY8P04Tx102VIVNVISTxVMSGVP+4iSr2ZaF8/ik0gCDCEkcajDTeI1B+YhOqvOAF7WIJHdqGo4+RmlaVLLFCuOzA4PxiGBcyw3K414UJDJBiezopha62waBRDb8E4GdB0R5yjUc3LouTo5LLx2eRcYUTzjJqtftwPDSxJK46NyBQSIs6jIoN1si9fLC1siJ+muqI+Ng5UYVffxTdtdPFW/xZ7aQ4g6VAwyawFNuULo2aN9UEY4XBYlMUCI7erYQSGRkn4Z1sMZqGTt/B/CUa4BZZBPOXZ7FRecODMrpMBGjy6DcbE3UopglcQWW/eMg18zmKK8/ZpqbmOYmRYnM5l7FcySXcQKDih1bO1JuULo2aJ9ExvGiIJFBImt3aYW74BoUQNGL8p1r0HsgYvdxpocx03jtZ3p3nTsxhvQKwmQHJ5nXGJSbrR4YuPfBi+IiJUvHVXyiLIJ3XaIlkXddwoXXyAozHwEMmsBOblAgkeNh9FbHoslJZK/taMHZ9W0eGIzv0xjXctdQFy6XLm+Qh8NFJzAKNpMkZ02KvDoxJn3GeDOFms0TmjIfRzzhpKnPzjPbCjP5gEGEWgIzKDdbMx1FKQ94USVUsOK4/GFqElk7nssfjlUBXiJgEA+ndqnkBuVxL+rKLHKC7ovsNYlsW3s8ttkNuZ2tbUOM53m5a9Dd7CZ40C7B90XSIlEQywMO74tc+lYSjvzFSRM5fKydP7b5AhhEACcwg3KzJdWnwIuaRpLN7asthVXv5l5julJ5RmBQjolujNygPO5FXZDI2htusw7vi8yQE1i2bbKm1u20d7RgWbtemwAG1RjRiJe7Bo5l5fJUGnM4064dPTfOmSKtKC6c+eE8jQchfqsydQOO/MVJQ1dWE2+eRoHAIAIngRmUm61GfzB0C7yoIbikiYXDQdpv6yZeMs31THO9eBkfyL5MWo7FMDBoAkC5QXnci7ohkWMxDW3H2rmrgJxRjiV0ALWzyh49iFtHmOrVa5c0l9PXcja9PxiUuwae51PHPxUnT6WXu5LfU3xki5EcyyaPHSatKC68d2WSxSoMZa/PzsORv7ppQlPmG6qXSGJgkOf5BGZQ0WyJ9BzwoqZhZLP/L177nlPM2muR2T2/Nl2pPCMwKMdEN0bRoLzsRZ2WyLoHXjgtkTmOzJYIzip71BEZWuvLBmPPER7AoK4XUEyg6BrWzpoYJ0+llzatCa4KBaW1yMOHPtuo+Ag2RdKV1bryFydBZeoGm1qoUSwwyPN8AjOoaLYa/QHzFnhRTKAUk2kstNCRyOQWWgCDitToRioalJe9qNMSWWeFe6zZvmOT1cjjaBJrLVjyh/eoNViM1/6hh4k127E1MjAo4m8ooOgadix5W65QpTF2bImgvRlk0ujBRQdyDT2a9cRlC5JxRLB2mkhBofWWGC0BGESIJSqDimZrtJPI04MXlWOCH6Pxup62RCb4uh4wiM+XNKWiQXnZi9olkbd+8UWAog4fPSpFJ3zmzK+vv/6p8ePp5qjaWgscVXf/k0+OePllaclWwg0NDZ1vuCEpLc38dDLt6NIC8WF1rdSOKXmdqWt7dLn4yIoBAqtl7GdQ0TV8tX6lVBDLw3ZM6K6bPUlekTSmpjSkiLN9kZEjJ7Tlr+7d0nnL7GueRsnAIAInURlUNFuN/oB5C7woJlCKycxv+laxWrFAE5HAoAnQFF9b53ney17UOYnMcdztgweP/uc/NfQxE8Pa2Xvehx9+lJZmjiF5LoZhnp04cc++HPMS2fEX9dBT6J4eQnythX6NeAzKWbAYw1l87dJ+BhXH2qIDuVJtKg+vef0lsr+r6G5CmTx2GNkaMZk9k7ZZVwerJQhOfCtWZtdh3drtBwZFfBKSQUWzFR/ZXAC8qDnc2nIJR4f0VlyOrDWLnNOH1NEhwGAbFwZDigblZS+qI5FN74qgOIvc2NioNnncGq/30htj25Jfjol/64s+G9UXzTSDM+1tsBfhJtddDsXEmk0zqNgI3aUdjB6DisUSiZQzqE9fjBaW2divj9W+Pevud5M0enD+rs+I4INebdw8b7pciEtjNs2dSqo6Y+WwbO32PcEJc9R0sFp86bxlbuljnueBwTaWE5FBNKKDF9XxpU550bbOVrleUSK3nD6tdgD1prbs1kIwDprGT1Eie9mL6khkJhbj9E6g+PcHH3QdMOCiHj2u/vOf12xu3aYqTiIfOHz4Tw8/fHGPHr+5/vrp8+bJhfJ3BfkBinp3+fJBDzzwkyuu6HzDDUtSUxENJ4qKAhT16uzZl//hD//dpw/P8/3vvffBZ55Bd3917bWjJ0/++6hR/3vNNT/r1Wv4yy/X1tWNee21n/fpc+mVVz4ycuSZ6tZ9oBoaG8fNmNGpf/+Le/Toe/vta7duRSWcjUYDFLVo+XKe4z5MTQ1Q1Jx33/ufvn3vGz4c+YVVa9f1ufXWH3Xv3vvmm9dnbG11FgzDubH+OK5r6v7cg8NgXJlql7rrOgRFbtt3GLVWtYvnOGHRBebicmcZVHQNPM+vnvqiVKHKwynjRpSfbLdgqd0jG7nI+XSFvPy4mK/WrzRSJOG0bH1jXeaXpfOWqQliMb5k0tuVqRtcWX8c98zAoBSQBGMQmS14UVWJ7KwXlfY0rnCKikq+RCG+cJqukpEWrhGGcVADHN1bvhsHdSVyMxOLsepHKryzbNkPOneesWDBZ7t3j5sxI0BRWz7/nOd5qUQuOHHikp497xg8eMO2rTPmzz+/U6clK1LiVDKSyJ1vuCFj584Dhw8//corAYr6fM8enueRRP6v3r3nffjhxu3b5RL54h49ln/ySf7x44uWLz+Pon5x1VWjJ08+fPToxu3bf96nz1MTJiDaHnj6aapfv9S1a7/48suXpk+/oEuXA4cP8zzfJpF5/qO0tABF9b7llmWrVu3Zv59j2JQ1a86jqLHTpm3evmPICy9c0KVL/vHjuv3AsQQ6u5fHmltw1mIQp6mC8mQ0D3xprciFty2V28+1/GNZYWpZ+DCtAZYVNLQj08ZxDVNzDdmpH8aJVPllyrgRBdmZVtY/RBvrdye/Ly9ZHlNaIBiF6/+4aCxafLox91DNtqyabVlVqzNqNu2s2ZZVt2t/5PAxh/c/1kYDGFTEJzEYPCeRdcZBRQTiIsGLxgFi+ZLDVcknpzCxqLaSwWkMMIiDknYa342DOBK5RWbRgsyK0xY0Tf/fdde9NH26CMpdQ4feNXSoKJG/LShgGebvo0ZR/X7f2FCPZPETL73U6+abFSXyJxvbdpvqfcst9zzxhCiRpYuP42aRn5s0SWxAv3vu6TpggNjO56dM6T5oELq7a9++k8XFYspLr7xyzvvvK0rkE0VFKBnLsr+5/vqHnn0WXXIc133QoFH//KdYiOsBjEVRSCU3M0oM6ra/xSkw2htASqjEWkquW2lCJlBzDcGDeXKdqhizdtbEguzMaGO9IXyqQsHctanaG0+K1X088VkrQtxQwxImMTDodyo1GJRIZNVxUPfxwYvqQmQ+QeV6tXXJwlzyvt5s+VrJCAXjoHmkieT03TgYWDZuxJLn/v7RyEeXjnps6ajHxMEy3jWcmyZkaJplGEEus2zBiRMBisrYuRNhx3FcRWVlYVERyzIZn2cGKOrQd4eZWPMvr776mVdeiUaa0Cd51aoARTXU10k7LppF3rRjh0jDuBkz/t/vfy9KZOmtOIn88owZYq6/DBt266OPipfT3n77J1dcgS6j0ejbH374u7vv/sVVV13Ss+d5FDXxzTcVJXJDYyPK8t3RowGKSlu/nj7378nx4/vdc49YvhcC2PpV1MptDKLJVvEp0CXHsizLCNPG2vsui13iXMDlVRbiY3gyoOYaOJb9eOKzot3hBDbNnZqzJuXY3p1lx/MbqsLNkSbxiZtqqmpKQyWHDxzZmbEr+T3dNQBx1Tl8aIjYbF8HgEFf04fW6KvZIM44CF7U5Q7ANQt7XBz5B5tztXCqSPZlQuDIUOb0x0xzg1RmtAtLlAww6BiDvhsHA7tXJhmTyOf0EBNr/jw7K0BRBw4dbNfzWhJsydyBJHIsevY8igrIPkdPHJfmkkvkNxcturBrV+sS+ZKePRH9fx816v+uuy517drDR4+eKCr65dVX60rknXv3ylv+m+uvd6w/4VSEszRKCrV9YXHyHqfZHS2NmmvgeT53bWqcVHXrsioU7Gi8EHleYJAIjC4WosagqkSWjINkPSp4UXPdAMZBc7g5nMt342DgTFnp0jFDDMwiS1zDkaMFAYravGO73EeIEpmJNf/48stHjBuX+3We9COuu0B50XytdKp4zGuvEZlFRhK5prb2PIp6PyVF7BC/uvZaXYm8/+DBQEuurw4dEj8HjxwRC/FCoGVfC81j9iSUyZkiFuPeXhZeYEG3DRquIVJXq30itDOKOWPBTN2ngASKCACDirD4KFKNQaclMnhRs50GxkGzyDmaz3fjYKCpqenLNSvMSeRopOlX1147fsZ0UWY9PWHCg08/zcSapRL5z489ds0dd8SiZ1GyWPRsaelpMUtLIJZ//HiAolI+/RTRRdN0lxtvvO/JJ0nNIldWVQk7ZiQno/JPFhf/sFs3XYl8Nhr9Wa9eL06bJnai6traaDQqXnok4IEv0DGY/NDuDBquAWfvdLtV8vIxQyuDp7QfAe5qIKC7+z0wqIGeF24pMuisRAYvaqkjwDhoCT5HMvtuHBQkclN9/aqpL+KuRW4/JTlvyeILunR5Y8GCbTs/nzjrjfM7dUrfsjlOIu/Jybmwa9d7hg3bsG3rpu2f/fmxx37/l79IJTLLMGhZ8y+uuurDjz/etGPHvcOHByhqd04OKYmM9sH41bXXLl6xYtHy5VS/fudR1OjJk7XXIvM8P3fJkvM7dXp5xozM7OyVGzb0GDTolVmzHOlLBioRvkAbXDcsxd96GFYh67Kl7RroaHTN6y/ZraI0ys9d27rHou6DQAJFBIBBRVh8FKnIoJMSGbyoxd4C46BFAB3I7rtxUJDIzc3NVadDH7/6HNbreu0lMt0cnbVwYecb+l/Ustnwmk0bkd6SziIzseYv9uwZcP99F/Xo8d99+jz83LMloZI2Wdby0xKSyFPnzr3xvvt+2K1bp/79l65s3Z8VbfomXYNh6HU9cS1ycSh019ChP7niik79+3+UlvbY6NHDW06xPivui3xu0zfxdT3UY5akpl5x000Xdu36m+uvn/jmmx6cRRbeOOE4w+/ttaeyjRGj8fDjIIZr0XYNPM/XlpemTRqpoWLtu5WxYCZsZIHBoU4SYFAHIM/fljPonEQGL0qie8A4SAJFG8vw3TjYKpEZhqkpO/3Jay+Iw7AzroFlaPQDPZLIUh1sI0sJWrQr36FFBhMUVGKPpesakEo2ugeFaLCmA7uT36e9t3aIGO7OFlRbXgoMOgs54driGHR4HCT8MB2yOBgHvUy778bBNonMcVzs7NmcNSnLxwxNGj3YftcQk05cgUQm0q0NbsB5bhs4o9PGrenbMUik/QlcCI5r4HmejkZFGzStejEzpk0aeXK/cDoP/COIADBIEExXipIyiMy2ocaiq9TIDl6UPMkwDpLHlESJVeWM78bBdhIZTejWhcv3rkyyUSILZ1gwfPsTzkAik+iBrWXY7iCUGCTY/oQsCtM1oGdHNpgybgSm2DWaLH3G+CM7M1j4bde2rgYM2gatQwUjBqc88OXYO8u3JNeaX4emNgEBXtRmJmEctBlgw8VvXdEw9s7ypa/XYOb0ghdVkMio9WhEbzl2mNCGYnSMZRhS56RjQtyRkwnboQtngNDE1igDgxb6kyGJjOqho9GT+/d8kbQI82w8XaGcPmN8zpqU8pNHLTwHZDWAADBoACxPJv1mlzCoj72zfGtKfeX3rZsyWZLL4EWdJRrGQWfxVq6tqpzZltqITOnEoWblRCqx7npRHYmM2oy0lrCjCo2vt2LCHgstB9hwspOrVaCAaLsQAAbtQha7XBMSWVp2VSh4bO/OfZ8sz1gwc9Xk53XVcNLowcljh6XPGL9jydtfrV9ZdCA3UlcrLRDCDiMADDoMOKnq0NQXsl/4CwgAAlYQ2LqiwYphOu9FsSSy/JHQgY2C9m35oPOoWy9b7smzQIynEAAGHaYDuRWClTZUhatCwbLj+WXH84MH847v211acBhd1oXLo431BOuCouxAABi0A1U7yjxxqHnRhCorygDyAgIdHIFFE6qMzh/j2LLdXtSkRMZpOqQBBAABEQHkH8VLCAACgAAgAAgAAoCAlxEAiexldqBtiYMASOTE4RKeBBAABAABQKADIAASuQOQDI/oAQRAInuABGgCIAAIAAKAACCAiwBIZFykIB0gYAUBkMhW0IO8gAAgAAgAAoCAwwiARHYYcKiugyIAErmDEg+PDQgAAoAAIOBPBEAi+5M3aLXfEACJ7DfGoL2AACAACAACHRoBkMgdmn54eMcQAInsGNRQESAACAACgAAgYB0BkMjWMYQSAAF9BEAi62MEKQABQAAQAAQAAc8gABLZM1RAQxIaAZDICU0vPBwgAAgAAoBAoiFgSiKjk9lYlmPaf9BhexyXaCAl3vMAg45zSlYic9FYtPh0Y97h2u17arZliZ/67LzI4WN0ZbXjzwcVGkMAGDSGl/dSA4Pe48RYi4BBY3h5L7UDDOpI5MLCQp7nxb8cyxYWFnIxWv8vw4i5pCVA2F0EgEG38Ccikdn6xrrML8sWJAfHzS4eO0vjE5q6sDJ1Q6RAsF/45x0EgEHvcGGuJcCgOdy8kwsY9A4X5lriJIM6Ell8AGHCOEYb/tAMB5PKIoiuBoBBV+HnrUpklq3dvic4YY6GLFa8VTpvWaws7O6zQ+0CAsCg3/sBMAgM+h0Bv7ffcRvEksgcwxgWx1I9DSrZ7X4JDLrNgFWJfCZts6ICxokMTnwLVLLrHQAYdJ0Ciw0ABi0C6Hp2YNB1Ciw2wHkG9SUyx5qaP5ZKZJqxiAtkt4IAMGgFPVJ5rcwiR46cwJHCGmlK5y0j9SBQjgkEgEEToHkqCzDoKTpMNAYYNAGap7K4wiCGRKatTSEjrczCO3yudTYOGHQN+7aKrUjksgXJGvIX8xasS24jw/EQMOg45IQrBAYJA+p4ccCg45ATrtAVBnUksrDzgXQ+2HSYgYlkwt0FszhgEBMou5OZlsh0ZTWmCNZOVpm6we5nhPIVEQAGFWHxUSQw6COyFJsKDCrC4qNItxjUk8jWV1kgVU3TPiIjkZpKYJUFMEiiQ5iWyA17D2hrX8y7oakLSTwHlGEYAWDQMGQeywAMeowQw80BBg1D5rEMbjGoJ5EtvqgnnXWGl/bc6HNWX9QDBgmxZloiV6ZuwBTBuslgv2RCZBorBhg0hpf3UgOD3uPEWIuAQWN4eS+1WwzqSWQiy1iRzGJZ78Ge+C0isxAZGLTcU0xL5NK3knS1L2aCyOFjlp8DCjCMADBoGDKPZdg9YcvcB75BJgx/AQFAwAQC775SfeJQs2nLdsuL6kpk43shS+cdpWGQyKZ7h4WMHA0MWoCPXFbkU0yUF5oyH1MB6yarz84z0QDIYhEBYNAigO5mT3u7zoQggCyAACAgR2DrigZz5uyWF9WTyFKNazHMwCyyub6hnouLcRWrufzhbO417J5fs9mXsbnXcPnDufAanouhbGTetkTUA4PqVOjeQc5CN5k8ga7wxU9Qsy1LXj7E2I0APkG6KYFBu8mKK//bvVHBcu+o2JJUfyLvbLio2eonSIdDDHycRsA6cWIJwKDxDnziYCz9vfqxd1SMvbPc3Fyyrm/ET2DIi4JEjnOJ/rk8s4nN6cPuukT5k3sVf2YLz/MgkT3CKEhkjxDhfDPwfbduSkPO3fknTbwaF02oGntn+ZakeqvKGASWcV1FUkaL+FsPgEQ2S6Wgku8sXzShyoSj0PWN+AkMeVEnJbJ/9n3jOF7YLI2Vf/iWWyYIJpqF44qmKyvj9oqZK3qDi8WIqWQf7dznPQa9IJGr1+0g2g/tLIyOsk2V9JljdLgg7sPUBtmmSjvrJlw2vu/WTQkMEuZGrzhktiX5UXISOUZS+ZkVK0baQIdD8o/fJsKtK2OxhCAwaJL9EwdjvhsHnZTIXl1ogdQwy3AszbExjsH+COkZjmM4Zzfr4E5Nw9HHKA1XOIOcRAYG9UZU9ftecA2Gvj2rPwr5OxzdFCv7JlKwvmHfwtrMydUbn6lKH6L7qdk8um7XzMYDy6Int9M1p3jOo/1TV/jiJwAGyXc+zRKR2RLTx0XNYU/PQdLhkli4pDlcEg0HsT9C+lg45G3hKApc6wFg0MIXM9+Ngx1YIgvTxC2yGF8Ta6dkaY5jhWlmW/9VblTRxz9ld/1U8RZfsYmMSvbaWmRfMWjaNQTHzcaXUNopa7fvsbVvGi2cqQtF8tPrdk7VVcNYCTY8Vv8fMwAAIABJREFUVb93brRoF9ds8o0Qo+3HTA8MYtGXPqTKewx2CImMZDG+JtZOWdLcMutscqLRyPS2kSqsK2OxBA9KZP8w6LtxUE8iJ+J+CMLyCZY2MFusrYzld1naLqHMNbM5VyrrYI7mOVrxFpvTh2uOEFDJntmTxI8MmnYN3898T1v44t9tzD2EqersTcax0eBeYspYPt+8bnhD7iKmNmjvU2CXDgziSmSRSs8w2CqRiy2/pScKrBLvvK5HCxPG2nrXyl1BKxtRsbYmBgZNUGkDg74bB3UlMkNAWqH9EOyeXsUYsQRpJVe0NsXYIJS5ik+URfCuS3gNibzrErZ0FQEegUGMPqaWxLRrqFi8El8Ea6eMFp9Wa55j8XS4oGb7K4Y1kyiejAQact9lI2ZeDSGLBjBomm7XGTwnkWPE1lrYKgRxC6dtVMZxUswGmWVGeRcDg9grZ+xk0HfjoJ5EZlgC0qpFIts1sYo9mgnLKmxSwxrFEl0fyeUPU5PI2vHckSes8wgMYvc1hYSmXUP1hkxt4Yt/l4u2bgWo0D5HoiJH1phWS+YyVm8aSYcLHHk41UqAQXPcoVzuMtgqkYN04kjkkphz+lgUW8ILf67OKAODIhfmAoQY9N04qCeRWc66tBJKoF3ezsIdfYykMzmVzOb21ZbCqndz+lrlERhUlUBYN0y7hkhBIb4I1khZtiAZq6G2JWo6lGpFKpnPu3YYHf7OtsfSLxgYNM8d+tHAPQZbJXIJQ0YiF7v9Tpsr+hhpMkIay6TUBgbNKWNpLhIM+m4c1JHIPEdoY11Xl7E6ur5CaUaZ1PyrcDhI+23dxEuei/JcVLyMD2RfZlUiA4P6WkgrhWnXwNNMyaS3NbQv5q26zC+12mfzveipz63qJCNLLOLqqt74jJsrLoBBC9whKt1isFUihwhJZJcXIju4vkIqrcSwuxPJ4nJwKwFg0BqJvhsH9SQyz3MMgeXIpDSimXGc41xYXxEnlFnaTMtledjs/4vXvucUs85a5D2/tiiRgUEZG8YizLsGnq9etwNTB6slC06Yw9Y3GmsxudRstBZzH7c4aUvwsiHnHXIPZLgkYNA6la4w2CaRgyQWs1qTFyYnUMVKRanqVsDddcnAoHXeLTPou3FQXyILh2hY3NfC1c3C3FxiIRXKJJZbaCy00JHIFhdaAINMTNjRz8I/K66BbYyEpi5Uk7848e5u99Z0cIV1hWS9BBcXJQOD1umrSh/iPINtEjnEhC3uimDPZmEZGfvXrsvSV8+2LbEoO9X02qyFZaeasJY4k/ixXv9hxW8FcQFPMoj7OLYxiEWcKK+tMei7cRBDIvMtJ82ZVsnuHsnmhSlkJJRJTCRrvK6nLZG5/OHmv+cAgyQYtOIaeJ6PngqZVsln0jbz7q2T4ZobqtYNJ6KQLBZSv2++he84VrMCgxbpq0of4jyD7SSyiko+mFscoKgARW3ZuA8tWT7xbThAUT/o3FlcwbxuXVa/u++/uHuPn1951aPPjv3um9JwiLn5wcEoY9zfdz5Y+d5Ha+IiAxT18arP4uTUZ599fXGPy6f/e/HBr0Py9O98sPLxkS8HKGranPflMmjOgmU9B/3ph926Udf3nzD136dPNkjTfJmdjx4h/5vvUfyPunWXVxGgqB3bvvrpb3s9PnKcNLtq2PI0ZBwChi9Nq2TXD9UTRap7gfKiSP4hoeuiT/63FeUGYfHdOIglkYXBQdCaBldc0Azn3sCMBjQzU8itZ+a1HAIi3eZMeqaxqTNHrK9VML3pG1exGhgU8BfPFXecQYuuged5tjFSvW6HoXXJZQuSI0dOWBV31vKfPbHNkDaq3vhM/b55kaMbY6V5rWdNn5u/5+gmdCp1NJjV9G1a3a6ZVWuHGSh87TA3VyQDgzzvOwbjJXKICct+rxcl8vV33qsgkYtjq9ZkXtClS4CifvO7fj+54rcBiupyw6CT+dWjJkzvd/f9/e6+/796XRmgqB4Db0KXK1dnIol8ae8+KAb93ZKRK6qTcIg5fers5YP+NOCvD1WU0Egin9+pkzT9ytWZrRL5X+/FadaXpswOUNT5nTp1uWHghV27BijqniFPStO88vpcJIjnLExGlQ667xFU+Hkt3weuvf0vLZf3fXegZPFSQdAvT9koLUE1fE5gSZ/F0bCMQfGbjHKgOBZ2eQkyI5xfaFQZt556qLaXSMuh4gbPHLn5gccCFDV19rvhEDNl1jsBirr14aGGuPPdOIgtkVslJ8+xLMewHM0oz0rSjKCkWdbhM5nVBnEDR4Sgs/HUClKMbz25GvsUEtbyth7C0SG9FZcja80i5/ThuXO7fXHAoIRLBxm07hpa200zkSMnqjdkVixeKT+TomTS26VvJVWmbqjbtZ+urJY8qmtB3CNC1g5r3P8+feaYsYbSUeEUki9exxTKZ09sM1a+HamBQSmq3mZQQSIjhVdCC0dJF8fCxc2iRA5Q1LLkDeGi5hOHK1tnkUNMeTDWqd+AAEVN//ficIgJnmy84Z4HAhQ1euJMUVug6eQly9aJMUgi3/bIP8QYeWBx0toARWVk7A+HGCSRf3x5z7hkihJ5/5fHz+/U6YfdumVs2RcORvd/efyXV18ToKi0VduEw0Rafkm/4o+3nN+pU4CiBtz7YFyZP+ouTCejiXB0q6Ik1uumW3vddCuWjBNOq3Z1AzgZgwrKuDgmfBdyXRmLQOEf8nKOQYMg658jU14Uuah7jwBF3fTAo+EQc1OLXL6oew9DE8m+GwcNSmSpaxPDwuSceOGlAOYqC8tnfODumEFirQVfuV5RIrecPq1yAPWZTTqsAIOYZ8pYYJCYa1DiUngVz+1d+ZTaxbORKhzxWpc1i20sVywBMzJWmlezebRuXXVZszALdDgZMOhNBlUlsqhdzsnT8zt1Oo+iut34h9Onzp44UiVK5O07vglQ1P/2va6suPW0ubXrsgIURfW7URQx5iTy7Y8+0anfAFSIjkSe/a5UvE6b/W6Aou4d+pQY+fKUfwUo6tHnXkKl7ckqCFBU/7/8DQnlb785LTY1HGLkElmcU8zcnieWqRpwfa2FhDvpc3k6jDOFTABYnT1PkpLXPzhiVNauw+EQs+uL7x4cMXr5is2GcPPdOEhCIjs8mGBXh6VcLYiedg3Bk+PW11oIa14Kp6io5Evk8VzR9Hbt9NVFIjFoq2vwLKvRYJaubBUWmJ5bSmHlQdj6Un2VvHYYT0et1NLR8nZwBvEl8o8v7/nwU2MCFDV7fpJUIr+/9NMARQ267xFRSRz9TphjDlBU6GQTijQnkS/t3eevw55FJRiSyENaFihPnD5XVLHLUjYEKOr6O/+KSpswTVhlMXX2uy/8880ARc16+yOx8WoS+dO1u1pnynHEnB9Fqptt1lGuAo8E9PG5qX07GfTdOJjQEpnVXwJBRLOiURNLz5GQAsLCcDyVzJ2axnt0hh9LaeCsk/ELg75zDVgM6SVqzFuiLZFrMl4gqFljZd9oV1eVPiRWfkiv1XC/DYEOzqAhiXzgq+BF3Xv84qq+B74KirPIcxelBCjqL48/JarMihIaSeRjR86gSDWJLH097tFnx4olhEPMyfzqAEU9O34aikQSWZr+smuvD4eY1oUW7WeRHxg+MkBRb779oSiR163PDlCUsFKiRQj2/MPNAYrKzsrfvCUnQFG/v+s+adWKs8h7s48GKGr4i5OEdRq6GsvargjSxnSIMM4qC5IKXpXBcZNnd+4/IPXjjHCITknb2rn/wPFT3zJEge/GwYSWyNI91xTDZARr23CiL+msL0cWa6tcr7YuWZhLzrmSr9wopvVpQH9Da/8w6DvXQKTP1O54VVuzRot2EalILKQua5Z2jZGC9WJiCOgi0MEZNCSRwyHm+VffQEpRlMhoFnngfQ+LSgJ/FvmXV19z2yP/QJ+Zby0RSwiHmK/3C9tojJ3yLxSJJPL5nToNuPdB9Ll36DNqEhnNIr/y+lutWjZEL1uxKUBRv7vz3nCI2b3rSICi0BKO8mDsF32uPo+ivskrEWtXlMjoW8EDI0YJyXQlnUeWI5OUleemYO0o0/mvHEoMlhdFftC5c4CiBv71oXBJbMBfHwpQ1AVdurizFlnXcxFKkMASWf/EEOIzrPoTyaTWdSD6uWau4hNhJ7jcvsKpItmXsbl9ufxhXMUnPNdMqIe4WExCMdgRJTJLa6vV6o3P8GQtgudjpXnalTbsW+hin/ZZ1R2eQaMS+WR+9c+vvArtXyFs+hZi0Frk/+l7bfxa5N/fIIpOtVlkjdf1Dn9zOkBRYybNkkpk1df12s8ix69FDjEvv/ZvYS1yy0T1uClzpLPRKPz6nA/E1ipK5K9yCiWrmVWnIVtFOcFVAXZIUq+VqS+RiQt0ZQbHTn6zc/8BKR9vCZc0J6du6dx/4Lgpc8SOgRPw3TiYuBJZd3Ew6bG5ZfDDUXU+GyVda25iMeg712Cdd6Y2qK1WG/OWWK8lvgSWrtrwlEa9tTtejc8C1yoIAINGJXI4xMx8awmSlUgiiztazGjZ0SJ0smngfQ8LO1q8MkOUFCYkcuhkU4Ciho2ZiAoxtBZZ3NFia0ZOuKT5wFfB/+17nbCjxSfbwyGmx8CbAhR1zZ/vRlu89bnldnQptlZRImdmHmz3UC6oOuIy0TMFaoNp0/cN7UqDUbE/GAr4bhxMWImsP6FL+jd6NMrorrVQGYwgOh6BBGPQd64hng/j183f52pI1ar0Ic2hfcZL1c9Rv3euVr3rhusXASlaEAAGTUjk7wsjnfsPFBdahEPMqjWfo3nlTv0GXNq7D1rGcDy/StQWahL5v3v3ERdODLj3wU2b94lZwiGm56Cb/3D/31GMtkTu3H/AgHseQJ9/jB4fDkbHTRb2Rf5B586XD7oJSd67Bo8Ih5gvdh4OUNTPr7xKnPMuPl6Ptvr6KqcQ1aUokT9avj5AUW371in9Ut9ujbLXZmq92x7lCd02MG1a2K3E4PKUjQ+OGJW963A4GM3anf/giNH/EdYlG/gu4btxMHElMstor2Ql+JqXdDzVPazEpnqlbUiMsFtI2lSv71yD9V6ke2iIxY3e1FoYKVivJZHTh7DRWrW8EC9FABg0IZHDIQbpRTSLjATEuvXZ/e6+/6LuPS7t3efhp8bEbaOmJpHjFjzEyZGnXppySc8rgicbNfdFHhdXSN/b7kTqas6CZZcPvOmH3br95nf9Xpoy5/vCSDjEjG3Z/e2Rp1+Q6p4//31YgKKmzHpHQyI/8cKrF3btmv9tRWtG3aMujOgqaWM6XNgtJGX1ivsi/+mBx8LBKNoX+WK39kWW+ik7wx1YItsDq+7cJ0hkTOD1pSpmQQaT2cRgB5TIkSNrtKTqhqcMMoObXHdfC6Y2iFtWx04HDOJIZLdEW3ZW/nkU9ea8pVoNkAmdttlH9Es6Cal69LvKn/62V3thrTv3aWDqUesBSbTf0+U7wqASAgoM/qnluJDXZi0MB6P/nLkgQFG3PPS4Ul5Vcn03DiawRNbc8Y09d9oc8SFQdwWtPQs8iD+H6wXqLFnxG4O+cw3WO0Bj3ocaErk2c7L1KhRLYOtLNeqtSh9ChwsUM0JkHALAoJclcjjEDBsz8edXXvV1bpGqTFH6ubxNJZeYXFEaV92jz479Wa/ehw583y5eezGrTcsDEk8xO8JgO+JEDGUMlhdF8r/5vrX/hOj8Q+WGtrMQfqa4s3zsnZZOiYrzUXZfdliJTNuFLEhkQsjqSWSfMeg712CdxsavPtCQqvV7/m29CsUSOLpJo1771kArNsbXkcCgxyVy8GTjoPse0dpVQEdgtR74p6yQRKmkGfjum9KfXPHbteuy4guRCaw2aS687EXHp9espeMmtp9BVWxtYNB346CORI40ePNoaf1xxzWBxfPaa6A5mEXWZ09IkUgMVpX779szHktaqep2a21RbMt2Fueaoy2Ro8Gscwnhfy0EgEGPS+RwiCkrbhaPIFHQOo4IrLYlyFKZa4PAUnhAaY0JGXaEQWVgbWAwcSTyoglVY+8s37qiQcuDevheIgksD8NsY9MSicGtKxrG3lm+9PUaG/HyXtEgsLzHibEWAYPel8jK4kYUi4klsHQeVnzqRAokFoOJI5G/3RtFD7MttbGqnDHmWT2QOpEElgfgdKEJicFgVTmzLbURmdKJQwlwnouBnuCmwFo7TGMiGWaRMVkEBkEim1elNsxBmm+Mf0UzSGRMb2VPMtWFFjzPo6kv5CPgLyAACFhBwL8/yJj2PG4KrPQhIJFNEydmBAaRyftYmSWWwPIxEaY1emIxiAxK9DDeD2hJZJ7nTxxqRisurIgDyAsIdGQEFk2o6mjzx8jxaR/h0ZC7yD7/qKGPq9KHwCwyJvLAIHJcPlZmiSWwfEwESOQWBJBBYfofLyTTkcheaKK5NmhvV1S3e5a5YnVzsU2V2sNzrPyQbiGQgOd5YNDv3QAYBAbNIeAdLwoS2bwqhYUWpmWxNGNifckBiWzOJZLP1XjwPxpStSbjBfJVtpRIV53UqBf2ZMWHHRjEx8qbKYFBb/KC3ypg0P8SOdZuqzW5bJWqMbJheV3SGNj0DRNt144OYfR6jplt+0Ai47tfe1NG8tO1pSpPR+1oQbRol3a9bFOlHfUmXpnAoN85BQaBQXMIeMeLgkQ2O4uscDZbO8mFKRAhmWsS2RYGQSKbc4nkc0WDWdpSlT5zjHytPK8971KVPoRnbTvzwo7nca9MYNA97MnUDAySwdG9UoBB30vkkK7QMTMXqK+bXRN2qkcf67fZo3I8oRgEieyeO29fMx3+TlsiRwrWt89B5qp2x6sa9dZsHk2mmg5QCjDod5KBQWDQHALe8aKJL5FLYrZoR+maCsWwR/WoBxW2nkT2FYMgkc25RPK52GithlStSh9S98XrxGtlG8t1Ks2y6zVB4s/ieoHAoOsUWGwAMGgRQNezA4P+l8h6K0pLCJxBrSCyFWWxGGlTpYkqu0XcFAM2galYlxhptlKQyK579bYGVG98RluwsvWlbalJhCJH1mjX2HjwPyTq6ShlAIN+ZxoYBAaNIuApL4pG9MLCwnCI8evfYFRoufZfsk9XEnO6RrLt91pp2tyhu2TbbBuDIJGN+kMb09dlzdYRrHlLCFbP0U26giBatItgjQlfFDDod4qBQWDQEAJe86KiROZ5vrCw0I9/OZYuLCzkGEG2qv0l+1xqtUjjydaY2KUlEoMgkQ35Q3sT675Q37IF23ekGqG9CywS68TnrUk13pvlAIPe5AW/VcAgPlbeTNnBGfTdiC7vRRzLcExM58Ox8ozmYjiW1qmLifEcZ67wjpkrkRj0nUEl7NEhPM/T4QLtWWTh7oan6LBllcyxTYdSdeuCd/WMOjhg0ChiXksPDHqNEaPt6eAM+m5El/PLcayuZhUSkFDJWGKOickbCTEaCCQSg74zKDMSmYvGosWnG/MO127fU7MtS/zUZ+dFDh+jK6s1yHb0FsdWbXhKV7lWrR3W+PVHprcrpsPf1e2cql9L+pDGrz9y9PHVKwMGpdgAg1I0CIfBBlUABRuUAuNZG9Qa0bmWfyzLMe0/LMuxLOeliVIsiczEOJY2Pb8ryDiM+WOhJd7Z9hQYlBihMwxqGZSkMZhBB7yoAYnM1jfWZX5ZtiA5OG528dhZGp/Q1IWVqRsiBcLKLXf/NeYtwRGvQpq1w+qyZkdPbmfqQvptpqN0uCByZE3NZy/jlp8+hMB0tX7LtFIAg23oAINtWNgbAhuU4gs22IaGH2xQYUTnOEEB0wwXo3U+NM0xDMe6v6gAV7yi9RgszXEMllYWJCaLOXPcJtNJTFe39SITIWBQBM1xBhUMSmwMdsBJL4onkVm2dvue4IQ5GrJY8VbpvGWxsjD2g5NPiPUrYfqQeJm74anazMn1++Y15i2J5KejT9O3aY15S+qyZhuSxWLJwpHXLroGYDA/HRgkb2AYJYINtoIENuhDG4wb0YUJY11lLE9AM+5OKuP+Ui9fsswKk74tH0aQwq2flhh5YrwYDJ9hYxJgsIVE1xiMMyjDTDvuRbEk8pm0zYoKGCcyOPEtd1VybeZkUae6GIgc3Wi4N5DLAAxapx4YNN0fwQZ5ngcb9KMNSkd0YUpYLn/xY1xdesGxem/s4Qnctslgc+lZxrQbsZ4RGLRKn7BOxhKDUoMyQajzXlRfIkeOnMCRwhppSuctM4EFqSyx0jzrrtliCdWbRnJ0E6knMloOMGiRvqr0IcCg0V4nTQ82CDboUxsUR3RhcQW+GlZMSVvSFlKDMhE2P5FsTgqr5MJav2Hi8TCyAIME9LHl3UhEg8JgLD6JK15UXyKXLUjWkL+Yt9xdl6y7Oat1961dQjSYFc+2g9fAoDY7OHeBQYsdFmwQ01VqJAMvarETmsgujuhYi48VlbE00tV1ycZWJKtoXEsyy8WlhjwPDFriDvUHywyKBmXCGF1RMjoSma6s1nDZ+LcqUzeYQIRUFjZSVbN5NI4SsiNNQ847pB7ERDnAoHVOgUETHS8uC9ggvrdUSwleNK5TOXCJRnThpSap0jUdZtycSOY5joBIMi2dXd3IAhgkQD0JBk1LZLeUjI5Ebth7QM1fG4oPTV3ogDvTqIKtL3VFJddlzebpqEbD7L4FDFqUyMAgqS4KNmjIZ8oTgxcl1RXxy2mVyNZXWSBVTdP4VduS0i2VbGE7OX0cuBhXsZrLH87mXsPu+TWbfRmbew2XP5wLr+G51j2YCayyAAZJLKY3LZHdUjI6ErkydYPcU5uLcX2/ZLapsi5rlkXBZCD72mGRw6vc3MWixbUAgwYoi9vbBBjUH52MpQAbNOc8xVzgRY11OMupWyWyxRf1pLPOJHSGpccStjzTPwCPwKSjON9s7QUvnYc9s4nN6cPuukT5k3sVf2YLz/NWX9QDBnVowL1tWiK7pWR0JHLpW0mid7YYiBw+houinemiwb3mdm0zpLTq983H2l/ZzidFZQODhogTEwOD9vVNsEHTvhS8qH3dUrHkVomMswuyVEVphFliRz0rNhgz0qG392ydPOY5rmi6sjJur5i5ojc4Wm8Taw3K4m4Bg5idTCmZaYnslpLRkcihKfNNe/O4jPXZeUqIuRHHsbGyb+r3za9aN1yUREQCNRkvNH2bxtaXuvFUynUCg4aYBQaVuxHxWLBBzdOX4pyneAlelHhP1C7wnERONIGFnrrl4A97ZpRZvMNHtNHXvMudmoajj1EarnAGmdXkMZrzhkT2KYOmJbJbSkZHIouu2XqgZpubuzoo2xodjZV903RwhXCCtFm5XL3xmfo9/44c3UhXnVSuxdVY68SJJQCDrjAp4m89AAwCg+QRSGgv2iqR4+YRrVwynphFbtcNxCPWLC7AEA4ZceqQlMqNKvr4p+yunyre4is2kVHJwGC73mPswrREtj78iSUYGgc7tkSWksuxTF2o+fvcs8e3NB1cIRykt3sW+tRsHVu741UUrt87Vzhy78ia6KnPY+WH2GittAwPhsVuYT1gqGO5AAUwqDcxCQy60C153rrpiSUAgw4z2CEkchymbYqZOXe0nuQwttbD9s4ducexHMc6vdsx18zmXKmsgzma52jFW2xOH645QkAle1Ai+4dBkMizRG8eF6hetyOOR7h0AIE4FqxcAoMO8CWvwgplcXmBQTm8DsTEsWDlEhh0gC9pFTZIZFf3fZM+m2/DXMUnyiJ41yW8hkTedQlbuoqERAYGzXcdL0hkQ14UZpHNk+2LnFbG47i8Xp/B8gUfxhsZx4KVS2DQOPwEclihLC4vMEiADyNF2CCRvbfQwgggXkjL5Q9Tk8ja8dyRJ0hIZGDQfC/wgkQ25EV1JHJw3Ow4H236snb7HvO4Qk6zCACDZpHzSj5g0CtMmG0HMGgWOffzgUR2nwNZC9jcvtpSWPVuTl+QyDI4HY0wLZHd8qI6Evn7me+Z1sRxGRtzDzlKBVTWggAw6PeOAAwCg6IvBS/qcGdolcgJt2WYwzCSrU44HKT9tm7iJc9FeS4qXsYHsi8jIJG9tKMFWWAdKM20RHZrHNSRyBWLV4re2WIgWnzaAQKgijgEgME4QHx3CQz6jrK4BgODcYD46PKcRGYISCu0D4brR4f4CH2VprLZ/xevfc8pZp21yHt+TYBHYFCFF5xo0xLZLS+qI5GrN2RaVMZidi7aehQkDo6QhhQCwCApJN0qBxh0C3lS9QKDpJB0vpxWicywBKRVi0R2evMH5yGzv0aNhRY6EpnEQgtg0ArDpiWyW15URyJHCgpFjWslULYg2QqskNc0AsCgaeg8khEY9AgRppsBDJqGzvWMrRKZ5chIZBo2QyBAqcbretoSmcDresCgNQJNS2S3vKiOROZppmTS21bEMcpbl/mlNWAht1kEgEGzyHklHzDoFSbMtgMYNIuc6/laR3SOJyORYRkrCUbNb/p2eqVVHoFBawyalshuaVE9iczz1et2WJTIwQlz2PpGa8BCbvMIAIPmsfNGTmDQGzyYbwUwaB47V3OKIzrHEFiODL/RkyFTODqkt+JyZK1ZZBJHhwCDFhkUDcpEOa54UX2JzDZGQlMXWlHJsN2bid5AMAswSBBMV4oCBl2BnWClwCBBMJ0sqm1E5zjO4r4W3j+VzUlkLdZVuV5RIrecPq1yAPWZTcCgRdStZ28zKONlueJF9SUyz/PRUyHTKvlM2mYefpsw3hvI5gAGyeLpfGnAoPOYk60RGCSLpzOlSUd04WBm0yqZgVXIhBnjCqeoqORL5PFc0XSe54FBwhwYL05qUMZzu6BFsSQyz/NsY6R63Q5D65LLFiRHjpwwgQJksQMBYNAOVJ0sExh0Em076gIG7UDV1jLjR3SOM7zigmY4mCSyhSQOUyVzp6bxPNfaBGDQFi5wC403KNx8bekc9qK4Erm1gTQTOXKiekNmxeKV8p2cSya9XfpWUmXqhrpd++nK6rZngpB3EABdaeICAAAX+ElEQVQGvcOFuZYAg+Zw804uYNA7XOi1RHlE53iOZTmG5WhGeV6ZZgQlzbIc7KGrh7DV+5Xr1dYlC3PJOVfylRsVqgAGFUBxIkrZoEzU7JQXNSiRlZ5EeBUPdkJRQsYvccCgX5hSaycwqIaMX+KBQW8yZWBE5zhxptKbz5KwreKauYpPhJ3gcvsKp4pkX8bm9uXyh3EVn/Bcs4GnBgYNgGUyqQGDMl6DHV6UgEQ2/iCQAxAABAABQAAQ8DoCto7oXn94aB8gQBoB3xkUSGTSXQDKAwQAAUAAEEgIBHw3oicE6vAQCYuA7wwKJHLC9kV4MEAAEAAEAAErCPhuRLfysJAXELAbAd8ZFEhku7sElA8IAAKAACDgSwR8N6L7EmVodIdBwHcGBRK5w/RNeFBAABAABAABIwj4bkQ38nCQFhBwGgHfGRRIZKe7CNQHCAACgAAg4AsEfDei+wJVaGSHRcB3BgUSucP2VXhwQAAQAAQAAS0E0IgeaTh38IRWWrgHCAACWghUlTMgkbUAgnuAACAACAACgIBfEFg0oWrsneVbVzT4pcHQTkDAswhsXdEw9s7ypa/XeLaF8obBLLIcE4gBBAABQAAQAAT4b/dG0bzXttTGqnIGEAEEAAETCFSVM9tSG5EpnThk5DwXE5URzQISmSicUBggAAgAAoBAAiGApr7Q6A5/AQFAwAoCvvtBxoBEjjbWl588enzf7gNb0vd8/NHOpQsz5s+Uf7JWLM75dMWhzzYWHcitCgVZmk4gb+nvRwEG/c0fzwODwKDfEfBj+08cakYrLqyIA8gLCHRkBBZNqCI1f+zkOKgjkevC5Ud2ZuxY8vaqyc8njR5s4rN8zNB1syftXZl0Km9fc6TJj/7R120GBn1NH8/zwCAwCF7U3T4ANugu/tZrBwatY+huCW4xqCyRI3W1B7euW/P6SyY0sUaW5WOGbl305qm8fTC1bHdvAwbtRtju8oFBuxG2u3xg0G6E7S4fGLQbYbvLBwbtRtju8l1nMF4iN9VUZaUsXj5mqIbStX4rbdLIIzszOJa1G98OWD4w6HfSgUFgEMfHghe1r5+ADdqHrTMlA4PO4GxfLR5hsJ1Ezs/akTJuBI53JpImfcb4qlDQPog7YMkF2ZnAoK95BwZ9TR/P88AgMGhofIRxkHiHARskDqnDBXqHwTaJvG9NytJRjxmybeuJU8aNCB7Mcxj9RK0u59MV1hkxWgIwSLA7AYMEwXSlKGDQFdgJVgoMEgTTlaKAQVdgJ1ippxhslcj7161aOuox5yVy0ujBKeNGVAZPEcS3Yxb19cbVRtUtqfTAIJEuBwwSgdHFQoBBF8EnUjUwSARGFwsBBl0En0jVXmNQkMgl+d9+NPJRtyRy0ujB6TPGwwt8VrpX+cmjpPSuuXKAQSv08TwPDFoE0PXswKDrFFhsADBoEUDXswODrlNgsQEeZFCQyKtnvuKuRE4aPfjQZxstgtuRs6+bPcmctCWYCxi00gOBQSvoeSEvMOgFFqy0ARi0gp4X8gKDXmDBShs8yGDg6L49S577u+sSOXX8UzCRbK5vBQ/mEVS6posCBs3Rx/M8MGgaOo9kBAY9QoTpZgCDpqHzSEZg0CNEmG6GNxkMrP33ayYkctqkkRnzZ2alLN73yfIDW9LRJytl8c6PFmycM8XcpgoF2Zmmwe3IGTMWzDSha4FB7/QZYNA7XJhrCTBoDjfv5AIGvcOFuZYAg+Zw804ubzIYeP+ZRzAlctqkkfs+WR48mIdzSF5teemxvTszP5yXPHYYpoDbPG+6d9jyS0saqsKY8CaNHgwMepBWYNCDpBhqEjBoCC4PJgYGPUiKoSYBg4bg8mBizzKIJZFXT33x+L7d5k76iNTVfr1xNaZQbqqp8iB5Xm7S4czNOBIZGPQsicCgZ6nBbBgwiAmUZ5MBg56lBrNhwCAmUJ5N5lkG9SXyzqUL6WjUIrI1paG0SSN1xdyxvTstVmQ1O81ECgprNu2sWLzy+1kfBMfNLh47S/yEpswvfSupMnVDw94DdGW11bpI5Mf5bQIYBAZ5ngcbJGFwCmWADcaDAl40HpHWa7BBFWCsRoMNxiMINhiPSOu1URvUkcib5003N3ksb15NaUh3LvmLpEXyjM7EsI2R6nU7Sia9Lcop3UDZguTIkRPONE+xFpamdSEFBjV4BAbl31rBBhVtTS0SbFCKDHhRKRqKYRgHFWGxEgk2KEUPbFCKhmLYkA1qSeTlY4bWlpcq1mEu8sCWdPmQLI1ZNfl5cyVbzBU9FQpNXaihpTRunUnbzLOsxQaYy667iSAwqEGceAsYBBs0Z4A4G1qDDYqGphEAGwQbBBs0jYCYEZSMCIV2AF+LaknknUsXaldj9G5zpEl3s4toY73RYi2mZxsjpvUxcvq12/dYbIO57Ed2ZkgdqzwMDGqMytJbwKC084AN4tsj2CDCCrwofp+BcRAfK5yUYINggzj9RJoG3wa1JHLoyEFpoUTCu5Lfkw7G8nDZ8XwiFeEXUr1uh1QtmQgHJ8xh6xvxaySVcu/KJDmA0hhgEJNNYFDabcAG8S0UbBBhBV4Uv8/wPA/joCG4tBODDYINavcQxbuYNqgqkVPGjbDjLI9Tefukg7E87PTuyDRjaP2xmuSqy/xSkQZbIzfPmy4HUIwBBtXIUowHBsWeAzaIb7ZggwJW4EXxe0xLShgHDQKmlRxsUEAHbFCrjyjcw7RBVYm8ddGbCqVajoo21osjsWLgq/UrLVdioIBIQaGiYDIaWbYg2UCthJKunvqiIoYoEhg0RCIwKPYlsEF8AwUb5HkevCh+h0EpYRw0iphGerBBsEGN7qF2C9MGVSVy7tpUtaItxq+a/Lw4GMsDWSsWWyzfUPaaTTsNCSm1xMFxs7lozFDV1hPL0ZPGAINqZCnGA4Ni5wEbxLdNETTFANigoq2pRYINir0IbBBsEB8BYU9PUDKG8GpJjKNFVSWyfVsUf/buv0RHIA9kzJ9p/EnN56hYvFLNXxuNjxafNt8O4zl1vwMBg8CgWrcCG1RDxlA82CCCC7yooW6DEoMNmgBNngVsEGECNijvG7oxODaoKpHte2UnK2WxXBmLMZvmTtV9MIIJvp/5nlEhpZa+MfcQwYbpFqV7YCMwqMaUWjwwiMwQbFDX+lACsEGEA3hRzA4jTQbjoBQN02GwQQQd2KCJLoRjg6oSmeyOyNLWa+9It3rqi9LEdofjzs9TE0848Q5vHFYZPCV+r1AMAIM4rEnTAIOoI4ENYrodsEEEFHhRzA4jTQbjoBQN02GwQQQd2KCJLoRjg6oSuaEqbKJKnCw4zcIph0gaqUKyGK7ZlkWkSZiFlB3PV1TGYiQwaJRQYNAViWyUJo30wCAwiOk/UTLwoggHDZsyegtsEGwwkWzQBYl8cOs6UcbJAw7PYBm1f4301et2GOoZFhO76NyBQYvcoezAIMJBw6aM3gIb9PvwDAwCg4a8K3hR8KKGOow0MY6ScUEiwyyylCTTYRddAzBomjVpRmAQoWFUB2ukhxksvwssYBAYlDpJ3TB4UfCiup1ELQGOkgGJPEtjxDV0C5w7OHc1U1SMB+eOYDFkZdqJwQbBBhVtTS0SbBBsUK1v6MbjCCzdQkgl0HaMhu6CF5V6UVWJHC46QYq8uHJy1qSgFij+TZ8xPi69rZehKfMN9R6NxPXZebY2Na7wunC5IoBiJDCoQZbiLWAQdR6wwThbU7sEG0TIgBdV6yEa8TAOaoCDfwtsEGEFNojfZ8SUODaoKpGDB+0SfF8kLRJlnDzg8L7IpW8lKaolE5GRw8dE6B0I6G52AwwaJREYRPYINohpv2CDCCjwopgdRpoMxkEpGqbDYIMIOrBBE10IxwZVJfLhzM0mqsTJsnHOFLkyFmMyP5yHUwipNJWpG4wKKbX0dGU1qVbhlMOxrAiaYgAYVGNKLR4YRB0JbBDHAHmeBxtEQIEXxeww0mQwDkrRMB0GG0TQgQ2a6EI4NqgqkXclv2eiSt0sHMsmjx2mKOlQ5N6VSbqFEExQn52nJpgMxYemzCfYKsyiUsc/pYEkMAgMKnYksEFFWMxFgg3yPA9e1GjnARs0iphGerBBsEGN7qF2C9MGVSWyTesRq0JBDVWXNHrwoc82qj2SHfF0ZbUhIaWWuDJ1gx3N0y5z7ayJGmACg2pkKcYDg2JfAhvUtjvpXbBBnufBi0q7BE4YxkEclDDTgA2CDWJ2FWkyTBtUlchJowfbcfaE9kZ0SaMHFx3IlT6GA+GyBcmKmslQZKSg0IGmxlWxY8nboqxRDACD+CQCg2IXAhuMMzSNS7BBBA54UY1OIr8F46AcE9MxYIMIOrBBQ10I0wa1JLIdk0nrZk8SR2LFQE1pyNBzWk8cOXICX0gppiydt8x6M0yU8NX6lYoYipHAoCJf8khgUOwzSaMHgw3iGyPYIMIKvCh+n+F5HsZBQ3BpJwYbBBvU7iGKdzFtUEsir3n9JY5lFUs3F6m7CWXy2GFka8Rs55m0zXLZhBkTnPhWrMyuw7q12190IFeqbORhYBCHRGBQ2nPABrWNLu4u2KAICHhREQrtAIyD2vgYvQs2KCIGNihCoR3At0EtiZw0enD+rs+0a8K/y7Hs5nnTpYOxPLxp7lT8AkmmZNna7XuCE+bgKCppmtJ5y9zSxzzP6+53AwxKyVIMA4NxZgg2aMixgA22wQVetA0L1RCMg6rQmL0BNtiGHNhgGxaqIUM2qCORU8aNKD95VLUqIzdyPl0RNxjLL79av9JIkYTTsvWNdZlfls5bpqilpJElk96uTN3gyurVuGdePfVFOYzSGGBQSpwYBgalnUQaBhuMMzHdS7BBKUTgRaVoyMMwDsoxsR4DNijFEGxQioY8bMgGdSRy0ujBKeNGFGRnWln/EG2s3538vnQYVguXFhyWP4/zMVw0Fi0+3Zh7qGZbVs22rKrVGTWbdtZsy6rbtT9y+JjDu+dqP3526odqYIrxwCAwCDaobUdW7oINKqIHXjQOFrDBOEAIXoINKoIJNhgHiwkb1JfISGmtnTWxIDsz2lgfV6X2ZVUomLs2VXvbQlHJfTzxWStCXLsliXo3eDBPBFA7AAx6sw8Ag97kBb9VwCA+Vt5MCQx6kxf8VgGD+Fh5M6VnGQwsGzdiyXN//2jko0tHPbZ01GPaMitp9OBNc6fmrEk5tndn2fH8hqpwc6RJRLyppqqmNFRy+MCRnRm7kt/T/e0jri6HDw0Rm+3rAMeyH098Ng5J7Utg0FOMA4OeosNEY4BBE6B5Kgsw6Ck6TDQGGDQBmqeyeJbBwO6VSYYksrb8snK3KhT0FGd+aUzu2lQrsBPMCwya6zPAoDncvJMLGPQOF+ZaAgyaw807uYBB73BhriXeZDBwpqx06Zgh+LPIBBWVtKiMBTPNwQq5InW12md6S3G2LwwMmu6KwKBp6DySERj0CBGmmwEMmobOIxmBQY8QYboZ3mQw0NTU9OWaFe5K5OVjhlYGT5lGFjLq7p1unzJGJQODFjshMGgRQNezA4OuU2CxAcCgRQBdzw4Muk6BxQZ4kEFBIjfV16+a+iLmWmQ7xFbu2lSLyHbw7HQ0uub1l+ygBrNMYNBiDwQGLQLoenZg0HUKLDYAGLQIoOvZgUHXKbDYAA8yKEjk5ubmqtOhj199Dud1PUzNhJ8sY8FM2MjCYsfieb62vDRt0kh82AmmBAat0wcMEsHQ3ULABt3F33rtwKB1DN0tARh0F3/rtXuNwVaJzDBMTdnpT157gaBywilqd/L7dDRqHVYoAWkso7uI4HCknQYYJNj3astLgUGCeDpfFDDoPOZkawQGyeLpfGnAoPOYk63RUwy2SWSO42Jnz+asSVk+Zqi2KiJyN23SyJP795BFFkqjo1Fg0NfdABj0NX08zwODwCD+EAnjoB29BWzQDlSdLNM7DLaTyBzH8TxfFy7fuzIpZdwIfDs3lDJ9xvgjOzNYmnYS8Q5VFzDod7qBQWBQ26mCF7W7h4AN2o2w3eUDg3YjbHf5XmBQQSKjx6aj0ZP793yRtAjzbDxth540enD6jPE5a1LKTx61G1YoHxhMjD4ANuh3HoFBYDBuZIRx0OEuATboMODEq3OXQVWJLH3OqlDw2N6d+z5ZnrFg5qrJz8fZvOJl8thh6TPG71jy9lfrVxYdyI3U1UoLhLDDCACDDgNOvDpgkDikDhcIDDoMOPHqgEHikDpcIDDoMODEq3OeQSyJLH/OhqpwVShYdjy/7Hh+8GDe8X27SwsOo8u6cHm0sV6eBWI8hQAw6Ck6TDQGGDQBmqeyAIOeosNEY4BBE6B5Kgsw6Ck6TDTGbgZNSmQTTwJZAAFAABAABAABQAAQAAQAAV8gABLZFzRBIwEBQAAQAAQAAUAAEAAEnEMAJLJzWENNgAAgAAgAAoAAIAAIAAK+QAAksi9ogkYCAoAAIAAIAAKAACAACDiHAEhk57CGmgABQAAQAAQAAUAAEAAEfIEASGRf0ASNBAQAAUAAEAAEAAFAABBwDgGQyM5hDTUBAoAAIAAIAAKAACAACPgCAZDIvqAJGgkIAAKAACAACAACgAAg4BwCIJGdwxpqAgQAAUAAEAAEAAFAABDwBQJmJDIXjUWLTzfmHa7dvqdmW5b4qc/Oixw+RldW++LJO3IjgUG/sw8MAoN+R8Dv7QcbBAb9joDf2++ADRqQyGx9Y13ml2ULkoPjZhePnaXxCU1dWJm6IVJQ6HcCEqz9wKDfCQUGgUG/I+D39oMNAoN+R8Dv7XfSBvEkMsvWbt8TnDBHQxYr3iqdtyxWFvY7H4nQfmDQ7ywCg8Cg3xHwe/vBBoFBvyPg9/Y7boNYEvlM2mZFBYwTGZz4Fqhk17slMOg6BRYbAAxaBND17MCg6xRYbAAwaBFA17MDg65TYLEBzjOoL5EjR07gSGGNNKXzllnEBbJbQQAYtIKeF/ICg15gwUobgEEr6HkhLzDoBRastAEYtIKeF/K6wqC+RC5bkKwhfzFvwbpkF3sYMOgi+ESqBgaJwOhiIcCgi+ATqRoYJAKji4UAgy6CT6RqVxjUkch0ZTWmCNZOVpm6gQhGUIhRBIBBo4h5LT0w6DVGjLYHGDSKmNfSA4NeY8Roe4BBo4h5Lb1bDOpI5Ia9B7S1L+bd0NSFXkO8g7QHGPQ70cAgMIjcLHhRt3oC2KBbyJOqFxgkhaRb5bjFoI5ErkzdgCmCdZPBfsmu9C1g0BXYCVYKDBIE05WigEFXYCdYKTBIEExXigIGXYGdYKVuMagjkUvfStLVvpgJIoePEcQLisJEABjEBMqzyYBBz1KD2TBgEBMozyYDBj1LDWbDgEFMoDybzC0GdSRyaMp8TAWsm6w+O8+z6Cdww4BBv5MLDAKDoncFL+pKZwAbdAV2gpUCgwTBdKUotxjUkciia7YeqNmW5QqyHbxS68SJJQCDrvQlEX/rAWAQGHQFAb9Xat30xBLABl3pDCL+1gPAYIdiECSyK3Q7V6l1jyCWAK7BOdokNYn4Ww8AgxJcnQtaJ04sARh0jjZJTSL+1gPAoARX54LWiRNLAAado01Sk4i/9YAhBp2TyNXrdkie19tBOso2VdJnjtHhgrgPUxtkmyq93fp2rbPen8QSgMF2yDp1IeJvPQAMOkVau3qsEyeWAAy2Q9apCxF/6wFg0CnS2tVjnTixBGCwHbJOXYj4Ww8YYtA5iWxIuTsFu1APRzfFyr6JFKxv2LewNnNy9cZnqtKH6H5qNo+u2zWz8cCy6MntdM0pnmOdbDN+Xdb7k1gCMIgPO8GUIv7WA8AgQV7wi7JOnFgCMIgPO8GUIv7WA8AgQV7wi7JOnFgCMIgPO8GUIv7WA4YY1JHIwXGzrTcIlVC7fQ9BvKwXxdSFIvnpdTun6qphrAQbnqrfOzdatItrbrDeNoIlAINY9KUPqQIGCXY7vKLABo16V/CieD2LcCrwouBFRVMFGyRsXXjFuWWDOhL5+5nviT3DYqAx9xAeFDan4thocC8xZSyfb143vCF3EVMbtPkxcIsHBnGdu0glMIjbucymAxscO8ucOwUvarbPWcoHXhS8qGiwYIOWbMlsZrdsUEciVyxeKfYMi4Fo8Wmz4BDLR4cLara/YtjaRfFkJNCQ+y4bqSLWdLMFAYOm6QYGzXY6rXxgg1YcKXhRrb5l2z3wouBFRbMFG7TNzrQKdssG/z9WXomP0ZEavwAAAABJRU5ErkJggg==;" vertex="1" parent="1">
                    <mxGeometry x="-60" y="20" width="950" height="563" as="geometry"/>
                </mxCell>
                <mxCell id="3" value="Untitled Layer" parent="0"/>
                <mxCell id="8" value="" style="edgeStyle=orthogonalEdgeStyle;html=1;strokeWidth=6;fillColor=#e51400;strokeColor=#B20000;" edge="1" parent="3" source="5" target="7">
                    <mxGeometry relative="1" as="geometry">
                        <Array as="points">
                            <mxPoint x="630" y="10"/>
                            <mxPoint x="-110" y="10"/>
                            <mxPoint x="-110" y="350"/>
                        </Array>
                    </mxGeometry>
                </mxCell>
                <mxCell id="5" value="" style="whiteSpace=wrap;html=1;strokeWidth=10;perimeterSpacing=8;glass=0;rounded=0;shadow=0;sketch=0;strokeColor=#B20000;fontColor=#ffffff;fillColor=none;" vertex="1" parent="3">
                    <mxGeometry x="550" y="90" width="170" height="40" as="geometry"/>
                </mxCell>
                <mxCell id="7" value="" style="whiteSpace=wrap;html=1;strokeWidth=10;perimeterSpacing=8;glass=0;rounded=0;shadow=0;sketch=0;fillStyle=auto;strokeColor=#B20000;fontColor=#ffffff;fillColor=none;" vertex="1" parent="3">
                    <mxGeometry x="-50" y="330" width="170" height="40" as="geometry"/>
                </mxCell>
                <mxCell id="12" value="" style="edgeStyle=orthogonalEdgeStyle;html=1;strokeWidth=6;fillColor=#e51400;strokeColor=#B20000;" edge="1" parent="3" source="9" target="11">
                    <mxGeometry relative="1" as="geometry"/>
                </mxCell>
                <mxCell id="9" value="" style="whiteSpace=wrap;html=1;strokeWidth=10;perimeterSpacing=8;glass=0;rounded=0;shadow=0;sketch=0;strokeColor=#B20000;fontColor=#ffffff;fillColor=none;" vertex="1" parent="3">
                    <mxGeometry x="545" y="260" width="105" height="40" as="geometry"/>
                </mxCell>
                <mxCell id="11" value="" style="whiteSpace=wrap;html=1;strokeWidth=10;perimeterSpacing=8;glass=0;rounded=0;shadow=0;sketch=0;strokeColor=#B20000;fontColor=#ffffff;fillColor=none;" vertex="1" parent="3">
                    <mxGeometry x="250" y="230" width="110" height="40" as="geometry"/>
                </mxCell>
            </root>
        </mxGraphModel>
    </diagram>
</mxfile>